<svg width="17" height="20" viewBox="0 0 17 20" fill="none" xmlns="http://www.w3.org/2000/svg">
<path d="M2.96172 0.129463L2.83333 0.258928V0.84375V1.42857H1.54505H0.256771L0.128385 1.55803L0 1.6875V3.89286C0 6.29018 0.00885417 6.37946 0.256771 6.84821C0.451562 7.21875 0.95625 7.70089 1.33698 7.875C1.74427 8.06696 2.05859 8.125 2.67396 8.125H3.16536L3.32917 8.47321C3.91797 9.71428 5.05573 10.7411 6.31745 11.1652L6.59635 11.2589V12.2812V13.3036H5.34349C3.96224 13.3036 3.78073 13.3304 3.42214 13.5759C3.20078 13.7321 3.05026 13.9196 2.9263 14.1964C2.84219 14.3839 2.83333 14.4866 2.83333 15.7679V17.1429H2.67839C2.41276 17.1429 2.04974 17.3125 1.8151 17.5446C1.1112 18.2589 1.36354 19.5625 2.27995 19.9062C2.52786 20 2.55443 20 8.5 20C14.4456 20 14.4721 20 14.7201 19.9062C15.6365 19.5625 15.8888 18.2589 15.1849 17.5446C14.9503 17.3125 14.5872 17.1429 14.3216 17.1429H14.1667V15.8125C14.1667 15.0848 14.1445 14.4152 14.1224 14.3304C14.0516 14.0759 13.8346 13.7679 13.6044 13.5982C13.237 13.3304 13.0555 13.3036 11.6521 13.3036H10.4036V12.2857V11.2634L10.7932 11.1205C11.9177 10.6964 12.874 9.88393 13.4937 8.81696C13.5911 8.64286 13.7063 8.41964 13.7461 8.3125L13.8214 8.125H14.3172C14.9635 8.125 15.2602 8.06696 15.6984 7.85714C16.2872 7.57143 16.7698 6.98214 16.9336 6.36161C16.9867 6.14286 17 5.72768 17 3.89286V1.6875L16.8716 1.55803L16.7432 1.42857H15.4549H14.1667V0.84375V0.258928L14.0383 0.129463L13.9099 0H8.5H3.0901L2.96172 0.129463ZM13.1839 3.9375C13.1661 6.86607 13.1661 6.90178 13.0643 7.25446C12.6305 8.78125 11.5104 9.90625 10.0052 10.3214C9.65547 10.4152 9.54479 10.4241 8.5 10.4241C7.45521 10.4241 7.34453 10.4152 6.99479 10.3214C5.48958 9.90625 4.36953 8.78125 3.93568 7.25446C3.83385 6.90178 3.83385 6.86607 3.81615 3.9375L3.80286 0.982141H8.5H13.1971L13.1839 3.9375ZM2.83333 4.57143C2.83333 5.75893 2.84661 6.82589 2.86432 6.94196L2.89089 7.15625L2.49688 7.12946C2.27995 7.11161 2.0099 7.06696 1.89479 7.02678C1.62474 6.9375 1.26615 6.61161 1.11563 6.32143L0.996094 6.09375L0.982812 4.25L0.969531 2.41071H1.90365H2.83333V4.57143ZM16.0172 4.25L16.0039 6.09375L15.8844 6.32143C15.7339 6.61161 15.3753 6.9375 15.1052 7.02678C14.9901 7.06696 14.7201 7.11161 14.5031 7.12946L14.1091 7.15625L14.1357 6.94196C14.1534 6.82589 14.1667 5.75893 14.1667 4.57143V2.41071H15.0964H16.0305L16.0172 4.25ZM9.42969 12.3661V13.3036H8.5H7.57031V12.3661V11.4286H8.5H9.42969V12.3661ZM12.8474 14.3304C12.9359 14.3571 13.051 14.4286 13.1042 14.4955C13.1883 14.6071 13.1927 14.6696 13.1927 15.875V17.1429H8.5H3.80729V15.875C3.80729 14.6652 3.81172 14.6071 3.90026 14.4911C3.94896 14.4286 4.05521 14.3571 4.13047 14.3348C4.33411 14.2768 12.6393 14.2723 12.8474 14.3304ZM14.3836 18.1875C14.5872 18.2946 14.6581 18.5446 14.5562 18.7723C14.4411 19.0312 14.7599 19.0179 8.50443 19.0179C4.1349 19.0179 2.72266 19.0045 2.63411 18.9643C2.32865 18.8259 2.31979 18.3527 2.61641 18.1875C2.78021 18.0937 14.2065 18.0982 14.3836 18.1875Z" fill="#808080"/>
</svg>
