<svg width="71" height="87" viewBox="0 0 71 87" fill="none" xmlns="http://www.w3.org/2000/svg">
<path opacity="0.5" fill-rule="evenodd" clip-rule="evenodd" d="M26.4053 0.459222C26.1527 0.711795 25.9463 1.04772 25.9468 1.20546C25.9472 1.36343 25.9038 8.41525 25.8506 16.8764C25.8036 24.3388 25.8902 31.7237 25.8506 39.1861L18.9429 39.2635C12.4755 39.2635 12.1487 39.2842 11.7102 39.7227C10.8978 40.5351 11.1274 41.2724 12.9967 43.8557C14.6485 46.1388 23.6812 58.9754 30.6846 68.9929C33.377 72.8442 34.01 73.614 34.6307 73.792C35.739 74.11 36.3045 73.7263 37.6971 71.7133C38.3804 70.7251 39.343 69.3483 39.8357 68.6538C40.5636 67.6279 47.4007 57.8666 52.3803 50.7441C52.9541 49.9232 54.6805 47.4751 56.2169 45.3037C59.1442 41.1663 59.3949 40.5668 58.5509 39.7227C58.1123 39.2842 57.7856 39.2635 51.322 39.2635H44.5524L44.4911 20.0705L44.4298 0.877803L43.8877 0.438786C43.3765 0.0250266 42.8762 0 35.105 0C27.1706 0 26.8475 0.0169912 26.4053 0.459222ZM5.81858 68.5913C4.85903 69.6365 4.58212 70.4762 4.99749 71.0803C5.36188 71.61 17.4553 79.9047 17.8633 79.9047C18.4867 79.9047 19.1048 79.125 19.0176 78.4485C18.9204 77.6952 7.99988 67.5057 7.28969 67.5057C7.0176 67.5057 6.39008 67.9688 5.81858 68.5913ZM61.812 68.2519C59.8557 69.8149 51.1934 77.9668 51.0676 78.3633C50.8738 78.9736 51.5721 79.9047 52.2237 79.9047C52.87 79.9047 65.2819 71.3267 65.4022 70.7969C65.4449 70.6084 65.422 70.23 65.351 69.9559C65.1823 69.302 63.5215 67.5057 63.0859 67.5057C62.899 67.5057 62.3259 67.8414 61.812 68.2519ZM22.9533 76.4752C22.6445 77.052 22.6105 77.0049 25.4781 79.9695C27.5435 82.1048 28.264 82.5365 28.419 81.7317C28.5127 81.2454 24.111 76.0013 23.6093 76.0013C23.388 76.0013 23.0927 76.2146 22.9533 76.4752ZM43.8948 78.6669C41.8712 81.2002 41.4526 82.086 42.2792 82.086C42.482 82.086 43.7497 80.923 45.0961 79.5015C47.2395 77.2385 47.5137 76.8598 47.2992 76.4592C46.767 75.465 46.1144 75.8881 43.8948 78.6669ZM0.516625 82.7822C0.0730164 83.094 0 83.3519 0 84.6083C0 85.6324 0.10838 86.1798 0.360723 86.4323C0.68103 86.7524 2.31655 86.793 14.8972 86.793C30.2974 86.793 29.9069 86.8261 29.9069 85.526C29.9069 84.3915 29.1854 84.0416 26.7816 84.0106C25.6276 83.9955 24.6201 83.9909 24.5429 83.9998C24.4658 84.009 23.4842 83.9234 22.3616 83.8095C21.239 83.6956 18.4091 83.4942 16.0728 83.3617C13.7365 83.2295 10.4301 83.0214 8.72523 82.9C1.7827 82.4047 1.06815 82.3944 0.516625 82.7822ZM62.7987 82.7971C60.2729 82.9627 55.7783 83.2635 52.8106 83.465C49.8429 83.6669 45.9769 83.925 44.2194 84.0386C41.9484 84.1854 40.9273 84.3422 40.6892 84.5803C40.2867 84.9828 40.249 86.0335 40.6237 86.4084C40.961 86.7457 68.9298 87.0259 69.5313 86.6978C70.1488 86.3614 70.2537 86.0679 70.2576 84.6691C70.2601 83.652 70.1556 83.2435 69.8018 82.8896C69.2737 82.3615 69.4122 82.3634 62.7987 82.7971Z" fill="white"/>
</svg>
