<svg width="43" height="43" viewBox="0 0 43 43" fill="none" xmlns="http://www.w3.org/2000/svg">
<path d="M18.8403 0.125561C12.9348 0.899441 7.76644 3.90283 4.23791 8.60139C1.48327 12.2773 0 16.7824 0 21.4533C0 23.9132 0.331663 25.94 1.12397 28.3169C3.03103 34.0657 7.48084 38.8933 13.027 41.2149C16.5094 42.6705 20.2867 43.2141 23.9718 42.7811C25.5657 42.5968 26.6988 42.3389 28.3295 41.7953C36.1328 39.2065 41.7711 32.2876 42.7937 24.0329C42.9688 22.5681 42.9688 20.3386 42.7937 18.8737C42.2225 14.3134 40.251 10.0662 37.1831 6.80488C33.6269 3.03682 29.1403 0.752033 24.0455 0.125561C22.6728 -0.0402718 20.1393 -0.0402718 18.8403 0.125561ZM14.0957 9.29235C14.5102 9.50425 14.7682 9.84512 14.9156 10.3518C14.9893 10.6098 15.017 13.346 15.017 19.4449V28.1787L15.2749 28.0774C16.6568 27.543 18.0111 29.0539 17.3294 30.3714C17.1083 30.7859 14.4365 33.4485 14.0312 33.6511C13.6534 33.8446 12.9717 33.8446 12.594 33.6511C12.1886 33.4485 9.51688 30.7859 9.29577 30.3714C9.06545 29.9291 9.07466 29.2842 9.30498 28.8236C9.64586 28.1511 10.6132 27.7918 11.3594 28.0774L11.6082 28.1787V19.4449C11.6082 13.346 11.6358 10.6098 11.7095 10.3518C11.7648 10.1491 11.8938 9.87276 11.9951 9.72536C12.4097 9.14495 13.3955 8.93305 14.0957 9.29235ZM32.7701 11.052C33.0834 11.1718 33.5071 11.5587 33.6822 11.8904C33.848 12.2036 33.848 12.8946 33.6822 13.2815C33.5256 13.6685 33.0741 14.0462 32.6319 14.1752C32.4016 14.2489 30.0523 14.2673 25.0866 14.2489L17.8914 14.2212L17.5321 13.9356C17.3386 13.779 17.0991 13.5118 17.0069 13.346C16.5831 12.6274 16.9332 11.5311 17.7071 11.1441C18.1033 10.9507 18.1585 10.9507 25.3077 10.9507C30.1721 10.9507 32.5951 10.9783 32.7701 11.052ZM30.5682 15.5479C31.7199 16.1375 31.8304 17.676 30.7617 18.3854L30.3656 18.6434L24.3311 18.671C20.2683 18.6895 18.177 18.671 17.9559 18.5973C17.2833 18.4039 16.6753 17.4181 16.8227 16.7824C16.9701 16.1836 17.3202 15.7321 17.8269 15.5018C18.048 15.4005 19.2917 15.382 24.1653 15.3728C29.9326 15.3728 30.2458 15.382 30.5682 15.5479ZM28.265 19.9885C29.4719 20.5781 29.4719 22.3285 28.265 22.9182C27.8689 23.1116 27.7583 23.1116 23.0045 23.1116C17.6426 23.1116 17.7808 23.1301 17.2557 22.5312C16.6661 21.8587 16.6661 21.048 17.2557 20.3754C17.7716 19.7858 17.615 19.8042 22.9769 19.795C27.7675 19.795 27.8689 19.795 28.265 19.9885ZM25.8789 24.4014C26.6159 24.7699 27.0029 25.5438 26.8094 26.2532C26.6804 26.7323 26.1461 27.3219 25.7131 27.4417C25.492 27.5062 24.1008 27.5338 21.641 27.5154L17.9098 27.4877L17.5689 27.2574C16.7121 26.6678 16.5739 25.5807 17.2557 24.7976C17.7624 24.2172 17.7255 24.2264 21.816 24.2172C25.3169 24.2172 25.5472 24.2264 25.8789 24.4014Z" fill="#FFF6F6"/>
</svg>
