<svg width="77" height="112" viewBox="0 0 77 112" fill="none" xmlns="http://www.w3.org/2000/svg">
<path opacity="0.5" fill-rule="evenodd" clip-rule="evenodd" d="M37.5864 0.240282C37.3117 0.375143 36.2256 1.63185 35.1727 3.0329C29.5053 10.5766 26.0439 18.667 24.8251 27.2182C24.2802 31.044 24.4657 38.8717 25.2182 43.7913C26.0866 49.467 28.535 58.3131 30.1544 61.6237C30.8859 63.1194 31.0724 63.1474 38.9648 62.9496L46.0589 62.7718L46.5702 62.0121C47.2737 60.9671 49.0002 55.763 50.1782 51.136C52.6452 41.4478 53.1052 31.4883 51.4516 23.5622C50.108 17.1229 46.2021 8.97652 41.3695 2.53541C39.5242 0.075703 38.8079 -0.358849 37.5864 0.240282ZM36.7111 19.2672C36.0925 19.4407 35.0603 19.9447 34.4177 20.3867C28.8629 24.2088 31.6606 32.7807 38.463 32.7807C41.2319 32.7807 43.3992 31.4261 44.7743 28.8358C45.5387 27.396 45.5285 24.5027 44.7538 23.0143C43.1976 20.0241 39.7457 18.4158 36.7111 19.2672ZM17.7292 48.4323C15.0522 51.1907 12.7676 53.6914 12.6524 53.9891C11.8148 56.1513 14.9323 68.0408 16.5439 68.8305C17.0097 69.0588 17.3713 69.075 17.8588 68.8897C18.4472 68.6659 26.7182 60.4564 26.9269 59.889C26.9706 59.7704 26.5576 58.2911 26.0089 56.6021C24.891 53.1607 23.8946 49.3464 23.477 46.9131C23.3239 46.0203 23.1571 45.065 23.1066 44.7903C23.0562 44.5156 23.0062 44.094 22.9957 43.8538C22.985 43.6135 22.8909 43.4167 22.7865 43.4167C22.6818 43.4167 20.4062 45.6737 17.7292 48.4323ZM53.8317 44.8528C53.4785 47.8297 51.5413 55.1104 49.8837 59.6907C49.8508 59.7816 51.8907 61.9449 54.4171 64.4982C59.2054 69.3375 59.6 69.6042 60.6347 68.7031C61.2153 68.1974 62.92 63.8277 63.5332 61.2733C64.0027 59.3183 64.4365 54.8567 64.2354 54.0535C64.1046 53.5303 54.5582 43.4167 54.195 43.4167C54.0889 43.4167 53.9253 44.0628 53.8317 44.8528ZM31.8441 65.3506C31.5849 65.6101 31.7287 68.3023 32.0172 68.5908C32.4895 69.063 44.5415 69.0126 44.9364 68.5368C45.1094 68.3283 45.1988 67.5855 45.1541 66.7262L45.0787 65.2692L38.5247 65.2467C34.9202 65.2342 31.9138 65.2809 31.8441 65.3506ZM31.5781 71.6611C31.4123 71.9293 30.6314 75.4572 28.3764 86.1227C26.0721 97.0217 25.398 99.2154 24.1383 99.9164C23.8216 100.093 22.524 100.221 20.9786 100.229C18.5641 100.241 18.2222 100.305 16.6643 101.039C14.5829 102.02 12.7925 103.794 11.9684 105.693C11.5521 106.652 11.2466 107.054 10.9889 106.982C8.97771 106.419 7.41132 106.349 5.80523 106.747C4.87893 106.977 3.7024 107.376 3.19118 107.634C2.06135 108.204 0.55465 109.671 0.23498 110.512C-0.226294 111.725 -0.110167 111.846 1.51341 111.846C2.80782 111.846 3.15971 111.741 3.9484 111.118C5.60244 109.811 8.33837 109.5 10.9659 110.32C13.091 110.983 13.7555 110.685 14.3689 108.792C15.1836 106.277 16.5799 104.618 18.4402 103.953C18.9774 103.761 20.5078 103.622 22.1454 103.616C24.905 103.605 24.9472 103.596 25.9827 102.793C27.4062 101.689 28.5725 99.6774 29.3482 96.9865C30.0864 94.4266 33.5216 77.3917 33.9749 74.0434C34.2247 72.1995 34.2177 71.7927 33.9327 71.6121C33.4437 71.3025 31.7784 71.3369 31.5781 71.6611ZM37.305 71.5789C36.9234 71.8277 36.6944 79.6389 36.6439 94.1144C36.6052 105.21 36.6252 105.771 37.0949 106.709C37.7917 108.101 38.3616 108.383 38.9725 107.639C40.0034 106.383 40.0337 105.734 39.8646 88.3831C39.7402 75.6138 39.6318 71.7428 39.3938 71.5919C39.0042 71.3442 37.6776 71.3362 37.305 71.5789ZM42.603 71.796C42.5168 72.0205 42.5011 72.5544 42.5681 72.9822C43.5236 79.0877 46.1588 92.9511 46.988 96.2327C47.6208 98.7387 48.5234 100.661 49.655 101.913C51.0218 103.426 51.5555 103.604 54.7437 103.61C57.8041 103.616 58.9232 103.933 60.2293 105.163C60.9908 105.88 61.8624 107.485 62.2882 108.956C62.7442 110.531 63.4508 110.802 65.7222 110.271C68.8559 109.538 70.9907 109.825 72.8288 111.227C73.4871 111.729 73.9279 111.846 75.1559 111.846C76.3579 111.846 76.6711 111.766 76.6711 111.459C76.6711 110.28 74.6814 108.174 72.7057 107.26C71.719 106.804 71.0926 106.726 68.3914 106.726H65.2314L64.5501 105.292C62.953 101.929 59.0893 99.8967 54.9435 100.24L53.0705 100.395L52.2763 99.5646C50.9317 98.1595 50.5086 96.695 48.0686 84.9988C47.5814 82.6637 46.8594 79.236 46.4643 77.3817C46.0689 75.5274 45.6661 73.5044 45.5687 72.8863C45.3604 71.5604 45.1659 71.3969 43.7943 71.3916C43.0648 71.3891 42.7134 71.5082 42.603 71.796ZM14.2108 91.8932C13.1689 93.0086 13.1869 94.5257 14.2548 95.5936C14.8771 96.216 15.2295 96.3621 16.1086 96.3621C16.9877 96.3621 17.3401 96.216 17.9624 95.5936C18.5848 94.9713 18.7309 94.6189 18.7309 93.7398C18.7309 92.8607 18.5848 92.5083 17.9624 91.886C17.3308 91.2544 16.9927 91.1175 16.0646 91.1175C15.1234 91.1175 14.8147 91.2466 14.2108 91.8932ZM58.6312 91.8463C57.9359 92.4676 57.8156 92.7431 57.8156 93.7146C57.8156 94.6624 57.9494 94.9878 58.6112 95.6496C60.3509 97.3893 63.2023 96.0874 63.1768 93.565C63.1548 91.3795 60.3432 90.3166 58.6312 91.8463Z" fill="white"/>
</svg>
