<svg xmlns="http://www.w3.org/2000/svg" viewBox="0 0 14 17" width="20" height="20">
  <path fill="#FFFFFF" d="M13.12 13.18c-.24.55-.53 1.04-.87 1.48-.46.57-.83.97-1.1 1.19-.44.4-.9.61-1.38.62-.35 0-.78-.1-1.28-.3-.5-.2-.96-.3-1.38-.3-.45 0-.93.1-1.44.3s-.91.3-1.23.3c-.5-.02-.98-.23-1.44-.62-.26-.22-.65-.63-1.17-1.23-.5-.61-.92-1.32-1.26-2.15C.14 10.5 0 9.6 0 8.77c0-1.02.22-1.9.65-2.63.43-.73 1.01-1.32 1.74-1.77A4.6 4.6 0 014.74 4c.35 0 .8.1 1.36.28.55.18.9.27 1.05.27.12 0 .5-.12 1.14-.36.61-.22 1.14-.32 1.57-.3 1.16.1 2.04.57 2.64 1.43-1.05.64-1.57 1.54-1.57 2.69 0 .89.33 1.63.99 2.23.43.4.91.66 1.44.79-.12.25-.26.56-.44.92zM9.44 0c0 .76-.28 1.47-.84 2.13-.68.8-1.5 1.26-2.39 1.18a1.86 1.86 0 01-.02-.23c0-.73.32-1.5.88-2.13C7.8.39 8.74-.04 9.6 0c.02.08.03.18.03.3 0 .04 0 .07 0 .1-.06.23-.11.4-.19.6z"></path>
</svg>
