<svg width="18" height="21" viewBox="0 0 18 21" fill="none" xmlns="http://www.w3.org/2000/svg">
<path fill-rule="evenodd" clip-rule="evenodd" d="M12.1494 3.35251C12.915 2.46528 13.431 1.22953 13.2898 0C12.1866 0.042 10.852 0.704704 10.061 1.59089C9.35064 2.37733 8.73058 3.63394 8.89727 4.83933C10.1278 4.93067 11.3839 4.24079 12.1494 3.35251ZM14.9089 11.1562C14.9397 14.3346 17.8181 15.3918 17.85 15.4055C17.8266 15.48 17.3903 16.912 16.3338 18.3924C15.4196 19.6713 14.4715 20.945 12.9776 20.9723C11.5103 20.9986 11.0378 20.1387 9.35914 20.1387C7.68156 20.1387 7.15705 20.9449 5.76828 20.9985C4.32641 21.0499 3.22749 19.6148 2.30695 18.3401C0.423396 15.733 -1.01528 10.9726 0.917115 7.75964C1.87694 6.16471 3.59168 5.15318 5.454 5.12798C6.86932 5.10173 8.20607 6.04058 9.0714 6.04058C9.93673 6.04058 11.5612 4.91183 13.2685 5.07773C13.9831 5.10608 15.9898 5.3538 17.2777 7.16082C17.1737 7.22276 14.8835 8.49979 14.9089 11.1562Z" fill="white"/>
</svg>
