<svg width="93" height="54" viewBox="0 0 93 54" fill="none" xmlns="http://www.w3.org/2000/svg">
<path opacity="0.5" fill-rule="evenodd" clip-rule="evenodd" d="M91.4269 0.0761547C91.2128 0.290247 76.0588 4.59438 75.5192 4.59438C75.2556 4.59438 74.8246 4.83249 74.5613 5.12354C73.6566 6.12312 73.9731 6.78247 76.2523 8.64479C77.4458 9.62007 78.4222 10.4718 78.4222 10.5381C78.4222 10.604 77.8062 11.2142 77.0534 11.8935C76.3006 12.5731 74.6999 14.0405 73.496 15.1544C72.2922 16.2682 69.7511 18.6198 67.8489 20.38C64.0146 23.9281 60.1361 27.4523 56.802 30.4177C54.9021 32.1076 54.5419 32.3208 54.1449 31.9899C53.8924 31.7792 52.3188 30.4391 50.648 29.0122C39.2611 19.2869 38.2147 18.4815 36.9672 18.4815C35.919 18.4815 35.6968 18.6516 13.905 36.1239C11.5978 37.9741 7.52507 41.2283 4.85499 43.3559L0 47.2243L0.0812991 50.4288C0.179377 54.2998 0.202814 54.3099 3.23801 51.8044C4.41089 50.8364 9.08072 47.0933 13.6157 43.4864C18.1507 39.8798 22.7725 36.2032 23.8864 35.3164C25.0003 34.4297 28.3572 31.7688 31.3464 29.4034L36.7808 25.103L38.0006 26.0476C38.6712 26.5672 42.2582 29.5365 45.9712 32.646C53.9861 39.3578 54.0171 39.3798 55.0835 39.1808C56.1227 38.9869 56.517 38.6701 61.1495 34.3108C63.2502 32.3339 65.311 30.4044 65.7288 30.0234C66.6005 29.2287 75.3913 21.0868 79.6952 17.0881L82.5964 14.3929L85.0359 16.8712C87.4095 19.2823 87.9727 19.6133 88.8045 19.0864C89.1769 18.8509 92.9096 2.59753 92.9967 0.833292C93.025 0.262764 92.8775 0.0920668 92.2986 0.0243672C91.8947 -0.0227911 91.5024 0.000643612 91.4269 0.0761547Z" fill="white"/>
</svg>
