<svg width="28" height="20" viewBox="0 0 28 20" fill="none" xmlns="http://www.w3.org/2000/svg">
<path opacity="0.5" d="M27.92 10.2741C27.9953 10.091 28.0146 9.88973 27.9755 9.69569C27.9363 9.50165 27.8404 9.3236 27.7 9.18409L18.82 0.294092C18.6317 0.105788 18.3763 -1.9841e-09 18.11 0C17.8437 1.9841e-09 17.5883 0.105788 17.4 0.294092C17.2117 0.482395 17.1059 0.73779 17.1059 1.00409C17.1059 1.27039 17.2117 1.52579 17.4 1.71409L24.59 8.89409H1C0.734784 8.89409 0.48043 8.99945 0.292893 9.18699C0.105357 9.37452 0 9.62887 0 9.89409C0 10.1593 0.105357 10.4137 0.292893 10.6012C0.48043 10.7887 0.734784 10.8941 1 10.8941H24.59L17.4 18.0741C17.2953 18.1637 17.2103 18.2741 17.1503 18.3981C17.0903 18.5222 17.0565 18.6573 17.0512 18.795C17.0459 18.9328 17.0691 19.0701 17.1194 19.1984C17.1696 19.3267 17.2459 19.4433 17.3433 19.5407C17.4408 19.6382 17.5574 19.7145 17.6857 19.7647C17.814 19.815 17.9513 19.8382 18.0891 19.8329C18.2268 19.8276 18.3619 19.7938 18.486 19.7338C18.61 19.6738 18.7204 19.5888 18.81 19.4841L27.7 10.5941C27.7935 10.5028 27.8683 10.3941 27.92 10.2741Z" fill="white"/>
</svg>
