<svg width="17" height="10" viewBox="0 0 17 10" fill="none" xmlns="http://www.w3.org/2000/svg">
<path d="M0.00178957 8.39813C-0.0193928 8.09393 0.150066 7.85792 0.372481 7.64288C1.89761 6.13762 3.41745 4.62711 4.93729 3.12185C5.85872 2.20925 6.78545 1.29141 7.70688 0.378816C8.20997 -0.119442 8.75541 -0.12993 9.2585 0.368326C11.7157 2.79667 14.1728 5.23027 16.63 7.6691C17.1225 8.15687 17.1225 8.67611 16.6353 9.16387C16.4923 9.30548 16.3493 9.45234 16.2063 9.5887C15.7509 10.024 15.2055 10.0293 14.7553 9.58346C13.5744 8.41911 12.3935 7.24952 11.2179 6.07993C10.3865 5.25649 9.55505 4.44354 8.73423 3.60962C8.54888 3.42081 8.45356 3.41032 8.25763 3.60437C6.27707 5.58167 4.28063 7.54847 2.28949 9.52052C2.06707 9.74605 1.81818 9.90864 1.48456 9.90339C0.907337 9.88766 0.00708516 8.99079 0.00178957 8.39813Z" fill="white"/>
</svg>
