<svg width="10" height="10" viewBox="0 0 10 10" fill="none" xmlns="http://www.w3.org/2000/svg">
<path d="M4.29225 5.11016L6.57795 7.39586C6.62363 7.43746 6.6605 7.4878 6.68638 7.54391C6.71226 7.60001 6.72662 7.66074 6.72861 7.72249C6.7306 7.78424 6.72018 7.84577 6.69797 7.90342C6.67575 7.96107 6.6422 8.01368 6.59929 8.05814C6.55639 8.10259 6.505 8.13799 6.44817 8.16223C6.39133 8.18647 6.33022 8.19906 6.26843 8.19926C6.20665 8.19945 6.14545 8.18725 6.08847 8.16338C6.03148 8.1395 5.97987 8.10444 5.93668 8.06026L5.92543 8.04901L3.31284 5.43705C3.22624 5.35043 3.17759 5.23296 3.17759 5.11047C3.17759 4.98799 3.22624 4.87052 3.31284 4.7839L5.9248 2.17194C5.96695 2.12832 6.01728 2.09342 6.07291 2.06924C6.12854 2.04507 6.1884 2.03209 6.24905 2.03104C6.3097 2.03 6.36996 2.04091 6.42639 2.06316C6.48282 2.0854 6.53432 2.11854 6.57795 2.16069C6.62157 2.20284 6.65647 2.25317 6.68064 2.3088C6.70482 2.36443 6.7178 2.42428 6.71884 2.48493C6.71989 2.54558 6.70898 2.60585 6.68673 2.66228C6.66449 2.71871 6.63135 2.77021 6.5892 2.81384L6.57795 2.82509L4.29225 5.11016Z" fill="white" stroke="white" stroke-width="0.31251"/>
</svg>
