<svg width="22" height="20" viewBox="0 0 22 20" fill="none" xmlns="http://www.w3.org/2000/svg">
<path d="M9.74906 0.320694C8.92809 0.73118 9.21885 0.269382 4.08777 9.12906L0.0171036 16.1415L0 17.2875C0 18.3137 0.0513109 18.4847 0.496005 18.9465C0.786767 19.2373 1.28277 19.5623 1.60774 19.6478C2.42871 19.8701 19.2929 19.8701 20.1139 19.6478C20.4388 19.5623 20.9348 19.2373 21.2256 18.9465C21.6703 18.4847 21.7216 18.3137 21.7216 17.2875L21.7045 16.1415L17.6338 9.12906C12.4685 0.235176 12.7935 0.714077 11.9554 0.320694C11.0831 -0.106897 10.6042 -0.106897 9.74906 0.320694ZM11.5792 1.80871C11.7331 1.97975 13.7513 5.41757 16.0774 9.47113C20.4388 17.0138 20.6783 17.5611 20.0112 18.04C19.5323 18.3821 2.18926 18.3821 1.71036 18.04C1.04332 17.5611 1.28277 17.0138 5.64419 9.47113C7.97029 5.41757 9.98851 1.97975 10.1424 1.80871C10.2793 1.65478 10.6042 1.51795 10.8608 1.51795C11.1174 1.51795 11.4423 1.65478 11.5792 1.80871Z" fill="#FF0000"/>
<path d="M10.1758 9.55788V12.9786H10.8599H11.5441V9.55788V6.13716H10.8599H10.1758V9.55788Z" fill="#FF0000"/>
<path d="M10.5192 14.1243C10.3824 14.1756 10.2113 14.3124 10.1429 14.4151C9.93768 14.7058 9.98899 15.4584 10.2113 15.6807C10.4679 15.9373 11.2547 15.9373 11.5112 15.6807C11.7336 15.4584 11.7849 14.7058 11.5796 14.4151C11.4257 14.1585 10.8442 14.0046 10.5192 14.1243Z" fill="#FF0000"/>
</svg>
