<svg width="20" height="20" viewBox="0 0 20 20" fill="none" xmlns="http://www.w3.org/2000/svg">
<circle cx="10" cy="10" r="10" fill="#666666"/>
<path d="M9.29192 10.1104L11.5776 12.3961C11.6233 12.4377 11.6602 12.4881 11.686 12.5442C11.7119 12.6003 11.7263 12.661 11.7283 12.7228C11.7303 12.7845 11.7198 12.846 11.6976 12.9037C11.6754 12.9613 11.6419 13.014 11.599 13.0584C11.5561 13.1029 11.5047 13.1383 11.4478 13.1625C11.391 13.1867 11.3299 13.1993 11.2681 13.1995C11.2063 13.1997 11.1451 13.1875 11.0881 13.1637C11.0312 13.1398 10.9795 13.1047 10.9363 13.0605L10.9251 13.0493L8.31251 10.4373C8.22591 10.3507 8.17726 10.2332 8.17726 10.1107C8.17726 9.98826 8.22591 9.87079 8.31251 9.78418L10.9245 7.17221C10.9666 7.12859 11.0169 7.09369 11.0726 7.06952C11.1282 7.04534 11.1881 7.03236 11.2487 7.03132C11.3094 7.03027 11.3696 7.04119 11.4261 7.06343C11.4825 7.08567 11.534 7.11882 11.5776 7.16096C11.6212 7.20311 11.6561 7.25344 11.6803 7.30907C11.7045 7.36471 11.7175 7.42456 11.7185 7.48521C11.7196 7.54586 11.7086 7.60612 11.6864 7.66255C11.6642 7.71899 11.631 7.77049 11.5889 7.81411L11.5776 7.82536L9.29192 10.1104Z" fill="white" stroke="white" stroke-width="0.31251"/>
</svg>
