<svg width="20" height="20" viewBox="0 0 20 20" fill="none" xmlns="http://www.w3.org/2000/svg">
<path d="M1.25 3.125C0.904825 3.125 0.625 3.40483 0.625 3.75C0.625 4.09517 0.904825 4.375 1.25 4.375V3.125ZM18.75 4.375C19.0952 4.375 19.375 4.09517 19.375 3.75C19.375 3.40483 19.0952 3.125 18.75 3.125V4.375ZM1.25 4.375H18.75V3.125H1.25V4.375Z" fill="#8E8E8E"/>
<path d="M6.25 3.7496C6.25 4.09478 6.52983 4.3746 6.875 4.3746C7.22017 4.3746 7.5 4.09478 7.5 3.7496H6.25ZM12.5 3.7496C12.5 4.09478 12.7798 4.3746 13.125 4.3746C13.4702 4.3746 13.75 4.09478 13.75 3.7496H12.5ZM11.875 0.624603H8.125V1.8746H11.875V0.624603ZM8.125 0.624603C7.62772 0.624603 7.15081 0.822147 6.79917 1.17378L7.68306 2.05766C7.80027 1.94045 7.95924 1.8746 8.125 1.8746V0.624603ZM6.79917 1.17378C6.44754 1.52541 6.25 2.00232 6.25 2.4996H7.5C7.5 2.33384 7.56585 2.17487 7.68306 2.05766L6.79917 1.17378ZM6.25 2.4996V3.7496H7.5V2.4996H6.25ZM13.75 3.7496V2.4996H12.5V3.7496H13.75ZM13.75 2.4996C13.75 2.00232 13.5524 1.52541 13.2008 1.17378L12.3169 2.05766C12.4342 2.17487 12.5 2.33384 12.5 2.4996H13.75ZM13.2008 1.17378C12.8492 0.822147 12.3723 0.624603 11.875 0.624603V1.8746C12.0408 1.8746 12.1997 1.94045 12.3169 2.05766L13.2008 1.17378Z" fill="#8E8E8E"/>
<path d="M7.5 14.375C7.5 14.7202 7.77983 15 8.125 15C8.47017 15 8.75 14.7202 8.75 14.375H7.5ZM8.75 8.125C8.75 7.77983 8.47017 7.5 8.125 7.5C7.77983 7.5 7.5 7.77983 7.5 8.125H8.75ZM8.75 14.375V8.125H7.5V14.375H8.75Z" fill="#8E8E8E"/>
<path d="M11.25 14.375C11.25 14.7202 11.5298 15 11.875 15C12.2202 15 12.5 14.7202 12.5 14.375H11.25ZM12.5 8.125C12.5 7.77983 12.2202 7.5 11.875 7.5C11.5298 7.5 11.25 7.77983 11.25 8.125H12.5ZM12.5 14.375V8.125H11.25V14.375H12.5Z" fill="#8E8E8E"/>
<path d="M3.74788 3.69811C3.7192 3.35412 3.4171 3.09852 3.07311 3.1272C2.72912 3.15588 2.47352 3.45798 2.5022 3.80196L3.74788 3.69811ZM17.4979 3.80193C17.5265 3.45795 17.271 3.15585 16.927 3.1272C16.583 3.09854 16.2809 3.35416 16.2522 3.69815L17.4979 3.80193ZM15.098 17.5515C15.085 17.7077 15.0138 17.8537 14.8984 17.9599L15.745 18.8796C16.0911 18.561 16.3049 18.1239 16.3437 17.655L15.098 17.5515ZM14.8984 17.9599C14.783 18.0661 14.632 18.125 14.4751 18.125L14.475 19.375C14.9455 19.375 15.3988 19.1983 15.745 18.8796L14.8984 17.9599ZM14.4751 18.125H5.52587V19.375H14.475L14.4751 18.125ZM5.52587 18.125C5.36905 18.125 5.21789 18.0661 5.1025 17.9599L4.25598 18.8796C4.60215 19.1983 5.05539 19.375 5.52587 19.375V18.125ZM5.1025 17.9599C4.98711 17.8537 4.91586 17.708 4.9029 17.5517L3.65718 17.655C3.69607 18.1239 3.9098 18.561 4.25598 18.8796L5.1025 17.9599ZM4.9029 17.5517L3.74788 3.69811L2.5022 3.80196L3.65718 17.655L4.9029 17.5517ZM16.2522 3.69815L15.098 17.5515L16.3437 17.655L17.4979 3.80193L16.2522 3.69815Z" fill="#8E8E8E"/>
</svg>
