<svg width="27" height="27" viewBox="0 0 27 27" fill="none" xmlns="http://www.w3.org/2000/svg">
<g clip-path="url(#clip0_381_851)">
<path d="M25.6563 16.1733C23.9168 23.1507 16.8494 27.3966 9.87125 25.657C2.89632 23.9175 -1.35002 16.8502 0.389946 9.87318C2.1287 2.89498 9.19562 -1.35176 16.1718 0.387798C23.1496 2.12736 27.3959 9.19551 25.6563 16.1733Z" fill="#F7931A"/>
<path d="M18.766 11.1677C19.0248 9.43467 17.7053 8.50302 15.901 7.88152L16.4863 5.53388L15.0569 5.17774L14.4871 7.46352C14.1118 7.3699 13.7259 7.28158 13.3425 7.19407L13.9164 4.89324L12.4882 4.53711L11.9025 6.88393C11.5916 6.81311 11.2863 6.74311 10.99 6.66944L10.9916 6.66211L9.0209 6.17004L8.64076 7.69633C8.64076 7.69633 9.70102 7.93931 9.67863 7.95437C10.2574 8.09886 10.3624 8.48185 10.3445 8.78548L9.67782 11.46C9.71771 11.4701 9.7694 11.4848 9.82638 11.5076L9.67578 11.4701L8.74088 15.2167C8.67006 15.3925 8.49057 15.6562 8.086 15.5561C8.10025 15.5769 7.04731 15.2968 7.04731 15.2968L6.33789 16.933L8.19793 17.3966C8.54389 17.4833 8.88293 17.5741 9.21627 17.6595L8.62488 20.0344L10.0523 20.3906L10.6384 18.0413C11.0279 18.1471 11.4064 18.2448 11.7768 18.3368L11.1931 20.6751L12.6221 21.0312L13.2135 18.6612C15.6503 19.1223 17.4831 18.9363 18.2535 16.7328C18.875 14.9582 18.223 13.9346 16.9409 13.2667C17.8746 13.0505 18.5783 12.4364 18.766 11.1677ZM15.5005 15.7462C15.0585 17.5207 12.071 16.5618 11.1019 16.3209L11.8867 13.1751C12.8553 13.4169 15.9608 13.8955 15.5005 15.7462ZM15.9421 11.1421C15.5392 12.7563 13.0523 11.9362 12.2452 11.7351L12.9567 8.88195C13.7638 9.08301 16.3622 9.45827 15.9421 11.1421Z" fill="white"/>
</g>
<defs>
<clipPath id="clip0_381_851">
<rect width="26.0487" height="26.0487" fill="white"/>
</clipPath>
</defs>
</svg>
