<svg width="47" height="47" viewBox="0 0 47 47" fill="none" xmlns="http://www.w3.org/2000/svg">
<g clip-path="url(#clip0_937_13716)">
<path d="M36.7646 0H10.2354C4.58252 0 0 4.58252 0 10.2354V36.7646C0 42.4175 4.58252 47 10.2354 47H36.7646C42.4175 47 47 42.4175 47 36.7646V10.2354C47 4.58252 42.4175 0 36.7646 0Z" fill="white"/>
<path d="M21.6906 18.5262H30.4662L39.4437 27.4464C40.0277 28.0266 40.0307 28.9705 39.4497 29.5536L27.9366 41.1249H18.8965L21.6295 38.4679L31.664 28.4967L21.7569 18.5254" fill="#1B1B1B"/>
<path d="M25.2975 28.4745H16.5219L7.54436 19.5542C6.96036 18.974 6.95738 18.0303 7.53839 17.447L19.0515 5.875H28.0916L25.3586 8.53205L15.3241 18.5032L25.2312 28.4745" fill="#1B1B1B"/>
</g>
<defs>
<clipPath id="clip0_937_13716">
<rect width="47" height="47" fill="white"/>
</clipPath>
</defs>
</svg>
