<svg width="13" height="17" viewBox="0 0 13 17" fill="none" xmlns="http://www.w3.org/2000/svg">
<path d="M12.4281 6.63061C12.6869 4.89756 11.3674 3.96591 9.56312 3.34441L10.1484 0.996769L8.71898 0.640635L8.14916 2.92641C7.7739 2.83279 7.38805 2.74447 7.00465 2.65696L7.57853 0.356134L6.15034 0L5.56465 2.34682C5.25369 2.276 4.94843 2.206 4.65213 2.13233L4.65376 2.125L2.68301 1.63293L2.30287 3.15922C2.30287 3.15922 3.36313 3.4022 3.34074 3.41726C3.91951 3.56175 4.02452 3.94475 4.00661 4.24838L3.33993 6.92284C3.37982 6.93302 3.43151 6.94767 3.48849 6.97046L3.33789 6.93302L2.40299 10.6795C2.33217 10.8554 2.15268 11.1191 1.74811 11.019C1.76236 11.0398 0.70942 10.7597 0.70942 10.7597L0 12.3959L1.86004 12.8595C2.206 12.9462 2.54504 13.037 2.87838 13.1224L2.28699 15.4973L3.71438 15.8535L4.30047 13.5042C4.68998 13.61 5.0685 13.7077 5.43888 13.7997L4.85523 16.138L6.28424 16.4941L6.87563 14.1241C9.3124 14.5852 11.1452 14.3992 11.9156 12.1957C12.5371 10.4211 11.8851 9.39747 10.603 8.72956C11.5367 8.51344 12.2404 7.89926 12.4281 6.63061ZM9.16262 11.2091C8.72061 12.9836 5.73315 12.0247 4.76406 11.7838L5.54877 8.63798C6.51746 8.87975 9.62295 9.35839 9.16262 11.2091ZM9.60423 6.60497C9.20129 8.21917 6.71445 7.39904 5.90735 7.19798L6.6188 4.34484C7.42591 4.5459 10.0243 4.92116 9.60423 6.60497Z" fill="white"/>
</svg>
