<svg width="56" height="56" viewBox="0 0 56 56" fill="none" xmlns="http://www.w3.org/2000/svg">
<circle cx="28" cy="28" r="28" fill="#002210"/>
<path d="M24.3388 13.3315C23.633 13.4961 22.1745 14.0842 21.0454 14.6253C18.1518 16.0603 16.0111 18.2481 14.5761 21.2357C13.3058 23.8469 13 25.2113 13 28.0342C13 30.8571 13.3058 32.2216 14.5761 34.8328C16.0582 37.9145 18.1754 40.0317 21.2571 41.5137C23.8683 42.784 25.2327 43.0898 28.0556 43.0898C30.8786 43.0898 32.243 42.784 34.8542 41.5137C36.6185 40.6668 37.3948 40.1258 38.7592 38.7378C40.1472 37.3734 40.6882 36.5971 41.5351 34.8328C42.8054 32.2216 43.1113 30.8571 43.1113 28.0342C43.1113 25.2113 42.8054 23.8469 41.5351 21.2357C40.0531 18.154 37.9359 16.0368 34.8542 14.5547C33.6309 13.9666 32.0783 13.3785 31.3961 13.2374C29.7494 12.8845 25.8914 12.9315 24.3388 13.3315ZM31.3726 15.9427C35.5364 17.1659 38.9239 20.5534 40.1472 24.7173C40.6412 26.3875 40.6412 29.6809 40.1472 31.3512C38.9239 35.515 35.5364 38.9025 31.3726 40.1258C29.7023 40.6198 26.4089 40.6198 24.7387 40.1258C20.5749 38.9025 17.1873 35.515 15.9641 31.3512C15.4701 29.6809 15.4701 26.3875 15.9641 24.7173C17.5637 19.2596 22.3862 15.5898 27.9615 15.5663C29.2319 15.5663 30.5963 15.7074 31.3726 15.9427Z" fill="#3EDD87"/>
<path d="M29.5384 26.434L25.9392 30.0097L24.316 28.4335C23.422 27.5631 22.5516 26.8574 22.3634 26.8574C21.7283 26.8574 20.999 27.5866 20.999 28.2218C20.999 29.1157 25.0687 33.209 25.9392 33.209C26.8096 33.209 35.1137 24.8813 35.1137 24.0109C35.1137 23.2346 34.7138 22.8582 33.8434 22.8582C33.2552 22.8582 32.573 23.4228 29.5384 26.434Z" fill="#3EDD87"/>
</svg>
