<svg width="21" height="21" viewBox="0 0 21 21" fill="none" xmlns="http://www.w3.org/2000/svg">
<path d="M10.3193 20.6386C16.0185 20.6386 20.6386 16.0185 20.6386 10.3193C20.6386 4.6201 16.0185 0 10.3193 0C4.6201 0 0 4.6201 0 10.3193C0 16.0185 4.6201 20.6386 10.3193 20.6386Z" fill="#C3A634"/>
<path fill-rule="evenodd" clip-rule="evenodd" d="M8.54446 9.42331H11.3268V10.8977H8.54446V14.0051H10.2994C10.994 14.0051 11.5622 13.9115 12.0046 13.7232C12.4471 13.5355 12.7941 13.2756 13.0462 12.9428C13.3042 12.5967 13.4797 12.1964 13.5596 11.7722C13.6528 11.2938 13.6982 10.8072 13.6951 10.3198C13.6982 9.83236 13.6528 9.34582 13.5596 8.86736C13.4798 8.44317 13.3042 8.0428 13.0462 7.69676C12.7941 7.36397 12.4464 7.10405 12.0046 6.91637C11.5622 6.72804 10.994 6.63452 10.2994 6.63452H8.54446V9.42395V9.42331ZM6.76051 10.8977H5.80469V9.42395H6.76051V5.16016H10.9843C11.7647 5.16016 12.44 5.2956 13.0108 5.56454C13.5816 5.83478 14.0472 6.20305 14.409 6.67064C14.7702 7.13759 15.0392 7.68451 15.2152 8.31076C15.3913 8.93701 15.479 9.60712 15.479 10.3198C15.4834 10.9984 15.3945 11.6745 15.2146 12.3288C15.0392 12.9544 14.7702 13.502 14.4084 13.969C14.0472 14.4365 13.5816 14.8048 13.0108 15.075C12.44 15.3446 11.7641 15.4794 10.9843 15.4794H6.76051V10.8977V10.8977Z" fill="white"/>
</svg>
