<svg width="21" height="21" viewBox="0 0 21 21" fill="none" xmlns="http://www.w3.org/2000/svg">
<g clip-path="url(#clip0_381_663)">
<path d="M10.3193 20.6386C16.0185 20.6386 20.6386 16.0185 20.6386 10.3193C20.6386 4.6201 16.0185 0 10.3193 0C4.6201 0 0 4.6201 0 10.3193C0 16.0185 4.6201 20.6386 10.3193 20.6386Z" fill="#E6007A"/>
<path d="M10.4948 4.27344C8.10396 4.27344 6.15039 6.21604 6.15039 8.61785C6.15039 9.10093 6.23036 9.57239 6.37999 10.0316C6.43296 10.1832 6.54333 10.308 6.68736 10.379C6.83138 10.45 6.99754 10.4617 7.15007 10.4115C7.30156 10.3584 7.42616 10.248 7.49708 10.1039C7.568 9.95994 7.57957 9.79385 7.5293 9.6414C7.4032 9.28337 7.34481 8.90501 7.3571 8.52563C7.40289 6.9055 8.71344 5.57173 10.3342 5.49176C10.7588 5.46945 11.1834 5.53374 11.5823 5.68072C11.9812 5.82769 12.3461 6.05428 12.6547 6.3467C12.9633 6.63913 13.2092 6.99127 13.3774 7.3817C13.5456 7.77214 13.6326 8.19272 13.6332 8.61785C13.6322 9.41738 13.3259 10.1863 12.7768 10.7675C12.2278 11.3487 11.4774 11.6982 10.6793 11.7446C10.6793 11.7446 10.0698 11.7788 9.77117 11.8252C9.62154 11.8478 9.50674 11.871 9.42612 11.8826C9.39129 11.8942 9.35711 11.8594 9.36807 11.8246L9.47191 11.3196L10.035 8.72169C10.0678 8.56636 10.0379 8.40435 9.95195 8.27089C9.86596 8.13744 9.73076 8.04332 9.57575 8.00902C9.42032 7.97622 9.25823 8.00613 9.12476 8.09226C8.99129 8.17838 8.89723 8.31374 8.86307 8.46887C8.86307 8.46887 7.50673 14.7907 7.49512 14.8597C7.46232 15.0152 7.49224 15.1772 7.57836 15.3107C7.66449 15.4442 7.79984 15.5382 7.95497 15.5724C8.1104 15.6052 8.27249 15.5753 8.40596 15.4892C8.53943 15.403 8.63349 15.2677 8.66765 15.1125C8.67861 15.0435 8.86307 14.2045 8.86307 14.2045C8.92835 13.8968 9.08705 13.6168 9.31747 13.4028C9.54789 13.1888 9.83879 13.0511 10.1504 13.0087C10.3758 12.984 10.6019 12.9649 10.8282 12.9513C11.9195 12.8663 12.9386 12.3729 13.6821 11.5697C14.4257 10.7665 14.8391 9.71242 14.8399 8.61785C14.8399 6.21604 12.8857 4.27344 10.4948 4.27344V4.27344ZM10.805 14.2735C10.7114 14.2533 10.6148 14.2519 10.5206 14.2693C10.4265 14.2867 10.3368 14.3227 10.2566 14.3751C10.1765 14.4274 10.1075 14.4952 10.0538 14.5744C9.99999 14.6536 9.96246 14.7427 9.94337 14.8365C9.86275 15.2274 10.1046 15.6182 10.5064 15.6988C10.6001 15.7191 10.6969 15.7205 10.7911 15.7031C10.8854 15.6857 10.9752 15.6497 11.0554 15.5972C11.1356 15.5448 11.2046 15.4769 11.2584 15.3976C11.3122 15.3183 11.3497 15.2291 11.3687 15.1351C11.4487 14.7333 11.2075 14.3534 10.805 14.2735V14.2735Z" fill="white"/>
</g>
<defs>
<clipPath id="clip0_381_663">
<rect width="20.6386" height="20.6386" fill="white"/>
</clipPath>
</defs>
</svg>
