<svg width="21" height="21" viewBox="0 0 21 21" fill="none" xmlns="http://www.w3.org/2000/svg">
<g clip-path="url(#clip0_381_673)">
<path d="M10.3193 20.6386C16.0185 20.6386 20.6386 16.0185 20.6386 10.3193C20.6386 4.6201 16.0185 0 10.3193 0C4.6201 0 0 4.6201 0 10.3193C0 16.0185 4.6201 20.6386 10.3193 20.6386Z" fill="#26A17B"/>
<path fill-rule="evenodd" clip-rule="evenodd" d="M11.5591 11.2113V11.21C11.4882 11.2152 11.1225 11.2371 10.3066 11.2371C9.65524 11.2371 9.19667 11.2178 9.03543 11.21V11.212C6.52785 11.1017 4.65619 10.665 4.65619 10.1426C4.65619 9.62086 6.52785 9.18422 9.03543 9.072V10.7773C9.19925 10.7889 9.66878 10.8166 10.3176 10.8166C11.0961 10.8166 11.4863 10.7844 11.5591 10.7779V9.07329C14.0616 9.18487 15.9287 9.6215 15.9287 10.1426C15.9287 10.665 14.0616 11.1004 11.5591 11.2113ZM11.5591 8.89593V7.36997H15.0509V5.04297H5.54365V7.36997H9.03543V8.89528C6.19763 9.02557 4.06348 9.58797 4.06348 10.2613C4.06348 10.9346 6.19763 11.4964 9.03543 11.6273V16.5174H11.5591V11.626C14.3924 11.4957 16.5214 10.934 16.5214 10.2613C16.5214 9.58861 14.3924 9.02686 11.5591 8.89593Z" fill="white"/>
</g>
<defs>
<clipPath id="clip0_381_673">
<rect width="20.6386" height="20.6386" fill="white"/>
</clipPath>
</defs>
</svg>
