<svg width="16" height="18" viewBox="0 0 16 18" fill="none" xmlns="http://www.w3.org/2000/svg">
<path fill-rule="evenodd" clip-rule="evenodd" d="M8.88326 0.0312118C6.86755 0.254409 5.2442 0.858286 3.69188 1.9624C2.84952 2.56154 1.81105 3.56664 1.04269 4.52643C0.611486 5.06511 0.128753 5.89741 0.0327928 6.26764C-0.0797086 6.70172 0.0989258 7.00668 0.542966 7.13853C0.74672 7.19906 1.72305 7.20299 3.30494 7.14975C5.60011 7.07246 6.40042 7.23965 6.40042 7.79645C6.40042 8.16875 6.06179 8.66912 5.11934 9.68937C4.80154 10.0334 4.69004 10.1863 4.87687 10.0218C4.96483 9.94439 4.9648 9.94459 4.87229 10.0469C4.82102 10.1036 4.76298 10.1471 4.74331 10.1435C4.72367 10.1399 4.71158 10.1562 4.71645 10.1797C4.72132 10.2032 4.71206 10.2142 4.69591 10.2042C4.65702 10.1802 4.16529 10.7231 4.18986 10.7629C4.20034 10.7798 4.12057 10.8926 4.01258 11.0135C3.90463 11.1344 3.75201 11.3182 3.67346 11.4219C3.59492 11.5256 3.53065 11.5966 3.53065 11.5796C3.53065 11.5626 3.65589 11.3979 3.80899 11.2136C4.15742 10.7942 4.20128 10.7326 4.00358 10.9405C3.82243 11.1309 3.30488 11.8033 3.3051 11.8479C3.3052 11.8646 3.34267 11.8347 3.38839 11.7815L3.47149 11.6847L3.40084 11.7914C3.36195 11.85 3.32219 11.8901 3.31245 11.8803C3.29011 11.858 3.20821 11.9242 3.20821 11.9646C3.20821 11.9813 3.22636 11.9844 3.24851 11.9717C3.27192 11.9582 3.27757 11.9608 3.26196 11.9778C3.24716 11.994 3.21953 12.0072 3.20047 12.0072C3.16694 12.0072 2.82292 12.5289 2.82182 12.5814C2.82153 12.5958 2.83804 12.5972 2.85852 12.5845C2.88176 12.5701 2.88695 12.5757 2.87238 12.5993C2.85955 12.62 2.83707 12.6296 2.82243 12.6205C2.78716 12.5987 2.75069 12.6967 2.77777 12.7406C2.78945 12.7594 2.7839 12.7656 2.76543 12.7542C2.72286 12.7278 2.53078 13.1138 2.40316 13.4821C2.34989 13.6359 2.28169 13.9099 2.25158 14.0912C2.11247 14.929 2.41028 15.8149 3.02844 16.4021C3.54368 16.8915 4.22978 17.1686 5.03003 17.2106C6.09881 17.2665 7.05366 17.0006 8.38733 16.2756C10.2618 15.2565 12.372 13.2826 13.6792 11.3254C14.9385 9.44002 15.6869 7.23014 15.6869 5.39704C15.6869 3.83037 15.2135 2.54919 14.2725 1.56876C13.2122 0.464063 11.85 -0.0127053 9.79072 0.000256998C9.42461 0.00254636 9.01626 0.016476 8.88326 0.0312118ZM9.04448 0.0480758C8.98241 0.0555565 8.74299 0.0844476 8.51244 0.112275C6.77672 0.321736 5.02255 1.01883 3.61126 2.05998C3.08803 2.44598 2.71683 2.77184 2.14414 3.34799C1.1391 4.35902 0.352304 5.4426 0.108245 6.15178C0.0752263 6.24765 0.0488827 6.34922 0.0496888 6.3775C0.0504627 6.40574 0.0843515 6.32632 0.124947 6.20099C0.4393 5.23088 1.81979 3.54681 3.2588 2.37797C3.54903 2.14223 4.06366 1.77307 4.11741 1.76204C4.14053 1.75727 4.16668 1.74411 4.17555 1.73279C4.19702 1.70535 4.73018 1.38339 4.93329 1.27524C5.41445 1.01899 6.14253 0.719344 6.72287 0.538742C7.80596 0.201625 8.96106 0.0434647 10.063 0.0813521C10.3452 0.09109 10.5979 0.0985387 10.6245 0.0979583C10.9602 0.0906388 11.9269 0.277786 12.3617 0.434302C13.0768 0.69171 13.6264 1.02992 14.1106 1.51043C14.4049 1.80247 14.539 1.96363 14.8903 2.44749C14.987 2.58066 14.9101 2.44304 14.7727 2.23706C13.9614 1.02061 12.7656 0.323864 11.092 0.0926057C10.8332 0.0568465 9.2561 0.0225381 9.04448 0.0480758ZM8.4802 1.38861C7.90079 1.45529 7.5107 1.5241 7.1098 1.63035C6.87039 1.69378 6.61646 1.75859 6.54552 1.77435C6.30736 1.82724 5.5156 2.09667 5.31971 2.1915C5.21298 2.24316 5.10957 2.28543 5.08987 2.28543C5.07014 2.28543 4.99785 2.30994 4.92917 2.33989C4.86048 2.36985 4.79706 2.39548 4.78819 2.39684C4.77933 2.39816 4.75756 2.40793 4.73983 2.41851C4.72209 2.42908 4.66708 2.44743 4.61759 2.45926C4.56361 2.47216 4.53636 2.49499 4.54952 2.51627C4.56232 2.53694 4.55361 2.54581 4.52869 2.53749C4.50515 2.52965 4.45959 2.54955 4.42747 2.5817C4.39532 2.61381 4.33429 2.64012 4.29185 2.64012C4.24942 2.64012 4.20634 2.66189 4.19612 2.68849C4.18593 2.71509 4.15449 2.73686 4.12628 2.73686C4.09809 2.73686 4.08294 2.74972 4.09264 2.76542C4.10235 2.78113 4.0742 2.80086 4.03006 2.80931C3.98379 2.81814 3.94941 2.80947 3.94887 2.7888C3.94832 2.7691 3.93413 2.77648 3.91736 2.80521C3.87828 2.87209 3.70668 2.98772 3.73866 2.92562C3.75104 2.90159 3.7377 2.91098 3.709 2.94645C3.68033 2.98192 3.65144 3.00368 3.6448 2.99481C3.63819 2.98595 3.62068 2.99191 3.60588 3.00803C3.59027 3.02509 3.59592 3.02767 3.61933 3.01419C3.64151 3.00146 3.65963 3.00284 3.65963 3.01729C3.65963 3.05166 3.46178 3.14049 3.40974 3.1295C3.38758 3.12479 3.36943 3.14423 3.36943 3.17264C3.36943 3.20108 3.35711 3.21672 3.34205 3.2074C3.327 3.19808 3.28343 3.22639 3.24526 3.27028C3.18989 3.33396 3.15313 3.34728 3.06343 3.33615C3.00159 3.32848 2.94213 3.33657 2.93126 3.35411C2.9006 3.40377 2.94677 3.43037 2.98949 3.38765C3.01045 3.36666 3.04286 3.34983 3.0615 3.35021C3.0801 3.3506 3.0595 3.37849 3.01564 3.41219C2.97179 3.44588 2.92465 3.46645 2.91085 3.45794C2.89705 3.4494 2.88576 3.4692 2.88576 3.50186C2.88576 3.53456 2.84584 3.58547 2.79709 3.61504C2.74834 3.64457 2.66627 3.70574 2.61471 3.75095C2.56319 3.79619 2.50853 3.83317 2.49325 3.83317C2.47796 3.83317 2.41728 3.88035 2.35843 3.93797C2.29959 3.99559 2.1511 4.1217 2.02851 4.21817C1.57699 4.57344 0.467418 5.73599 0.467418 5.85378C0.467418 5.86629 0.703222 5.64503 0.991392 5.36205C1.77078 4.59682 2.26334 4.1977 3.24355 3.5373C4.15323 2.92439 5.22124 2.38629 6.20695 2.04421C7.43586 1.61771 8.64026 1.43227 9.67325 1.51047C10.6669 1.58569 11.341 1.78277 11.9206 2.16748C12.1285 2.30552 12.6286 2.79087 12.6976 2.92155C12.7235 2.97073 12.7909 3.09393 12.8473 3.19537C12.9651 3.40716 13.1305 3.84459 13.1737 4.05821C13.1899 4.13837 13.2181 4.39907 13.2363 4.63751C13.2875 5.30727 13.2121 5.91991 12.977 6.74479C12.7476 7.5493 12.5517 8.0014 11.8981 9.23414C11.7802 9.45653 11.4812 9.90425 11.4126 9.96123C11.387 9.98244 11.3661 10.0109 11.3661 10.0244C11.3661 10.0464 10.9125 10.6766 10.81 10.7971C10.1722 11.5469 9.36886 12.3599 8.86713 12.7633C8.3549 13.1751 7.58625 13.7489 7.33155 13.9096C7.08233 14.0668 6.85336 14.1914 6.36818 14.4337C6.01013 14.6126 5.91995 14.6727 5.97902 14.6932C6.00575 14.7024 6.713 14.3605 6.94858 14.2245C7.01065 14.1887 7.1485 14.1092 7.2549 14.048C7.42235 13.9517 7.69723 13.7742 7.98041 13.5797C8.5433 13.1932 9.37831 12.4959 9.88284 11.9912C10.3786 11.4953 10.6214 11.2211 11.0251 10.7013C11.1973 10.4796 11.3586 10.273 11.3837 10.2422C11.6928 9.86201 12.3045 8.80484 12.5969 8.1455C12.8898 7.48503 13.0475 7.01697 13.2023 6.34825C13.3286 5.8028 13.3704 5.44679 13.3692 4.92675C13.3678 4.31233 13.2964 3.90914 13.1197 3.51782C13.0774 3.42421 13.0428 3.33567 13.0428 3.32113C13.0428 3.30655 12.963 3.18341 12.8655 3.04747C12.7679 2.91153 12.6881 2.79338 12.6881 2.78493C12.6881 2.71951 12.2468 2.28914 11.9826 2.09699C11.7198 1.90585 11.6032 1.84445 11.2207 1.69552C10.8239 1.54103 10.4542 1.45307 9.96345 1.39629C9.67941 1.36343 8.74119 1.35859 8.4802 1.38861ZM14.9452 2.55874C14.9452 2.56718 14.9742 2.62158 15.0096 2.67965C15.0853 2.80386 15.0959 2.77565 15.025 2.63851C14.9808 2.55296 14.9452 2.51743 14.9452 2.55874ZM9.31856 2.75611C8.00191 2.88357 6.99569 3.12824 5.85226 3.59898C5.15327 3.88673 4.10354 4.46891 3.47464 4.91762C3.28692 5.0516 3.17296 5.18042 3.23126 5.19286C3.24519 5.19583 3.46697 5.19944 3.72412 5.20092C3.98127 5.20237 4.12637 5.19628 4.04657 5.18738C3.9349 5.17493 3.9981 5.16197 4.32065 5.13118C4.5512 5.10919 5.03728 5.06163 5.40084 5.02551C6.72525 4.89392 8.05118 4.90659 8.78543 5.05789C9.09804 5.12231 9.51741 5.30327 9.50538 5.36856C9.50174 5.38839 9.53801 5.43918 9.58599 5.48142L9.67325 5.55826L9.59509 5.46959C9.55207 5.42083 9.53385 5.38091 9.55455 5.38091C9.60679 5.38091 9.77479 5.61972 9.82093 5.75953C9.96996 6.21108 9.53211 7.24707 8.65909 8.50864C8.24065 9.11326 7.89396 9.56159 6.85114 10.8464C6.16397 11.693 5.79252 12.2665 5.74612 12.5524C5.72022 12.712 5.77642 12.8912 5.86268 12.924C6.14269 13.0304 6.77152 12.7529 7.73857 12.096C8.637 11.4857 9.66351 10.5852 10.3077 9.84215C10.451 9.67692 10.5831 9.55095 10.6013 9.5622C10.6204 9.574 10.6247 9.56687 10.6113 9.54533C10.598 9.5237 10.668 9.40968 10.7778 9.27432C11.4966 8.38788 12.1222 7.20041 12.3447 6.29988C12.5812 5.34264 12.561 4.74292 12.2721 4.1395C11.9226 3.40961 11.3727 3.01216 10.4471 2.82043C10.2142 2.77216 9.54601 2.73408 9.31856 2.75611ZM15.1246 2.90753C15.1368 2.93932 15.1548 2.95722 15.1647 2.94728C15.1747 2.93739 15.1648 2.91136 15.1427 2.88947C15.1108 2.85787 15.1072 2.86158 15.1246 2.90753ZM15.1732 3.01094C15.1732 3.02867 15.194 3.07945 15.2193 3.12379C15.2447 3.16813 15.2654 3.18989 15.2654 3.17216C15.2654 3.15442 15.2447 3.10364 15.2193 3.0593C15.194 3.01497 15.1732 2.9932 15.1732 3.01094ZM15.3009 3.33338C15.3009 3.35112 15.315 3.38739 15.3322 3.41399C15.3494 3.44059 15.3634 3.44785 15.3634 3.43011C15.3634 3.41238 15.3494 3.37611 15.3322 3.3495C15.315 3.3229 15.3009 3.31565 15.3009 3.33338ZM6.79542 4.98395C6.82644 4.99207 6.87726 4.99207 6.90827 4.98395C6.93929 4.97586 6.91392 4.96921 6.85185 4.96921C6.78977 4.96921 6.7644 4.97586 6.79542 4.98395ZM7.2146 4.98566C7.33429 4.99185 7.53021 4.99185 7.6499 4.98566C7.76959 4.97944 7.67166 4.97437 7.43225 4.97437C7.19283 4.97437 7.09491 4.97944 7.2146 4.98566ZM6.06991 5.01532C6.0921 5.02429 6.12837 5.02429 6.15053 5.01532C6.17271 5.00639 6.15456 4.99907 6.11022 4.99907C6.06588 4.99907 6.04776 5.00639 6.06991 5.01532ZM8.0852 5.01619C8.11622 5.02432 8.16704 5.02432 8.19806 5.01619C8.22908 5.0081 8.2037 5.00146 8.14163 5.00146C8.07956 5.00146 8.05418 5.0081 8.0852 5.01619ZM8.42377 5.04757C8.44596 5.05653 8.48223 5.05653 8.50438 5.04757C8.52657 5.03864 8.50841 5.03132 8.46408 5.03132C8.41974 5.03132 8.40162 5.03864 8.42377 5.04757ZM8.58702 5.08049C8.61027 5.08981 8.6381 5.08865 8.64881 5.07794C8.65951 5.06724 8.64048 5.05963 8.6065 5.06101C8.56893 5.06256 8.56129 5.0702 8.58702 5.08049ZM4.69952 5.14517C4.73054 5.1533 4.78136 5.1533 4.81238 5.14517C4.84339 5.13708 4.81802 5.13044 4.75595 5.13044C4.69388 5.13044 4.6685 5.13708 4.69952 5.14517ZM4.40932 5.17742C4.44034 5.18554 4.49116 5.18554 4.52217 5.17742C4.55319 5.16932 4.52782 5.16268 4.46575 5.16268C4.40368 5.16268 4.3783 5.16932 4.40932 5.17742ZM4.77207 5.98192C2.94316 6.05602 1.89998 6.12644 1.63061 6.19399C1.49992 6.22679 1.49431 6.23214 1.56386 6.25787C1.60565 6.27331 1.69887 6.2778 1.77107 6.26783C2.51179 6.16542 5.41435 6.03632 6.2392 6.06911C7.19599 6.10709 7.61627 6.27631 7.72113 6.66573C7.77495 6.86568 7.67537 7.25245 7.48323 7.58967C7.2087 8.07147 7.10822 8.23878 6.92175 8.52476C6.71084 8.84817 6.40958 9.24675 5.93791 9.82622C5.7988 9.99714 5.64412 10.1878 5.59421 10.2498C5.54433 10.3119 5.39765 10.4933 5.26835 10.6529C4.85275 11.1658 4.7387 11.3173 4.52795 11.6364C4.29388 11.9907 3.97176 12.6054 3.88341 12.8664C3.80809 13.0888 3.80444 13.1067 3.77597 13.3937C3.75804 13.5742 3.75995 13.5706 3.80428 13.3394C3.84604 13.1217 4.10644 12.4584 4.16871 12.4112C4.18135 12.4017 4.24139 12.2996 4.30214 12.1844C4.40216 11.9948 4.77297 11.4621 5.06527 11.0882C5.12766 11.0084 5.22504 10.8831 5.2817 10.8098C5.33835 10.7365 5.63942 10.3592 5.95071 9.97145C6.262 9.58367 6.58244 9.17933 6.66283 9.07292C7.08842 8.50944 7.56042 7.70033 7.72232 7.25674C7.93781 6.66621 7.78217 6.2817 7.2549 6.10203C6.9548 5.99975 5.75937 5.94194 4.77207 5.98192ZM4.62284 10.3063C4.58276 10.3574 4.58389 10.3585 4.63503 10.3185C4.68875 10.2763 4.70581 10.2498 4.67927 10.2498C4.6726 10.2498 4.64719 10.2753 4.62284 10.3063ZM4.44688 10.4836C4.29904 10.645 4.22833 10.7335 4.24726 10.7335C4.2567 10.7335 4.33264 10.6537 4.41596 10.5562C4.58086 10.3632 4.60143 10.3149 4.44688 10.4836ZM3.15268 12.0958C3.10435 12.1583 3.07394 12.2168 3.08974 12.2168C3.09761 12.2168 3.12782 12.1805 3.15687 12.1362C3.21124 12.0532 3.20821 12.0241 3.15268 12.0958ZM3.02954 12.2834C3.01784 12.3023 3.01519 12.3247 3.02364 12.3332C3.03209 12.3416 3.0476 12.3261 3.05811 12.2988C3.07991 12.242 3.06133 12.232 3.02954 12.2834Z" fill="white"/>
</svg>
