<svg width="15" height="15" viewBox="0 0 15 15" fill="none" xmlns="http://www.w3.org/2000/svg">
<g clip-path="url(#clip0_1_1687)">
<path d="M0.9375 2.34365C0.678619 2.34365 0.46875 2.55352 0.46875 2.8124C0.46875 3.07128 0.678619 3.28115 0.9375 3.28115V2.34365ZM14.0625 3.28115C14.3214 3.28115 14.5312 3.07128 14.5312 2.8124C14.5312 2.55352 14.3214 2.34365 14.0625 2.34365V3.28115ZM0.9375 3.28115H14.0625V2.34365H0.9375V3.28115Z" fill="#FF4C4C"/>
<path d="M4.6875 2.81183C4.6875 3.07071 4.89737 3.28058 5.15625 3.28058C5.41513 3.28058 5.625 3.07071 5.625 2.81183H4.6875ZM9.375 2.81183C9.375 3.07071 9.58488 3.28058 9.84375 3.28058C10.1026 3.28058 10.3125 3.07071 10.3125 2.81183H9.375ZM8.90625 0.468082H6.09375V1.40558H8.90625V0.468082ZM6.09375 0.468082C5.72079 0.468082 5.36311 0.616241 5.09938 0.879964L5.76229 1.54288C5.8502 1.45497 5.96943 1.40558 6.09375 1.40558V0.468082ZM5.09938 0.879964C4.83566 1.14369 4.6875 1.50137 4.6875 1.87433H5.625C5.625 1.75001 5.67439 1.63078 5.76229 1.54288L5.09938 0.879964ZM4.6875 1.87433V2.81183H5.625V1.87433H4.6875ZM10.3125 2.81183V1.87433H9.375V2.81183H10.3125ZM10.3125 1.87433C10.3125 1.50137 10.1643 1.14369 9.90062 0.879964L9.23769 1.54288C9.32562 1.63078 9.375 1.75001 9.375 1.87433H10.3125ZM9.90062 0.879964C9.63687 0.616241 9.27919 0.468082 8.90625 0.468082V1.40558C9.03056 1.40558 9.14981 1.45497 9.23769 1.54288L9.90062 0.879964Z" fill="#FF4C4C"/>
<path d="M5.625 10.7807C5.625 11.0396 5.83487 11.2494 6.09375 11.2494C6.35263 11.2494 6.5625 11.0396 6.5625 10.7807H5.625ZM6.5625 6.09318C6.5625 5.8343 6.35263 5.62443 6.09375 5.62443C5.83487 5.62443 5.625 5.8343 5.625 6.09318H6.5625ZM6.5625 10.7807V6.09318H5.625V10.7807H6.5625Z" fill="#FF4C4C"/>
<path d="M8.43945 10.7807C8.43945 11.0396 8.64933 11.2494 8.9082 11.2494C9.16708 11.2494 9.37695 11.0396 9.37695 10.7807H8.43945ZM9.37695 6.09318C9.37695 5.8343 9.16708 5.62443 8.9082 5.62443C8.64933 5.62443 8.43945 5.8343 8.43945 6.09318H9.37695ZM9.37695 10.7807V6.09318H8.43945V10.7807H9.37695Z" fill="#FF4C4C"/>
<path d="M2.80896 2.77348C2.78744 2.51549 2.56087 2.32379 2.30288 2.34529C2.04489 2.36681 1.85319 2.59338 1.87469 2.85137L2.80896 2.77348ZM13.1215 2.85134C13.143 2.59336 12.9513 2.36679 12.6933 2.34529C12.4353 2.3238 12.2087 2.51552 12.1872 2.77351L13.1215 2.85134ZM11.3216 13.1635C11.3118 13.2807 11.2584 13.3902 11.1718 13.4698L11.8068 14.1596C12.0664 13.9207 12.2267 13.5928 12.2558 13.2412L11.3216 13.1635ZM11.1718 13.4698C11.0853 13.5495 10.972 13.5937 10.8544 13.5937L10.8543 14.5312C11.2071 14.5312 11.5471 14.3986 11.8068 14.1596L11.1718 13.4698ZM10.8544 13.5937H4.14245V14.5312H10.8543L10.8544 13.5937ZM4.14245 13.5937C4.02483 13.5937 3.91146 13.5495 3.82492 13.4698L3.19003 14.1596C3.44966 14.3986 3.78959 14.5312 4.14245 14.5312V13.5937ZM3.82492 13.4698C3.73838 13.3902 3.68494 13.2809 3.67522 13.1637L2.74093 13.2412C2.7701 13.5928 2.9304 13.9207 3.19003 14.1596L3.82492 13.4698ZM3.67522 13.1637L2.80896 2.77348L1.87469 2.85137L2.74093 13.2412L3.67522 13.1637ZM12.1872 2.77351L11.3216 13.1635L12.2558 13.2412L13.1215 2.85134L12.1872 2.77351Z" fill="#FF4C4C"/>
</g>
<defs>
<clipPath id="clip0_1_1687">
<rect width="15" height="15" fill="white"/>
</clipPath>
</defs>
</svg>
