<svg width="38" height="30" viewBox="0 0 38 30" fill="none" xmlns="http://www.w3.org/2000/svg">
<path d="M32.0225 2.44821C29.5743 1.31368 26.9669 0.4777 24.2201 0C23.8817 0.597125 23.4837 1.4132 23.2249 2.07003C20.3189 1.63214 17.4328 1.63214 14.5865 2.07003C14.3078 1.4132 13.9098 0.597125 13.5714 0C10.8246 0.4777 8.21716 1.31368 5.76895 2.44821C0.83271 9.89238 -0.500871 17.1575 0.155967 24.3031C3.44016 26.7513 6.60492 28.2242 9.72988 29.1995C10.5061 28.1446 11.1829 27.01 11.78 25.8357C10.6455 25.4177 9.57065 24.8803 8.55553 24.2633C8.83419 24.0642 9.09294 23.8453 9.3517 23.6462C15.5817 26.5522 22.3292 26.5522 28.4796 23.6462C28.7384 23.8652 28.9971 24.0642 29.2758 24.2633C28.2607 24.8803 27.1659 25.3978 26.0513 25.8357C26.6484 27.01 27.3252 28.1446 28.1014 29.1995C31.2264 28.2242 34.411 26.7513 37.6753 24.3031C38.4516 16.003 36.3418 8.81755 32.0624 2.44821H32.0225ZM12.616 19.9241C10.745 19.9241 9.21237 18.1925 9.21237 16.0627C9.21237 13.933 10.7052 12.2013 12.616 12.2013C14.5268 12.2013 16.0395 13.933 16.0196 16.0627C16.0196 18.1726 14.5268 19.9241 12.616 19.9241ZM25.1755 19.9241C23.3045 19.9241 21.7719 18.1925 21.7719 16.0627C21.7719 13.933 23.2647 12.2013 25.1755 12.2013C27.0863 12.2013 28.599 13.933 28.5791 16.0627C28.5791 18.1726 27.0863 19.9241 25.1755 19.9241Z" fill="white"/>
</svg>
