<svg width="20" height="35" viewBox="0 0 20 35" fill="none" xmlns="http://www.w3.org/2000/svg">
<path d="M9.21473 0.190704C8.51222 0.477291 8.21418 1.24886 8.21418 2.85815L8.19289 4.33517L6.70271 4.42336C4.02038 4.62176 1.82768 6.18696 0.678107 8.74419C-0.0882732 10.4417 -0.13085 13.1973 0.592954 14.8286C1.76381 17.5181 3.99909 19.1495 6.74528 19.3258L8.29933 19.436V23.2498V27.0857H4.68032C1.10387 27.0857 1.04001 27.0857 0.529089 27.6368C-0.13085 28.2982 -0.173427 29.4665 0.401359 30.194C0.805837 30.7011 0.912279 30.7231 4.55259 30.7892L8.29933 30.8554V32.4867C8.29933 33.9858 8.34191 34.1401 8.85283 34.559C9.59792 35.1542 10.4707 35.1542 11.1945 34.5149C11.6842 34.074 11.7693 33.7874 11.8545 32.4426L11.9609 30.8995L13.3872 30.7452C17.283 30.3704 19.8376 27.4384 19.8802 23.338C19.8802 21.3319 19.5822 20.1856 18.6668 18.7747C17.4959 16.967 15.7503 15.997 13.1531 15.6884L11.9184 15.5561V11.8525V8.12692H15.2393C18.5603 8.12692 19.1777 8.0167 19.7312 7.26717C20.1782 6.67195 20.0505 5.52561 19.4757 4.93039C18.9648 4.37926 18.9009 4.37926 15.4309 4.37926H11.9184V3.16679C11.9184 0.697739 10.8326 -0.492691 9.21473 0.190704ZM7.95872 8.03874C8.25676 8.14897 8.29933 8.7001 8.29933 11.8966V15.6222H7.38393C6.80915 15.6222 6.08535 15.4238 5.51056 15.1152C2.5089 13.4839 3.27528 8.96464 6.68142 8.10488C7.59682 7.88443 7.57553 7.88443 7.95872 8.03874ZM13.8982 19.6785C16.3676 20.6044 17.1979 23.7789 15.4735 25.7409C14.8561 26.4243 13.4724 27.0857 12.6209 27.0857H11.9184V23.2278V19.3699H12.5144C12.8337 19.392 13.4511 19.5242 13.8982 19.6785Z" fill="white"/>
</svg>
