<svg width="16" height="9" viewBox="0 0 16 9" fill="none" xmlns="http://www.w3.org/2000/svg">
<path d="M15.9983 1.37802C16.0183 1.6541 15.8588 1.8683 15.6494 2.06346C14.214 3.42958 12.7836 4.80046 11.3531 6.16658C10.4859 6.99481 9.61369 7.82781 8.74646 8.65605C8.27297 9.10825 7.75961 9.11777 7.28612 8.66557C4.9735 6.46169 2.66089 4.25306 0.348267 2.03966C-0.115254 1.59698 -0.115255 1.12574 0.343282 0.683059C0.477853 0.554539 0.612423 0.421259 0.746994 0.297499C1.17563 -0.0975806 1.68899 -0.102341 2.11263 0.302259C3.22409 1.35898 4.33554 2.42046 5.44201 3.48194C6.22451 4.22926 7.00701 4.96706 7.77955 5.7239C7.95399 5.89526 8.0437 5.90478 8.22812 5.72866C10.0922 3.93414 11.9712 2.14914 13.8452 0.35938C14.0545 0.1547 14.2888 0.00713991 14.6028 0.0118999C15.146 0.0261799 15.9933 0.840139 15.9983 1.37802Z" fill="white"/>
</svg>
