<svg width="17" height="17" viewBox="0 0 17 17" fill="none" xmlns="http://www.w3.org/2000/svg">
<g clip-path="url(#clip0_269_499)">
<path d="M7.76362 6.33391C7.87514 5.99934 8.34759 5.99934 8.45911 6.33391L9.11304 8.29772C9.25698 8.72941 9.49949 9.12165 9.82135 9.44334C10.1432 9.76503 10.5356 10.0073 10.9674 10.151L12.9302 10.805C13.2647 10.9165 13.2647 11.3889 12.9302 11.5004L10.9663 12.1544C10.5346 12.2983 10.1424 12.5408 9.82073 12.8627C9.49904 13.1846 9.25674 13.5769 9.11304 14.0087L8.45911 15.9715C8.43507 16.0448 8.3885 16.1085 8.32606 16.1538C8.26361 16.199 8.18847 16.2234 8.11137 16.2234C8.03426 16.2234 7.95912 16.199 7.89668 16.1538C7.83423 16.1085 7.78766 16.0448 7.76362 15.9715L7.10969 14.0077C6.96585 13.5761 6.7235 13.1839 6.40182 12.8622C6.08014 12.5406 5.68797 12.2982 5.25639 12.1544L3.29257 11.5004C3.21931 11.4764 3.15552 11.4298 3.11029 11.3674C3.06506 11.3049 3.0407 11.2298 3.0407 11.1527C3.0407 11.0756 3.06506 11.0005 3.11029 10.938C3.15552 10.8756 3.21931 10.829 3.29257 10.805L5.25639 10.151C5.68797 10.0072 6.08014 9.76483 6.40182 9.44315C6.7235 9.12147 6.96585 8.72931 7.10969 8.29772L7.76362 6.33391ZM3.84714 1.16433C3.86168 1.12042 3.88969 1.08221 3.92718 1.05513C3.96467 1.02805 4.00975 1.01348 4.056 1.01348C4.10225 1.01348 4.14732 1.02805 4.18481 1.05513C4.2223 1.08221 4.25031 1.12042 4.26485 1.16433L4.6572 2.34241C4.8326 2.86758 5.24422 3.2792 5.76939 3.4546L6.94747 3.84695C6.99138 3.86149 7.02959 3.8895 7.05667 3.92699C7.08375 3.96448 7.09832 4.00955 7.09832 4.0558C7.09832 4.10205 7.08375 4.14713 7.05667 4.18462C7.02959 4.22211 6.99138 4.25012 6.94747 4.26466L5.76939 4.65701C5.51038 4.74331 5.27503 4.88874 5.08198 5.08179C4.88893 5.27483 4.7435 5.51019 4.6572 5.7692L4.26485 6.94728C4.25031 6.99119 4.2223 7.02939 4.18481 7.05647C4.14732 7.08355 4.10225 7.09813 4.056 7.09813C4.00975 7.09813 3.96467 7.08355 3.92718 7.05647C3.88969 7.02939 3.86168 6.99119 3.84714 6.94728L3.45479 5.7692C3.36849 5.51019 3.22306 5.27483 3.03001 5.08179C2.83697 4.88874 2.60161 4.74331 2.3426 4.65701L1.16452 4.26466C1.12061 4.25012 1.08241 4.22211 1.05533 4.18462C1.02825 4.14713 1.01367 4.10205 1.01367 4.0558C1.01367 4.00955 1.02825 3.96448 1.05533 3.92699C1.08241 3.8895 1.12061 3.86149 1.16452 3.84695L2.3426 3.4546C2.60161 3.3683 2.83697 3.22287 3.03001 3.02982C3.22306 2.83678 3.36849 2.60142 3.45479 2.34241L3.84714 1.16433ZM11.014 0.100805C11.024 0.0719376 11.0428 0.0469054 11.0677 0.0291892C11.0925 0.011473 11.1223 0.00195312 11.1529 0.00195312C11.1834 0.00195313 11.2132 0.011473 11.2381 0.0291892C11.263 0.0469054 11.2818 0.0719376 11.2918 0.100805L11.5534 0.885519C11.67 1.23631 11.9447 1.51106 12.2955 1.62765L13.0802 1.88922C13.1091 1.89923 13.1341 1.91799 13.1518 1.94288C13.1695 1.96777 13.1791 1.99757 13.1791 2.02812C13.1791 2.05867 13.1695 2.08847 13.1518 2.11336C13.1341 2.13825 13.1091 2.15701 13.0802 2.16702L12.2955 2.42859C12.1226 2.4861 11.9655 2.58311 11.8367 2.71194C11.7079 2.84076 11.6109 2.99785 11.5534 3.17072L11.2918 3.95543C11.2818 3.9843 11.263 4.00933 11.2381 4.02705C11.2132 4.04477 11.1834 4.05429 11.1529 4.05429C11.1223 4.05429 11.0925 4.04477 11.0677 4.02705C11.0428 4.00933 11.024 3.9843 11.014 3.95543L10.7524 3.17072C10.6949 2.99785 10.5979 2.84076 10.4691 2.71194C10.3402 2.58311 10.1832 2.4861 10.0103 2.42859L9.22659 2.16702C9.19772 2.15701 9.17269 2.13825 9.15498 2.11336C9.13726 2.08847 9.12774 2.05867 9.12774 2.02812C9.12774 1.99757 9.13726 1.96777 9.15498 1.94288C9.17269 1.91799 9.19772 1.89923 9.22659 1.88922L10.0113 1.62765C10.3621 1.51106 10.6368 1.23631 10.7534 0.885519L11.014 0.101819V0.100805Z" fill="white"/>
</g>
<defs>
<clipPath id="clip0_269_499">
<rect width="16.2215" height="16.2215" fill="white"/>
</clipPath>
</defs>
</svg>
