<svg width="23" height="23" viewBox="0 0 23 23" fill="none" xmlns="http://www.w3.org/2000/svg">
<path d="M8.37198 2.59827C5.62476 5.3242 5.30531 5.8992 6.09328 6.68716C6.75346 7.36864 7.47754 7.11309 8.88309 5.70753L10.2248 4.38716V9.86031C10.2248 15.0566 10.2461 15.3548 10.6507 15.7594C11.1831 16.2918 11.822 16.2918 12.3544 15.7594C12.759 15.3548 12.7803 15.0566 12.7803 9.86031V4.38716L14.122 5.70753C15.5275 7.11309 16.2516 7.36864 16.9118 6.68716C17.6998 5.8992 17.3803 5.3242 14.6331 2.59827C12.7803 0.766792 11.8433 0.000125885 11.5025 0.000125885C11.1618 0.000125885 10.2248 0.766792 8.37198 2.59827Z" fill="white"/>
<path d="M0.425926 14.0541C0.0425926 14.4374 0 14.7569 0 17.3124C0 19.8254 0.0638889 20.2513 0.468519 21.0819C0.830556 21.7846 1.21389 22.168 1.91667 22.5087C2.8537 22.9985 2.96019 22.9985 11.5 22.9985C20.0398 22.9985 20.1463 22.9985 21.0833 22.5087C21.7861 22.168 22.1694 21.7846 22.5315 21.0819C22.9361 20.2513 23 19.8254 23 17.3124C23 14.7569 22.9574 14.4374 22.5741 14.0541C22.0417 13.5217 21.4028 13.5217 20.8704 14.0541C20.487 14.4374 20.4444 14.7569 20.4444 17.2059C20.4444 19.0374 20.3593 20.0171 20.1889 20.1874C19.8269 20.5495 3.17315 20.5495 2.81111 20.1874C2.64074 20.0171 2.55556 19.0374 2.55556 17.2059C2.55556 14.7569 2.51296 14.4374 2.12963 14.0541C1.89537 13.8198 1.51204 13.6282 1.27778 13.6282C1.04352 13.6282 0.660185 13.8198 0.425926 14.0541Z" fill="white"/>
</svg>
