<svg xmlns="http://www.w3.org/2000/svg" width="46" height="46" viewBox="0 0 48 48">
  <path fill="#EA4335" d="M24 9.5c3.94 0 7.06 1.63 9.21 3L38 8.83C34.56 6.25 29.83 4 24 4 14.61 4 6.69 9.84 3.34 18.01l7.94 6.17C12.78 16.89 17.88 9.5 24 9.5z"></path>
  <path fill="#34A853" d="M46.15 24.5c0-1.67-.15-3.29-.42-4.85H24v9.17h12.47a10.7 10.7 0 01-4.64 7.04l7.14 5.54c4.18-3.86 6.58-9.54 6.58-16.9z"></path>
  <path fill="#4A90E2" d="M24 47.5c6.2 0 11.38-2.06 15.17-5.6l-7.14-5.54C29.97 38.53 27.16 39.5 24 39.5c-6.11 0-11.2-7.39-12.72-14.68l-7.94 6.17C6.7 38.16 14.6 47.5 24 47.5z"></path>
  <path fill="#FBBC05" d="M11.28 24.82c-.32-1.2-.5-2.46-.5-3.82s.18-2.62.5-3.82l-7.94-6.17C1.69 15.84 0 19.72 0 24s1.69 8.16 3.34 11.99l7.94-6.17z"></path>
</svg>
