<svg width="21" height="21" viewBox="0 0 21 21" fill="none" xmlns="http://www.w3.org/2000/svg">
<g clip-path="url(#clip0_651_206)">
<path d="M20.7491 10.6959C20.7491 9.83556 20.6793 9.20772 20.5282 8.55664H10.7037V12.4399H16.4705C16.3543 13.4049 15.7264 14.8582 14.3312 15.8348L14.3116 15.9648L17.418 18.3713L17.6332 18.3927C19.6097 16.5673 20.7491 13.8816 20.7491 10.6959Z" fill="#4285F4"/>
<path d="M10.704 20.9276C13.5292 20.9276 15.901 19.9974 17.6334 18.393L14.3315 15.8351C13.4479 16.4513 12.2619 16.8815 10.704 16.8815C7.9369 16.8815 5.58834 15.0562 4.75115 12.5332L4.62843 12.5436L1.39844 15.0433L1.3562 15.1608C3.07692 18.579 6.61141 20.9276 10.704 20.9276Z" fill="#34A853"/>
<path d="M4.75167 12.5344C4.53077 11.8833 4.40293 11.1857 4.40293 10.4649C4.40293 9.74399 4.53077 9.04642 4.74005 8.39534L4.7342 8.25668L1.46373 5.7168L1.35673 5.76769C0.647536 7.18616 0.240601 8.77903 0.240601 10.4649C0.240601 12.1507 0.647536 13.7435 1.35673 15.162L4.75167 12.5344Z" fill="#FBBC05"/>
<path d="M10.704 4.04603C12.6689 4.04603 13.9943 4.89476 14.75 5.60403L17.7032 2.72062C15.8895 1.03477 13.5292 0 10.704 0C6.61141 0 3.07692 2.34855 1.3562 5.76674L4.73953 8.39439C5.58834 5.87142 7.9369 4.04603 10.704 4.04603Z" fill="#EB4335"/>
</g>
<defs>
<clipPath id="clip0_651_206">
<rect width="21" height="21" fill="white"/>
</clipPath>
</defs>
</svg>
