<svg width="105" height="105" viewBox="0 0 105 105" fill="none" xmlns="http://www.w3.org/2000/svg">
<path fill-rule="evenodd" clip-rule="evenodd" d="M47.0146 21.2668C45.9458 21.5659 44.916 21.9398 43.92 22.3697C42.7993 22.5275 41.7513 22.7394 40.7338 23.0241C33.0273 25.1802 27.1235 30.8628 23.9128 38.187C23.8769 38.2444 23.8549 38.307 23.8308 38.3702C22.8139 40.7304 22.0812 43.2595 21.6534 45.894C21.6406 45.9529 21.6303 46.0088 21.6272 46.0706C21.3387 47.9077 21.1971 49.7939 21.2191 51.7123C21.2001 51.8259 21.2099 51.9417 21.2282 52.0596C21.2908 54.9498 21.7095 57.9028 22.5339 60.8495C23.8238 65.4596 25.9593 69.5746 28.6791 73.0385C28.7055 73.0762 28.7302 73.1122 28.761 73.1454C30.3841 75.1948 32.2127 77.0106 34.1952 78.5611C34.2469 78.6008 34.2914 78.647 34.3482 78.6763C36.3494 80.2215 38.5034 81.4936 40.7577 82.4624C40.8261 82.5053 40.9006 82.5296 40.9781 82.5564C46.2576 84.7726 52.0669 85.32 57.7206 83.7382C58.7381 83.4535 59.7439 83.0909 60.7838 82.6442C61.8583 82.4948 62.9326 82.28 64.0014 81.981C78.7193 77.8631 86.8846 60.8949 82.2013 44.1556C77.5179 27.4163 61.7325 17.149 47.0146 21.2668ZM70.9539 37.3718C71.4484 37.0291 72.125 37.1559 72.4655 37.6509C72.8861 38.2624 73.2884 38.9016 73.6599 39.5516C73.9571 40.0735 73.776 40.7371 73.2555 41.0351C73.1758 41.0811 73.0926 41.1145 73.0078 41.1382C72.5399 41.2692 72.0243 41.0725 71.7723 40.6317C71.43 40.0333 71.061 39.4447 70.6748 38.8834C70.3345 38.3894 70.4589 37.7123 70.9539 37.3718ZM31.4999 73.0145L35.4652 71.9051C35.7332 72.2297 36.0045 72.55 36.2828 72.8627C36.4028 72.9973 36.5254 73.1289 36.6481 73.2605C36.9793 73.6216 37.318 73.9727 37.6636 74.3162C37.7919 74.444 37.9187 74.5744 38.0485 74.6995C38.3216 74.9617 38.6008 75.2132 38.881 75.4644L35.1272 76.5146C33.838 75.4689 32.6272 74.2963 31.4999 73.0145ZM23.6965 46.9794L27.7026 45.8585C27.6463 46.3675 27.6031 46.8785 27.5699 47.3935C27.5612 47.5359 27.5512 47.6775 27.5438 47.8207C27.5187 48.3119 27.5056 48.8055 27.5009 49.3012L23.4111 50.4454C23.4431 49.2728 23.5396 48.117 23.6965 46.9794ZM25.6627 39.6568L29.3296 38.6309C29.2532 38.8498 29.1754 39.068 29.1029 39.2892C28.9239 39.8393 28.759 40.3956 28.6085 40.9592C28.5624 41.1335 28.5218 41.3108 28.4784 41.4866C28.3613 41.9596 28.254 42.4354 28.1582 42.916C28.122 43.0932 28.0852 43.2683 28.0524 43.4456C28.049 43.4658 28.0445 43.4862 28.0412 43.5063L24.1167 44.6043C24.4912 42.8889 25.013 41.236 25.6627 39.6568ZM42.4543 34.0874C42.3232 34.2077 42.1712 34.2897 42.0121 34.3342C41.63 34.4411 41.2043 34.3356 40.9184 34.0239C40.5116 33.5824 40.5394 32.8951 40.9809 32.4883C41.5399 31.9729 42.1319 31.4867 42.7394 31.0436C43.2227 30.6894 43.9045 30.7944 44.2582 31.2801C44.6127 31.7645 44.5061 32.4445 44.0217 32.799C43.481 33.1941 42.9532 33.6273 42.4543 34.0874ZM54.3475 74.6757C54.2639 75.0908 53.9553 75.404 53.5732 75.5109C53.4141 75.5554 53.2427 75.5639 53.0692 75.5289C52.333 75.3827 51.5924 75.1926 50.8676 74.9619C50.2966 74.7808 49.9792 74.1709 50.1597 73.5978C50.3429 73.0262 50.9518 72.7091 51.5249 72.8896C52.1739 73.0952 52.8369 73.2664 53.4944 73.3974C54.0826 73.515 54.4651 74.0875 54.3475 74.6757ZM37.7398 62.1711C38.2593 61.8734 38.9258 62.0571 39.222 62.5792C39.5617 63.1761 39.9297 63.7651 40.3161 64.3274C40.6557 64.8228 40.5289 65.4994 40.0346 65.8386C39.9334 65.9086 39.8246 65.9594 39.7126 65.9907C39.2771 66.1126 38.7939 65.9509 38.5238 65.5581C38.1026 64.9445 37.7011 64.304 37.3317 63.6533C37.0355 63.1312 37.218 62.4684 37.7398 62.1711ZM34.7523 57.4558L34.7458 57.4328C34.5461 56.7189 34.3734 55.9929 34.234 55.2768C34.118 54.6884 34.5009 54.1208 35.0915 54.0007C35.6802 53.8856 36.2516 54.2698 36.3676 54.8582C36.4963 55.5197 36.6563 56.1883 36.8405 56.8468C37.0021 57.4246 36.6676 58.0363 36.0887 58.1982C35.5109 58.3599 34.9139 58.0337 34.7523 57.4558ZM35.9265 48.6945C35.901 49.1723 35.5709 49.5616 35.1344 49.6837C35.0234 49.7147 34.904 49.7278 34.7825 49.7212C34.1832 49.6891 33.7237 49.1765 33.7559 48.5772C33.7968 47.832 33.8695 47.0791 33.9721 46.3405C34.056 45.7447 34.6044 45.3328 35.1996 45.4146C35.7951 45.4975 36.2097 46.0474 36.1265 46.6418C36.0307 47.3199 35.9645 48.0112 35.9265 48.6945ZM42.9001 69.0326C43.288 68.5753 43.9743 68.5187 44.4322 68.9087C44.9552 69.3538 45.5023 69.7764 46.0567 70.1642C46.5481 70.5087 46.6667 71.1866 46.3235 71.6788C46.1733 71.8924 45.9595 72.0358 45.726 72.1011C45.4235 72.1857 45.0865 72.1389 44.8089 71.9457C44.1994 71.518 43.5989 71.0539 43.0243 70.5656C42.5667 70.1767 42.5112 69.4902 42.9001 69.0326ZM37.7889 40.7226C37.6522 41.0329 37.3887 41.2489 37.0851 41.3338C36.8517 41.3991 36.5966 41.387 36.3574 41.2823C35.8071 41.0423 35.5556 40.4016 35.7967 39.8511C36.1001 39.1566 36.4388 38.4749 36.8003 37.8264C37.0953 37.3036 37.756 37.1154 38.2803 37.4078C38.8035 37.7005 38.991 38.3625 38.6986 38.8868C38.3708 39.474 38.0649 40.0912 37.7889 40.7226ZM24.6275 60.2637C24.4301 59.5582 24.2733 58.8526 24.1234 58.1473L28.298 56.9793C28.3017 56.9964 28.3064 57.0131 28.31 57.0301C28.4594 57.7175 28.6223 58.4045 28.8147 59.0922C28.9128 59.4429 29.0226 59.7869 29.1306 60.1326L24.9612 61.2991C24.8519 60.9527 24.7262 60.6165 24.6275 60.2637ZM29.8357 62.1928C29.9998 62.6221 30.1725 63.0456 30.3508 63.4652C30.3638 63.4955 30.375 63.5273 30.3883 63.5586C30.6286 64.1189 30.8841 64.6694 31.1498 65.2113L27.0212 66.3664C26.5295 65.3956 26.0757 64.395 25.6747 63.357L29.8357 62.1928ZM27.5559 51.5433C27.5633 51.6744 27.5751 51.8054 27.5838 51.9373C27.5942 52.0834 27.6032 52.2287 27.616 52.3753C27.672 53.0673 27.7432 53.7619 27.842 54.4578C27.8469 54.4914 27.8539 54.5244 27.8585 54.557C27.8719 54.6492 27.8894 54.7402 27.9028 54.8324L23.7481 55.9948C23.5881 54.8905 23.4689 53.7907 23.4221 52.6998L27.5559 51.5433ZM32.1993 67.1752C32.2664 67.2941 32.3331 67.4154 32.402 67.5327C32.4278 67.5763 32.4514 67.6205 32.4768 67.663C32.8282 68.2532 33.1973 68.8261 33.5777 69.3868C33.6582 69.5053 33.7403 69.6212 33.8217 69.7384C33.8934 69.8414 33.9643 69.9457 34.0368 70.0473L30.0035 71.1757C29.3223 70.2703 28.6876 69.3169 28.0958 68.3233L32.1993 67.1752ZM58.6337 74.7779C58.542 74.1839 58.954 73.6352 59.5418 73.5373C60.2028 73.4348 60.8679 73.2905 61.519 73.1083C62.0968 72.9467 62.742 73.2718 62.9036 73.8497C63.0653 74.4275 62.7726 75.0151 62.1947 75.1767L62.1047 75.2019C61.372 75.4069 60.6206 75.5697 59.8743 75.686C59.2813 75.7774 58.7251 75.3709 58.6337 74.7779ZM51.5553 29.69C51.5156 29.7011 51.4742 29.7105 51.4319 29.7167C50.7812 29.8197 50.1303 29.9623 49.497 30.1395C48.9192 30.3011 48.297 29.9695 48.1353 29.3917C47.9737 28.8139 48.2884 28.2201 48.8662 28.0585L48.9112 28.0459C49.6252 27.8461 50.3581 27.6862 51.091 27.5704C51.6841 27.4755 52.2408 27.8796 52.3346 28.4731C52.4219 29.0232 52.0798 29.5433 51.5553 29.69ZM36.726 27.0959C36.4299 27.3729 36.1403 27.6571 35.857 27.9475C35.6982 28.1104 35.5373 28.2694 35.3832 28.4367C35.143 28.6958 34.912 28.9636 34.6814 29.2324L32.6673 29.7959C33.9974 28.6517 35.437 27.6406 37.0033 26.8242C36.9078 26.9107 36.8209 27.0073 36.726 27.0959ZM29.649 32.8979L32.5402 32.0889C32.3442 32.3887 32.1484 32.6896 31.9626 32.9978C31.8079 33.2555 31.6614 33.5189 31.514 33.7825C31.3636 34.048 31.2187 34.3166 31.077 34.5888C30.941 34.8492 30.8048 35.1085 30.6758 35.3737C30.5621 35.6087 30.4567 35.8493 30.3486 36.0883L26.8921 37.0554C27.6892 35.5716 28.6075 34.178 29.649 32.8979ZM37.3355 78.1543L40.9281 77.1491C41.0887 77.2712 41.2503 77.3931 41.4132 77.5112C41.8406 77.8205 42.2745 78.1167 42.7142 78.4012C42.962 78.561 43.2131 78.712 43.4644 78.864C43.7268 79.0231 43.9911 79.1772 44.2577 79.3272C44.3652 79.3886 44.4686 79.4556 44.5765 79.5146L41.4288 80.3952C40.0161 79.7757 38.647 79.0255 37.3355 78.1543ZM52.5597 82.4258C50.0189 82.5915 47.4913 82.2997 45.0388 81.6427L47.571 80.9342C47.7339 81.0004 47.8983 81.0594 48.0625 81.1218C48.3243 81.2224 48.5853 81.3243 48.8503 81.4161C49.3433 81.5886 49.8387 81.7457 50.338 81.8882C50.5566 81.9512 50.7767 82.0036 50.9969 82.0605C51.3898 82.1617 51.7848 82.2543 52.1816 82.3374C52.3087 82.3639 52.4332 82.4014 52.5597 82.4258ZM70.0708 70.7258C69.5123 71.2433 68.9217 71.7302 68.3159 72.1751C68.2073 72.2552 68.0889 72.312 67.9654 72.3466C67.5425 72.4649 67.0723 72.3176 66.7968 71.9421C66.4413 71.458 66.5455 70.7775 67.0299 70.4231C67.569 70.0262 68.0955 69.5922 68.5937 69.1299C69.0336 68.7213 69.7219 68.7488 70.1295 69.189C70.5374 69.6302 70.5109 70.3182 70.0708 70.7258ZM60.8123 29.6341C60.6974 29.9981 60.4093 30.2593 60.067 30.3551C59.8712 30.4098 59.6582 30.4107 59.449 30.3451C58.8017 30.1413 58.1392 29.9722 57.4786 29.8421C56.8896 29.7259 56.5063 29.1547 56.6226 28.5657C56.7392 27.9778 57.3097 27.5924 57.899 27.7097C58.637 27.8543 59.3773 28.0433 60.1013 28.2708C60.6744 28.4514 60.9921 29.0623 60.8123 29.6341ZM75.2394 63.3516C74.9365 64.0481 74.5992 64.7306 74.2388 65.3789C74.0913 65.6425 73.8513 65.8214 73.5822 65.8966C73.3153 65.9713 73.02 65.9445 72.7593 65.7996C72.235 65.5072 72.0465 64.8454 72.34 64.3208C72.6657 63.7342 72.9705 63.1173 73.2452 62.4851C73.4852 61.9349 74.1253 61.6813 74.6755 61.9212C75.2255 62.1602 75.478 62.8006 75.2394 63.3516ZM67.5461 34.527C67.2101 34.621 66.8355 34.5531 66.5498 34.3103C66.026 33.8665 65.4784 33.4463 64.923 33.0587C64.4308 32.7156 64.3099 32.0372 64.654 31.5447C64.9961 31.0528 65.6745 30.9319 66.1667 31.275C66.778 31.7011 67.3793 32.1638 67.9549 32.6518C68.4133 33.0394 68.4695 33.7246 68.0812 34.1843C67.9362 34.3558 67.7481 34.4705 67.5461 34.527ZM77.2625 54.6226C77.2234 55.3706 77.1521 56.1242 77.051 56.8602C76.9884 57.3021 76.6701 57.6451 76.266 57.7582C76.1268 57.7971 75.9776 57.8084 75.8241 57.7882C75.2297 57.705 74.8143 57.1564 74.8971 56.5609C74.9907 55.8869 75.0559 55.1959 75.0919 54.5097C75.1233 53.9117 75.6329 53.4497 76.2329 53.4805C76.8333 53.5123 77.2932 54.0225 77.2625 54.6226ZM76.7732 47.9238C76.8838 48.4843 76.5421 49.0303 76.0009 49.1817C75.9737 49.1893 75.9462 49.1959 75.9184 49.2014C75.329 49.3178 74.7569 48.9349 74.6405 48.3456C74.5122 47.6974 74.355 47.0427 74.1755 46.401C74.0138 45.8232 74.3422 45.1895 74.92 45.0279C75.4989 44.8659 76.0884 45.1694 76.25 45.7473L76.2691 45.8153C76.4638 46.5114 76.6339 47.2201 76.7732 47.9238Z" fill="white"/>
</svg>
