<svg width="20" height="20" viewBox="0 0 20 20" fill="none" xmlns="http://www.w3.org/2000/svg">
<path d="M1.98981 0.0704746C1.85191 0.109876 1.61057 0.198528 1.44804 0.272407C1.05895 0.454638 0.458081 1.05058 0.280775 1.43475C-0.00981063 2.04547 3.97092e-05 1.88294 3.97092e-05 6.84259C3.97092e-05 11.8022 -0.00981063 11.6397 0.280775 12.2504C0.453156 12.6247 1.06388 13.2355 1.43819 13.4079C1.97011 13.659 2.18682 13.6886 3.53139 13.6886H4.77746V13.1517V12.6149L3.53632 12.5952C2.35427 12.5804 2.27547 12.5755 2.03414 12.4622C1.70908 12.3194 1.32984 11.9155 1.20178 11.5954C1.11313 11.359 1.1082 11.1767 1.1082 6.84259C1.1082 2.50844 1.11313 2.32621 1.20178 2.0898C1.32984 1.76966 1.70908 1.3658 2.03414 1.22297L2.29025 1.10476H6.82141C11.1753 1.10476 11.3624 1.10969 11.5988 1.19834C11.919 1.32639 12.3228 1.70563 12.4657 2.03069C12.5789 2.27203 12.5839 2.35083 12.5986 3.52795L12.6183 4.77402H13.1552H13.692V3.52795C13.692 2.18337 13.6625 1.96667 13.4113 1.43475C13.2389 1.06043 12.6282 0.449713 12.2539 0.277331C11.6382 -0.0132542 11.8106 -0.00340366 6.82141 0.00152206C3.09798 0.00152206 2.19174 0.0162973 1.98981 0.0704746Z" fill="white"/>
<path d="M7.35375 6.39066C6.90063 6.55319 6.57557 6.86841 6.39827 7.3363C6.30961 7.56778 6.30469 7.73524 6.30469 9.99589C6.30469 12.296 6.30961 12.4191 6.40319 12.6752C6.53617 13.0298 6.83661 13.3598 7.18137 13.5272L7.4621 13.6651H9.99857H12.535L12.8158 13.5272C13.1359 13.3696 13.4117 13.0889 13.5644 12.7589C13.6629 12.5373 13.6678 12.4683 13.6826 10.0648C13.6974 7.67121 13.6925 7.58748 13.5939 7.32152C13.461 6.96198 13.1655 6.63692 12.8158 6.46454L12.535 6.32664L10.0724 6.31679C7.80687 6.30201 7.59016 6.31186 7.35375 6.39066ZM12.3134 7.45943C12.6089 7.61211 12.6089 7.61211 12.6089 9.99589C12.6089 12.3797 12.6089 12.3797 12.3134 12.5324C12.0967 12.6456 7.90044 12.6456 7.68374 12.5324C7.38823 12.3797 7.38823 12.3797 7.38823 9.99589C7.38823 7.62688 7.38823 7.61703 7.67389 7.46435C7.87582 7.35107 12.1016 7.35107 12.3134 7.45943Z" fill="white"/>
<path d="M15.2193 6.83809V7.37493L16.4653 7.39463C17.6424 7.40941 17.7212 7.41433 17.9626 7.52761C18.2876 7.67044 18.6669 8.07431 18.7949 8.39444C18.8836 8.63085 18.8885 8.81801 18.8885 13.1719V17.703L18.7703 17.9591C18.6275 18.2842 18.2236 18.6634 17.9035 18.7915C17.6671 18.8801 17.4848 18.8851 13.1507 18.8851C8.81653 18.8851 8.6343 18.8801 8.39789 18.7915C8.07775 18.6634 7.67389 18.2842 7.53106 17.9591C7.41778 17.7178 7.41285 17.639 7.39808 16.457L7.37838 15.2158H6.84153H6.30469V16.4619C6.30469 17.8114 6.32931 18.0084 6.58542 18.5452C6.76765 18.9392 7.35868 19.5303 7.75269 19.7125C8.36834 20.0031 8.19596 19.9932 13.1507 19.9932C18.1202 19.9932 17.9527 20.0031 18.5585 19.7125C18.9328 19.5303 19.5337 18.9294 19.7159 18.5551C20.0065 17.9493 19.9967 18.1167 19.9967 13.1472C19.9967 8.18759 20.0065 8.35012 19.7159 7.7394C19.5436 7.36508 18.9328 6.75436 18.5585 6.58198C18.0266 6.3308 17.8099 6.30124 16.4653 6.30124H15.2193V6.83809Z" fill="white"/>
</svg>
