<svg width="25" height="25" viewBox="0 0 25 25" fill="none" xmlns="http://www.w3.org/2000/svg">
<rect width="25" height="25" rx="12.5" fill="#FF6421"/>
<g clip-path="url(#clip0_1_1012)">
<path d="M12.2216 11.0751C12.311 10.807 12.6896 10.807 12.779 11.0751L13.303 12.6489C13.4183 12.9948 13.6127 13.3091 13.8706 13.5669C14.1285 13.8247 14.443 14.0189 14.789 14.134L16.3619 14.658C16.63 14.7474 16.63 15.126 16.3619 15.2154L14.7882 15.7394C14.4422 15.8548 14.1279 16.0491 13.8701 16.307C13.6123 16.565 13.4182 16.8794 13.303 17.2254L12.779 18.7983C12.7597 18.857 12.7224 18.9081 12.6723 18.9444C12.6223 18.9806 12.5621 19.0001 12.5003 19.0001C12.4385 19.0001 12.3783 18.9806 12.3283 18.9444C12.2782 18.9081 12.2409 18.857 12.2216 18.7983L11.6976 17.2246C11.5823 16.8787 11.3881 16.5645 11.1303 16.3067C10.8726 16.0489 10.5583 15.8547 10.2124 15.7394L8.63872 15.2154C8.58001 15.1961 8.52888 15.1588 8.49264 15.1088C8.45639 15.0587 8.43688 14.9985 8.43688 14.9367C8.43688 14.8749 8.45639 14.8147 8.49264 14.7647C8.52888 14.7146 8.58001 14.6773 8.63872 14.658L10.2124 14.134C10.5583 14.0188 10.8726 13.8245 11.1303 13.5668C11.3881 13.309 11.5823 12.9947 11.6976 12.6489L12.2216 11.0751ZM9.08313 6.93245C9.09478 6.89726 9.11722 6.86665 9.14727 6.84495C9.17731 6.82325 9.21343 6.81157 9.25049 6.81157C9.28756 6.81157 9.32368 6.82325 9.35372 6.84495C9.38377 6.86665 9.40621 6.89726 9.41786 6.93245L9.73228 7.87652C9.87283 8.29737 10.2027 8.62722 10.6235 8.76778L11.5676 9.08219C11.6028 9.09385 11.6334 9.11629 11.6551 9.14633C11.6768 9.17638 11.6885 9.2125 11.6885 9.24956C11.6885 9.28662 11.6768 9.32274 11.6551 9.35279C11.6334 9.38283 11.6028 9.40527 11.5676 9.41692L10.6235 9.73134C10.416 9.8005 10.2274 9.91704 10.0727 10.0717C9.91797 10.2264 9.80143 10.415 9.73228 10.6226L9.41786 11.5667C9.40621 11.6019 9.38377 11.6325 9.35372 11.6542C9.32368 11.6759 9.28756 11.6876 9.25049 11.6876C9.21343 11.6876 9.17731 11.6759 9.14727 11.6542C9.11722 11.6325 9.09478 11.6019 9.08313 11.5667L8.76871 10.6226C8.69956 10.415 8.58301 10.2264 8.42831 10.0717C8.27361 9.91704 8.08501 9.8005 7.87745 9.73134L6.93338 9.41692C6.8982 9.40527 6.86758 9.38283 6.84588 9.35279C6.82418 9.32274 6.8125 9.28662 6.8125 9.24956C6.8125 9.2125 6.82418 9.17638 6.84588 9.14633C6.86758 9.11629 6.8982 9.09385 6.93338 9.08219L7.87745 8.76778C8.08501 8.69862 8.27361 8.58208 8.42831 8.42738C8.58301 8.27268 8.69956 8.08408 8.76871 7.87652L9.08313 6.93245ZM14.8263 6.08019C14.8344 6.05705 14.8494 6.03699 14.8693 6.0228C14.8893 6.0086 14.9132 6.00097 14.9377 6.00097C14.9621 6.00097 14.986 6.0086 15.006 6.0228C15.0259 6.03699 15.0409 6.05705 15.049 6.08019L15.2586 6.70902C15.352 6.99013 15.5722 7.21031 15.8533 7.30374L16.4821 7.51335C16.5053 7.52137 16.5253 7.5364 16.5395 7.55635C16.5537 7.5763 16.5613 7.60017 16.5613 7.62466C16.5613 7.64914 16.5537 7.67302 16.5395 7.69297C16.5253 7.71291 16.5053 7.72794 16.4821 7.73596L15.8533 7.94558C15.7148 7.99166 15.5889 8.06941 15.4856 8.17264C15.3824 8.27588 15.3047 8.40176 15.2586 8.54029L15.049 9.16913C15.0409 9.19226 15.0259 9.21232 15.006 9.22652C14.986 9.24071 14.9621 9.24834 14.9377 9.24834C14.9132 9.24834 14.8893 9.24071 14.8693 9.22652C14.8494 9.21232 14.8344 9.19226 14.8263 9.16913L14.6167 8.54029C14.5706 8.40176 14.4929 8.27588 14.3897 8.17264C14.2864 8.06941 14.1606 7.99166 14.022 7.94558L13.394 7.73596C13.3709 7.72794 13.3508 7.71291 13.3366 7.69297C13.3224 7.67302 13.3148 7.64914 13.3148 7.62466C13.3148 7.60017 13.3224 7.5763 13.3366 7.55635C13.3508 7.5364 13.3709 7.52137 13.394 7.51335L14.0228 7.30374C14.3039 7.21031 14.5241 6.99013 14.6175 6.70902L14.8263 6.081V6.08019Z" fill="white"/>
</g>
<defs>
<clipPath id="clip0_1_1012">
<rect width="12.9992" height="12.9992" fill="white" transform="translate(6.00049 6.00039)"/>
</clipPath>
</defs>
</svg>
