<svg width="17" height="22" viewBox="0 0 17 22" fill="none" xmlns="http://www.w3.org/2000/svg">
<path d="M9.43085 8.5876C9.58667 8.13385 10.2468 8.13385 10.4026 8.5876L11.3162 11.251C11.5173 11.8365 11.8562 12.3684 12.3059 12.8047C12.7556 13.241 13.3038 13.5696 13.907 13.7645L16.6494 14.6514C17.1169 14.8026 17.1169 15.4434 16.6494 15.5946L13.9056 16.4815C13.3025 16.6767 12.7544 17.0056 12.305 17.4421C11.8555 17.8787 11.517 18.4108 11.3162 18.9964L10.4026 21.6584C10.369 21.7578 10.3039 21.8443 10.2167 21.9056C10.1294 21.967 10.0244 22 9.91672 22C9.80899 22 9.70401 21.967 9.61676 21.9056C9.52951 21.8443 9.46445 21.7578 9.43085 21.6584L8.5172 18.995C8.31624 18.4097 7.97762 17.8778 7.52818 17.4415C7.07874 17.0053 6.53081 16.6766 5.92781 16.4815L3.18402 15.5946C3.08166 15.562 2.99253 15.4989 2.92934 15.4142C2.86614 15.3295 2.83212 15.2276 2.83212 15.123C2.83212 15.0184 2.86614 14.9165 2.92934 14.8318C2.99253 14.7471 3.08166 14.684 3.18402 14.6514L5.92781 13.7645C6.53081 13.5694 7.07874 13.2407 7.52818 12.8045C7.97762 12.3682 8.31624 11.8363 8.5172 11.251L9.43085 8.5876ZM3.95886 1.57645C3.97917 1.5169 4.0183 1.46509 4.07068 1.42836C4.12306 1.39163 4.18604 1.37186 4.25066 1.37186C4.31528 1.37186 4.37825 1.39163 4.43064 1.42836C4.48302 1.46509 4.52215 1.5169 4.54246 1.57645L5.09065 3.1742C5.33571 3.88646 5.91081 4.44471 6.64457 4.68259L8.29056 5.21471C8.3519 5.23443 8.40528 5.27241 8.44312 5.32326C8.48095 5.37411 8.50132 5.43524 8.50132 5.49796C8.50132 5.56069 8.48095 5.62182 8.44312 5.67267C8.40528 5.72352 8.3519 5.7615 8.29056 5.78122L6.64457 6.31334C6.28268 6.43038 5.95385 6.62762 5.68414 6.88943C5.41442 7.15125 5.21122 7.47044 5.09065 7.82172L4.54246 9.41948C4.52215 9.47903 4.48302 9.53084 4.43064 9.56757C4.37825 9.6043 4.31528 9.62406 4.25066 9.62406C4.18604 9.62406 4.12306 9.6043 4.07068 9.56757C4.0183 9.53084 3.97917 9.47903 3.95886 9.41948L3.41067 7.82172C3.2901 7.47044 3.0869 7.15125 2.81718 6.88943C2.54746 6.62762 2.21863 6.43038 1.85675 6.31334L0.210759 5.78122C0.149416 5.7615 0.0960346 5.72352 0.0581995 5.67267C0.0203643 5.62182 0 5.56069 0 5.49796C0 5.43524 0.0203643 5.37411 0.0581995 5.32326C0.0960346 5.27241 0.149416 5.23443 0.210759 5.21471L1.85675 4.68259C2.21863 4.56555 2.54746 4.36831 2.81718 4.10649C3.0869 3.84468 3.2901 3.52548 3.41067 3.1742L3.95886 1.57645ZM13.9722 0.134067C13.9862 0.0949152 14.0124 0.0609658 14.0472 0.0369385C14.0819 0.0129112 14.1236 0 14.1663 0C14.2089 0 14.2506 0.0129112 14.2854 0.0369385C14.3201 0.0609658 14.3463 0.0949152 14.3603 0.134067L14.7258 1.19832C14.8887 1.67407 15.2726 2.0467 15.7627 2.20483L16.8591 2.55958C16.8994 2.57315 16.9344 2.59859 16.9591 2.63235C16.9839 2.66611 16.9972 2.70651 16.9972 2.74795C16.9972 2.78939 16.9839 2.8298 16.9591 2.86356C16.9344 2.89732 16.8994 2.92276 16.8591 2.93633L15.7627 3.29108C15.5211 3.36907 15.3017 3.50065 15.1217 3.67537C14.9417 3.85009 14.8061 4.06313 14.7258 4.29758L14.3603 5.36184C14.3463 5.40099 14.3201 5.43494 14.2854 5.45897C14.2506 5.48299 14.2089 5.49591 14.1663 5.49591C14.1236 5.49591 14.0819 5.48299 14.0472 5.45897C14.0124 5.43494 13.9862 5.40099 13.9722 5.36184L13.6067 4.29758C13.5264 4.06313 13.3908 3.85009 13.2108 3.67537C13.0309 3.50065 12.8114 3.36907 12.5698 3.29108L11.4749 2.93633C11.4346 2.92276 11.3996 2.89732 11.3748 2.86356C11.3501 2.8298 11.3368 2.78939 11.3368 2.74795C11.3368 2.70651 11.3501 2.66611 11.3748 2.63235C11.3996 2.59859 11.4346 2.57315 11.4749 2.55958L12.5713 2.20483C13.0614 2.0467 13.4453 1.67407 13.6082 1.19832L13.9722 0.135442V0.134067Z" fill="#FF6421"/>
</svg>
