<svg width="23" height="23" viewBox="0 0 23 23" fill="none" xmlns="http://www.w3.org/2000/svg">
<path d="M10.5072 0.553009C9.88778 1.15026 9.7993 1.92447 10.2859 2.56596C10.4629 2.78716 10.6178 3.40653 10.6178 3.9153V4.86647H9.17993H7.74211V3.87106V2.87564H6.7467H5.75128V3.87106V4.86647H4.75587C3.9153 4.86647 3.60561 4.99919 2.91988 5.61856C2.10143 6.37065 2.10143 6.39277 2.03507 8.3836C1.94659 10.3302 1.94659 10.3744 1.32722 10.5956C0.309684 10.9496 0 11.8344 0 14.4667C0 16.6345 0.0442406 16.8114 0.575128 17.4529C0.884813 17.829 1.32722 18.1387 1.57054 18.1387C1.94659 18.1387 1.99083 18.3156 1.99083 19.4659C1.99083 20.9922 2.36687 21.877 3.25169 22.4742C3.82682 22.8724 4.37982 22.8945 11.5026 22.8945C18.6253 22.8945 19.1783 22.8724 19.7534 22.4742C20.6383 21.877 21.0143 20.9922 21.0143 19.4659C21.0143 18.3377 21.0807 18.1387 21.4125 18.1387C21.6337 18.1387 22.054 17.8732 22.3636 17.5635C22.8503 17.0548 22.8945 16.7893 22.9609 14.5994C23.0494 11.8786 22.7618 10.9717 21.6779 10.5956C21.0585 10.3744 21.0585 10.3302 20.9701 8.3836C20.9037 6.39277 20.9037 6.37065 20.0853 5.61856C19.3995 4.99919 19.0898 4.86647 18.2493 4.86647H17.2539V3.87106V2.87564H16.2584H15.263V3.87106V4.86647H13.8252H12.3874V3.9153C12.3874 3.40653 12.5422 2.78716 12.7192 2.56596C12.8961 2.32263 13.051 1.90235 13.051 1.61478C13.051 0.951174 12.1219 0 11.5026 0C11.2592 0 10.7947 0.243324 10.5072 0.553009ZM8.56056 11.1265C9.09145 11.6574 9.11357 12.498 8.62693 13.1174C8.0518 13.8473 7.1891 13.8916 6.48125 13.228C5.81764 12.6086 5.83976 11.8344 6.54762 11.1486C6.9679 10.7062 7.23335 10.6178 7.69787 10.7284C8.02968 10.7947 8.40572 10.9938 8.56056 11.1265ZM16.4796 11.1708C17.1875 11.8565 17.1875 12.6086 16.5018 13.2501C15.816 13.9137 14.887 13.8031 14.3118 13.0067C13.7588 12.2547 13.98 11.3256 14.8206 10.9053C15.6169 10.5072 15.8824 10.5514 16.4796 11.1708ZM14.7764 17.5193C15.1745 17.9175 15.0861 18.5368 14.6215 18.8023C14.0685 19.0898 8.95873 19.0898 8.42784 18.8023C7.85271 18.4926 7.69787 17.9838 8.09604 17.5857C8.53844 17.1654 14.3561 17.099 14.7764 17.5193Z" fill="#FFFEFE"/>
</svg>
