<svg width="17" height="22" viewBox="0 0 17 22" fill="none" xmlns="http://www.w3.org/2000/svg">
<path d="M8.1296 0C6.83952 0 5.78707 1.06657 5.78707 2.35916V3.15577C3.22648 4.10475 1.40171 6.56485 1.40171 9.45211V14.7978L0.0617659 17.6184C0.0155263 17.7158 -0.00532425 17.8233 0.00115546 17.9309C0.00763517 18.0385 0.0412343 18.1427 0.0988252 18.2338C0.156416 18.3249 0.236127 18.4 0.330536 18.452C0.424946 18.5041 0.530985 18.5314 0.638783 18.5314H4.68182C4.81607 20.312 6.31362 21.7222 8.1296 21.7222C9.94558 21.7222 11.4432 20.312 11.5774 18.5314H15.6204C15.7282 18.5314 15.8342 18.5041 15.9287 18.4521C16.0231 18.4 16.1028 18.325 16.1604 18.2338C16.218 18.1427 16.2516 18.0385 16.2581 17.9309C16.2646 17.8233 16.2437 17.7158 16.1975 17.6184L14.8575 14.7978V9.45211C14.8575 6.56485 13.0327 4.10475 10.4721 3.15577V2.35916C10.4721 1.06657 9.41968 0 8.1296 0ZM8.1296 1.27762C8.72717 1.27762 9.19436 1.74559 9.19436 2.35916V2.82134C8.84752 2.7658 8.49198 2.73682 8.1296 2.73682C7.76723 2.73682 7.41166 2.7658 7.06481 2.82134V2.35916C7.06481 1.74559 7.53204 1.27762 8.1296 1.27762ZM8.1296 4.01493C11.1608 4.01493 13.5798 6.42963 13.5798 9.45211V14.9419C13.5798 15.0367 13.6009 15.1304 13.6416 15.216L14.6096 17.2535H11.5872H10.3095H5.9497H4.67196H1.64963L2.61763 15.216C2.65832 15.1304 2.67943 15.0367 2.67945 14.9419V9.45211C2.67945 6.42963 5.09843 4.01493 8.1296 4.01493ZM5.96482 18.5314H10.2944C10.1683 19.6197 9.26038 20.4446 8.1296 20.4446C6.99882 20.4446 6.09092 19.6197 5.96482 18.5314Z" fill="#808080"/>
</svg>
