<svg width="21" height="30" viewBox="0 0 21 30" fill="none" xmlns="http://www.w3.org/2000/svg">
<path d="M10.0952 0.133841C9.80517 0.327229 9.50371 0.759507 9.16244 1.45343C8.5709 2.66494 8.15 4.26324 7.88267 6.28243C7.7992 6.91836 7.71573 7.8237 7.68661 8.32693C7.67225 8.57509 7.80851 8.67996 8.03624 8.58033C9.54353 7.92623 11.4547 7.92623 12.9619 8.58033C13.1897 8.67996 13.3259 8.57509 13.3116 8.32693C13.2824 7.8237 13.199 6.91836 13.1155 6.28243C12.7856 3.73995 12.1315 1.66388 11.3295 0.583183C10.8972 0.00302029 10.5048 -0.139177 10.0952 0.133841Z" fill="white"/>
<path d="M7.08871 0.565164C6.29241 0.855245 5.93407 1.02019 5.30272 1.38991C3.31196 2.56161 1.76486 4.3931 0.923054 6.57156C0.661411 7.2541 0.314451 8.64763 0.405457 8.64763C0.428209 8.64763 0.650036 8.57369 0.90599 8.48268C1.7478 8.18691 2.20851 8.10728 3.1072 8.10728C4.07414 8.10728 4.62017 8.20398 5.4506 8.52818L5.67818 8.61734C5.83973 8.68063 6.01659 8.57028 6.03076 8.39736C6.33791 4.74575 6.77587 2.67536 7.60062 0.9235C7.82813 0.451406 7.86226 0.343337 7.78263 0.349025C7.73144 0.349025 7.4186 0.445719 7.08871 0.565164Z" fill="white"/>
<path d="M13.3959 0.917811C14.2263 2.67536 14.6643 4.74575 14.9714 8.39736C14.9856 8.57028 15.1625 8.68063 15.324 8.61734L15.5516 8.52818C16.382 8.20398 16.9281 8.10728 17.895 8.10728C18.7937 8.10728 19.2544 8.18691 20.0962 8.48268C20.3522 8.57369 20.574 8.64763 20.5967 8.64763C20.6877 8.64763 20.3408 7.2541 20.0848 6.6C19.2146 4.34191 17.6447 2.50473 15.563 1.31596C14.9487 0.963314 13.7087 0.434342 13.3333 0.371776C13.2432 0.355176 13.1722 0.447682 13.2116 0.530423L13.3959 0.917811Z" fill="white"/>
<path d="M0.859064 10.2978C0.170832 10.6447 -0.0566831 10.8154 0.0115714 10.9405C0.0400107 10.986 1.72362 13.1815 3.75419 15.8207L5.58374 18.2C6.75767 19.7266 8.5742 20.6213 10.5 20.6213C12.4258 20.6213 14.2423 19.7266 15.4163 18.2L17.2458 15.8207C19.2764 13.1815 20.96 10.986 20.9884 10.9405C21.0567 10.8154 20.8292 10.6504 20.1296 10.2921C19.6916 10.0646 19.5324 10.0077 19.4755 10.0589C19.4357 10.093 17.8544 12.2032 15.9604 14.7514C15.518 15.3466 15.0942 15.9163 14.7044 16.44C13.3022 18.3235 12.8613 18.1052 13.5066 15.8475C13.5757 15.6058 13.6468 15.3574 13.7193 15.104C14.3905 12.7606 14.9365 10.8097 14.9365 10.7699C14.9365 10.7244 14.8285 10.7699 14.6692 10.8666C14.254 11.1282 13.998 11.0941 13.4406 10.6903C13.27 10.5651 13.1961 10.5424 13.1733 10.5936C13.1506 10.6334 12.5476 12.7208 11.831 15.2292C11.12 17.7432 10.5171 19.7965 10.5 19.7965C10.4829 19.7965 9.88003 17.7432 9.16905 15.2292C8.45237 12.7208 7.84946 10.6334 7.82671 10.5936C7.80396 10.5424 7.73001 10.5651 7.55938 10.6903C7.00197 11.0941 6.74601 11.1282 6.3308 10.8666C6.17154 10.7699 6.06347 10.7244 6.06347 10.7699C6.06347 10.8097 6.6095 12.7606 7.28067 15.104C7.35322 15.3574 7.42431 15.6058 7.4934 15.8475C8.13874 18.1052 7.69676 18.3243 6.29402 16.4412C5.89657 15.9077 5.46361 15.3259 5.01121 14.7173C3.10577 12.152 1.51317 10.0418 1.48473 10.0305C1.4506 10.0191 1.1719 10.1385 0.859064 10.2978Z" fill="white"/>
<path d="M7.66814 22.2827C7.46338 22.3225 7.16192 22.6524 7.09367 22.914C7.04816 23.079 7.0311 23.9663 7.04248 25.8376C7.05954 28.8294 7.05385 28.7612 7.44631 29.0057C7.6397 29.1252 7.69658 29.1252 10.5007 29.1252C13.3048 29.1252 13.3617 29.1252 13.5551 29.0057C13.9532 28.7612 13.9419 28.8465 13.9419 25.7125C13.9419 22.5841 13.9532 22.6865 13.5608 22.4021C13.4386 22.3169 13.2933 22.2711 13.1443 22.2708L10.586 22.2656C9.05598 22.2599 7.74208 22.2656 7.66814 22.2827Z" fill="white"/>
</svg>
