<svg width="70" height="70" viewBox="0 0 70 70" fill="none" xmlns="http://www.w3.org/2000/svg">
<rect width="69.9961" height="69.9961" rx="25.4531" fill="#2F2F2F"/>
<path d="M45.0829 22.5175C44.6902 22.8157 39.1178 28.2758 32.7412 34.6676C24.9436 42.4758 21.0915 46.445 21.0354 46.7618C20.8858 47.5818 21.2224 48.4204 21.8208 48.7185C23.111 49.3894 22.4565 49.9485 35.6958 36.7361L48 24.4928V23.7102C48 23.0766 47.8878 22.853 47.4203 22.4616C46.6723 21.828 45.9805 21.8467 45.0829 22.5175Z" fill="white"/>
<path d="M24.9982 22.1375C23.4526 22.6201 22.0669 23.8533 21.3918 25.3546C20.841 26.5878 20.8766 28.5359 21.4628 29.8585C21.978 30.9665 22.9552 32.0031 24.0211 32.5929C24.9982 33.1112 27.9651 33.147 28.9066 32.6287C30.0969 31.9853 30.8076 31.2882 31.4116 30.1623C31.9446 29.1614 31.9979 28.8933 31.9979 27.6065C32.0156 26.4806 31.9268 25.9801 31.5892 25.2295C31.0385 23.9963 29.6173 22.6737 28.3737 22.2805C27.4143 21.9767 25.7799 21.9052 24.9982 22.1375ZM27.5209 25.5869C28.1427 25.8193 28.729 26.7665 28.729 27.535C28.729 28.8933 27.4143 30.0014 26.0997 29.7512C25.3713 29.6082 24.5363 28.8397 24.3586 28.1606C24.0744 26.9989 24.8205 25.712 25.9575 25.3903C26.526 25.2474 26.6682 25.2652 27.5209 25.5869Z" fill="white"/>
<path d="M40.0348 38.5545C37.9723 39.5919 36.87 41.5057 37.0122 43.8309C37.1189 45.3512 37.5812 46.4423 38.5946 47.4618C39.7503 48.6244 40.7104 49 42.4883 49C44.8886 49 46.4354 48.0699 47.4666 46.013C47.9111 45.1008 48 44.7073 48 43.6341C48 41.7919 47.6089 40.7902 46.4176 39.5919C45.2264 38.3935 44.2307 38 42.3994 38C41.3327 38 40.9415 38.0894 40.0348 38.5545ZM43.5373 41.5415C44.1952 41.8992 44.7997 42.8472 44.7997 43.5089C44.7997 44.6 43.7151 45.6911 42.6306 45.6911C41.2438 45.6911 40.3548 44.8325 40.3548 43.5089C40.3548 42.6146 40.6926 42.0602 41.4927 41.5593C42.1861 41.1301 42.7728 41.1301 43.5373 41.5415Z" fill="white"/>
</svg>
