<svg width="26" height="26" viewBox="0 0 26 26" fill="none" xmlns="http://www.w3.org/2000/svg">
<path d="M13.123 0.222656C16.348 0.306183 19.4231 1.62348 21.71 3.91016C24.0706 6.27075 25.3986 9.47216 25.4023 12.8105C25.4023 15.3008 24.6637 17.735 23.2803 19.8057C21.8966 21.8764 19.9298 23.4903 17.6289 24.4434C15.328 25.3964 12.7961 25.646 10.3535 25.1602C7.91101 24.6743 5.66721 23.4748 3.90625 21.7139C2.14537 19.9529 0.945802 17.7091 0.459961 15.2666C-0.0258115 12.8241 0.223744 10.292 1.17676 7.99121C2.12979 5.69054 3.74392 3.72438 5.81445 2.34082C7.8852 0.957192 10.3201 0.21875 12.8105 0.21875L13.123 0.222656ZM17.1562 2.31934C15.0813 1.45987 12.7975 1.2347 10.5947 1.67285C8.39208 2.11103 6.36928 3.19322 4.78125 4.78125C3.19322 6.36928 2.11103 8.39208 1.67285 10.5947C1.2347 12.7975 1.45987 15.0813 2.31934 17.1562C3.17882 19.231 4.63467 21.0043 6.50195 22.252C8.36929 23.4996 10.5648 24.166 12.8105 24.166C15.821 24.1625 18.7072 22.9647 20.8359 20.8359C22.9647 18.7072 24.1625 15.821 24.166 12.8105C24.166 10.5648 23.4996 8.36929 22.252 6.50195C21.0043 4.63467 19.231 3.17882 17.1562 2.31934ZM12.8105 14.9863C15.8798 14.9864 18.8355 16.1072 21.1289 18.126L21.5791 18.541V18.542C21.6965 18.6563 21.7643 18.8127 21.7666 18.9766C21.7688 19.1403 21.7059 19.2986 21.5918 19.416H21.5908C21.4766 19.5333 21.32 19.6002 21.1562 19.6025C20.9925 19.6047 20.8343 19.5419 20.7168 19.4277V19.4287C18.5982 17.373 15.7626 16.2227 12.8105 16.2227C9.85844 16.2227 7.02199 17.3729 4.90332 19.4287H4.90234C4.78457 19.5418 4.62713 19.6043 4.46387 19.6016C4.30059 19.5988 4.14512 19.5311 4.03125 19.4141C3.91742 19.297 3.85472 19.1398 3.85645 18.9766C3.85818 18.8135 3.92395 18.6575 4.04004 18.543L4.04199 18.541C6.39143 16.2612 9.53676 14.9863 12.8105 14.9863ZM10.8936 4.19141C11.8086 3.81239 12.8157 3.71311 13.7871 3.90625C14.7586 4.09949 15.6511 4.57701 16.3516 5.27734C17.052 5.97778 17.5294 6.87027 17.7227 7.8418C17.9159 8.81327 17.8165 9.82022 17.4375 10.7354C17.0584 11.6506 16.4164 12.433 15.5928 12.9834C14.7692 13.5337 13.8011 13.8281 12.8105 13.8281C11.4828 13.8266 10.2094 13.2982 9.27051 12.3594C8.33157 11.4204 7.80324 10.1472 7.80176 8.81934C7.80176 7.82872 8.09515 6.8598 8.64551 6.03613C9.19586 5.2125 9.97837 4.57049 10.8936 4.19141ZM12.624 5.05176C11.6919 5.09889 10.8076 5.49022 10.1445 6.15332C9.43734 6.86051 9.03923 7.81922 9.03809 8.81934L9.04883 9.09766C9.09681 9.74559 9.31112 10.3722 9.67383 10.915C10.0883 11.5353 10.678 12.0182 11.3672 12.3037C12.0563 12.5891 12.8144 12.664 13.5459 12.5186C14.2776 12.373 14.95 12.0139 15.4775 11.4863C16.0051 10.9588 16.3642 10.2864 16.5098 9.55469C16.6552 8.82314 16.5803 8.06509 16.2949 7.37598C16.0094 6.68678 15.5265 6.09709 14.9062 5.68262C14.286 5.26818 13.5565 5.04692 12.8105 5.04688L12.624 5.05176Z" fill="white" stroke="white" stroke-width="0.438374"/>
</svg>
