<svg width="25" height="25" viewBox="0 0 25 25" fill="none" xmlns="http://www.w3.org/2000/svg">
<path d="M9.58917 0.288965C4.94955 1.28967 1.2879 4.99681 0.309937 9.65917C-0.0994407 11.5923 -0.0994407 12.8432 0.287194 14.7764C0.946748 17.8467 2.56152 20.3257 5.08601 22.1225C12.2956 27.2624 22.3709 23.3961 24.1903 14.7991C24.5997 12.8432 24.5997 11.6151 24.1903 9.65917C22.7802 3.01815 16.2757 -1.1666 9.58917 0.288965ZM13.9104 7.20291L14.0863 7.58039C14.5581 8.5932 15.5104 9.29846 16.6168 9.45448C19.8236 9.90935 20.0056 10.4097 17.8677 12.775C16.9625 13.7664 16.5623 15.1341 16.776 16.4594C17.2764 19.6207 16.7988 19.9391 13.9331 18.3471C12.8829 17.7794 11.6173 17.7794 10.5671 18.3471C7.70148 19.9391 7.26936 19.6434 7.70148 16.4367L7.72443 16.281C7.9107 15.0169 7.49881 13.7382 6.60981 12.8205C5.08601 11.2512 4.8131 10.4097 5.65459 9.95484C5.90477 9.81838 6.90547 9.61369 7.88343 9.45448C9.00372 9.2985 9.96857 8.58525 10.4463 7.55997L10.6126 7.20291C11.4769 5.26973 11.5678 5.17876 12.2501 5.17876C12.9324 5.17876 13.0234 5.26973 13.9104 7.20291Z" fill="white"/>
</svg>
