<svg width="54" height="54" viewBox="0 0 54 54" fill="none" xmlns="http://www.w3.org/2000/svg">
<path d="M42.6999 1.0098C33.6118 3.60641 23.4657 9.9537 18.1763 16.3972C16.8299 17.984 16.4933 18.1763 13.512 18.4167C7.9341 18.9457 4.42386 21.4461 1.92342 26.8798C1.10597 28.5628 0.384684 31.0151 0.240427 32.3615C0.115373 33.6121 1.15548 34.6695 2.40792 34.5651L4.03918 34.4292C6.25111 34.2369 8.89581 33.9964 9.90561 33.8041C11.6367 33.5637 11.6848 33.5637 11.6848 35.1024C11.6848 36.3045 12.2618 37.1701 14.5218 39.4782C16.8299 41.7382 17.6955 42.3152 18.8976 42.3152C20.3882 42.3152 20.4363 42.4114 20.1959 43.7097C20.0036 44.4791 19.7631 47.1238 19.5708 49.5761L19.4139 51.6384C19.3202 52.8691 20.3625 53.8849 21.5904 53.7596C26.5432 53.2787 32.2173 49.6242 34.333 45.537C34.862 44.5752 35.439 42.2671 35.6313 40.4399C35.9679 37.2182 36.016 37.122 38.4203 35.0543C41.9786 31.9768 43.9982 29.5245 46.9795 24.8121C51.4515 17.7435 54 10.0018 54 3.75067C54 1.68667 52.3135 0.0205688 50.2496 0.0457382L50.057 0.0480881C47.6046 0.0480881 44.7195 0.43277 42.6999 1.0098ZM39.382 14.618C40.7284 15.9644 41.0169 16.6376 41.0169 18.2725C41.0169 19.9074 40.7284 20.5806 39.382 21.927C38.0356 23.2734 37.3624 23.5619 35.7275 23.5619C34.0926 23.5619 33.4194 23.2734 32.073 21.927C30.7266 20.5806 30.4381 19.9074 30.4381 18.2725C30.4381 16.6376 30.7266 15.9644 32.073 14.618C33.4194 13.2716 34.0926 12.9831 35.7275 12.9831C37.3624 12.9831 38.0356 13.2716 39.382 14.618Z" fill="white"/>
<path d="M6.20273 37.5079C5.38528 37.9888 4.47166 38.9505 4.13506 39.6237C3.17335 41.451 2.06738 46.5961 2.06738 49.3851C2.06738 50.7926 3.2084 51.9336 4.61591 51.9336C7.26062 51.9336 12.1172 50.9238 14.2811 49.9621C15.8198 49.2408 17.4547 46.7404 17.4547 45.0093C17.4547 43.5667 17.1181 43.4705 15.2428 44.4803C13.1751 45.5382 11.7807 45.3459 10.1938 43.8071C8.60701 42.2203 8.46275 41.1144 9.52063 38.6139C9.90532 37.7003 10.2419 36.8348 10.2419 36.7386C10.2419 36.1616 7.40487 36.6905 6.20273 37.5079Z" fill="white"/>
</svg>
