<svg width="35" height="35" viewBox="0 0 35 35" fill="none" xmlns="http://www.w3.org/2000/svg">
<circle cx="17.5" cy="17.5" r="17.5" fill="#111111"/>
<rect width="20.5172" height="20.5172" transform="translate(7.24219 7.24219)" fill="#111111"/>
<path d="M17.5008 7.24219C15.4718 7.24219 13.4884 7.84384 11.8014 8.97108C10.1144 10.0983 8.79953 11.7005 8.02308 13.575C7.24663 15.4495 7.04348 17.5122 7.43931 19.5022C7.83514 21.4921 8.81218 23.32 10.2469 24.7547C11.6816 26.1894 13.5095 27.1665 15.4995 27.5623C17.4894 27.9581 19.5521 27.755 21.4266 26.9785C23.3011 26.2021 24.9033 24.8872 26.0305 23.2002C27.1578 21.5132 27.7594 19.5298 27.7594 17.5008C27.7564 14.781 26.6746 12.1735 24.7514 10.2503C22.8282 8.32706 20.2206 7.24526 17.5008 7.24219ZM17.5008 27.0976C15.6027 27.0976 13.7473 26.5347 12.1691 25.4802C10.5909 24.4257 9.36091 22.9269 8.63455 21.1733C7.90819 19.4198 7.71814 17.4902 8.08844 15.6286C8.45873 13.767 9.37274 12.057 10.7149 10.7149C12.057 9.37273 13.767 8.45873 15.6286 8.08843C17.4902 7.71814 19.4198 7.90819 21.1733 8.63454C22.9269 9.3609 24.4257 10.5909 25.4802 12.1691C26.5347 13.7473 27.0976 15.6027 27.0976 17.5008C27.0947 20.0451 26.0827 22.4844 24.2836 24.2835C22.4844 26.0827 20.0451 27.0947 17.5008 27.0976ZM24.651 22.8508C24.5899 22.9138 24.5062 22.9498 24.4184 22.9511C24.3307 22.9523 24.246 22.9186 24.1831 22.8575C22.3926 21.1201 19.9957 20.1484 17.5008 20.1484C15.0059 20.1484 12.6091 21.1201 10.8185 22.8575C10.7555 22.918 10.671 22.9511 10.5837 22.9497C10.4963 22.9482 10.413 22.9122 10.3521 22.8495C10.2911 22.7869 10.2574 22.7027 10.2584 22.6153C10.2593 22.5279 10.2948 22.4444 10.357 22.383C12.2711 20.5255 14.8335 19.4865 17.5008 19.4865C20.1681 19.4865 22.7305 20.5255 24.6446 22.383C24.7074 22.4442 24.7434 22.5279 24.7446 22.6156C24.7459 22.7033 24.7122 22.7879 24.651 22.8508ZM17.5008 18.1627C18.2862 18.1627 19.054 17.9298 19.707 17.4934C20.3601 17.0571 20.869 16.4369 21.1696 15.7112C21.4702 14.9856 21.5488 14.1872 21.3956 13.4169C21.2424 12.6465 20.8642 11.939 20.3088 11.3836C19.7534 10.8282 19.0458 10.45 18.2755 10.2968C17.5052 10.1436 16.7068 10.2222 15.9811 10.5228C15.2555 10.8233 14.6353 11.3323 14.199 11.9854C13.7626 12.6384 13.5297 13.4062 13.5297 14.1916C13.5309 15.2444 13.9497 16.2538 14.6941 16.9983C15.4386 17.7427 16.448 18.1615 17.5008 18.1627ZM17.5008 10.8823C18.1553 10.8823 18.7951 11.0764 19.3393 11.44C19.8835 11.8037 20.3077 12.3205 20.5581 12.9252C20.8086 13.5299 20.8741 14.1952 20.7465 14.8372C20.6188 15.4791 20.3036 16.0687 19.8408 16.5316C19.378 16.9944 18.7883 17.3095 18.1464 17.4372C17.5045 17.5649 16.8391 17.4994 16.2344 17.2489C15.6297 16.9984 15.1129 16.5743 14.7493 16.0301C14.3857 15.4859 14.1916 14.8461 14.1916 14.1916C14.1926 13.3142 14.5415 12.4731 15.1619 11.8527C15.7823 11.2323 16.6235 10.8833 17.5008 10.8823Z" fill="white"/>
</svg>
