<svg width="23" height="26" viewBox="0 0 23 26" fill="none" xmlns="http://www.w3.org/2000/svg">
<path d="M18.2339 0.0496597C18.0464 0.110331 17.8313 0.297858 17.7265 0.501933C17.6217 0.706008 17.6272 1.11967 17.7431 1.35684C17.8589 1.61055 18.0464 1.71535 18.78 1.95803C19.2173 2.10142 19.2328 2.30741 18.8156 2.50169C16.8595 3.41263 10.6783 6.14233 6.67339 7.85413C3.63985 9.15028 2.6967 9.57498 2.58087 9.70183C2.15066 10.1651 2.28855 10.8987 2.85113 11.1469C3.0166 11.2186 3.17103 11.2517 3.30341 11.2296C3.5847 11.191 10.7439 8.11888 16.0167 5.77478C18.4656 4.68822 20.4843 3.80573 20.4953 3.81677C20.5063 3.8278 20.3905 4.20837 20.2361 4.66064C19.8665 5.75272 19.8941 6.02849 20.4071 6.37597C20.7711 6.62968 21.4219 6.49731 21.637 6.12777C21.7694 5.90164 22.9994 2.21726 22.9994 2.04628C22.9994 1.84772 22.7953 1.45612 22.6519 1.35684C22.4754 1.24101 18.6807 -0.00549507 18.5263 2.00272e-05C18.4546 2.00272e-05 18.3222 0.0275974 18.2339 0.0496597Z" fill="white"/>
<path d="M16.9615 9.50264C16.7519 9.5964 16.6305 9.72877 16.5202 9.99352C16.4485 10.17 16.4375 11.0415 16.4375 17.4119V24.3579C16.4375 24.5378 16.481 24.715 16.5644 24.8744C16.6526 25.0454 16.7629 25.1557 16.9339 25.244C17.0972 25.3238 17.2766 25.3649 17.4584 25.3641L19.7854 25.3543C22.3281 25.3377 22.3888 25.3377 22.5432 25.2219C22.6259 25.1612 22.7528 25.0233 22.8245 24.9241C22.9036 24.8054 22.9458 24.6659 22.9458 24.5233V17.3733V10.2432C22.9458 10.0876 22.8998 9.93546 22.8135 9.80599C22.5487 9.4199 22.5928 9.42542 19.7082 9.42542C17.6895 9.43093 17.0883 9.44748 16.9615 9.50264Z" fill="white"/>
<path d="M8.59932 11.9295C8.19117 12.2108 8.21323 11.7364 8.22978 18.6308C8.24632 24.7641 8.24632 24.8082 8.36215 24.9627C8.42282 25.0454 8.58277 25.1723 8.71514 25.244C8.95783 25.3653 8.97437 25.3653 11.4729 25.3653C13.9714 25.3653 13.988 25.3653 14.2307 25.2384C14.363 25.1723 14.523 25.0454 14.5837 24.9627C14.6995 24.8082 14.6995 24.7641 14.716 18.6308C14.7271 12.5693 14.7271 12.4534 14.6168 12.2439C14.5616 12.1225 14.4237 11.9791 14.3244 11.9129C14.1369 11.7971 14.0818 11.7971 11.4674 11.7971H9.03651C8.88091 11.7971 8.72879 11.8432 8.59932 11.9295Z" fill="white"/>
<path d="M0.446758 16.5791C0.347478 16.6287 0.204075 16.7611 0.132373 16.8714C0.0459945 17.0045 0.00023943 17.16 0.000689081 17.3187L0.0110311 20.9694L0.0265496 24.6215C0.0272104 24.7769 0.0866919 24.9264 0.193044 25.0399C0.501913 25.3708 0.474335 25.3653 3.24313 25.3653C5.7527 25.3653 5.76924 25.3653 6.01193 25.244C6.19394 25.1502 6.29322 25.0509 6.38698 24.8689C6.46681 24.7056 6.50805 24.5262 6.50752 24.3444L6.49729 20.837L6.48188 17.3127C6.48115 17.1446 6.42447 16.9816 6.3208 16.8493C6.0395 16.4798 6.08363 16.4853 3.21555 16.4853C0.926609 16.4853 0.612224 16.4963 0.446758 16.5791Z" fill="white"/>
</svg>
