<svg width="38" height="35" viewBox="0 0 38 35" fill="none" xmlns="http://www.w3.org/2000/svg">
<path d="M27.2876 6.31787C32.8979 6.31805 37.4624 10.8829 37.4624 16.4917V18.0327C37.4624 23.6431 32.8979 28.2083 27.2876 28.2085H15.644L20.231 32.7954C20.5913 33.1562 20.5915 33.7423 20.231 34.103L20.23 34.1021C20.0503 34.2833 19.814 34.3745 19.5776 34.3745C19.341 34.3745 19.1042 34.2839 18.9233 34.105L12.7563 27.938C12.7254 27.9071 12.7046 27.8744 12.6909 27.8511C12.6746 27.823 12.6708 27.8148 12.6616 27.8013C12.6469 27.78 12.6399 27.7724 12.6167 27.7407C12.5982 27.7154 12.5756 27.6823 12.5581 27.6411L12.5571 27.6392C12.4631 27.4119 12.4629 27.1564 12.5571 26.9292H12.5581C12.6023 26.8234 12.6673 26.7325 12.7378 26.6567C12.7427 26.6497 12.7484 26.6402 12.7573 26.6313L18.9243 20.4644C19.2851 20.1039 19.8712 20.1039 20.2319 20.4644C20.5928 20.8252 20.5928 21.4121 20.2319 21.7729L15.645 26.3599H27.2876C31.8781 26.3597 35.6118 22.6252 35.6118 18.0347V16.4927C35.6117 11.9022 31.8781 8.16766 27.2876 8.16748C26.777 8.16748 26.3618 7.75332 26.3618 7.24268C26.3619 6.73214 26.777 6.31787 27.2876 6.31787ZM17.3823 0.424316C17.7432 0.0635157 18.3301 0.0634956 18.6909 0.424316L24.8481 6.58154H24.8472C24.9158 6.64775 24.9732 6.72365 25.0181 6.80811L25.0591 6.896L25.0601 6.89697C25.0728 6.92962 25.0766 6.9607 25.0786 6.97607C25.0799 6.98603 25.0808 6.98958 25.0815 6.99463C25.0817 6.99588 25.0814 6.99693 25.0815 6.99756C25.0961 7.04979 25.1293 7.14311 25.1294 7.24268C25.1294 7.28057 25.1207 7.31198 25.1157 7.32959C25.1123 7.34168 25.1117 7.34311 25.1099 7.3501C25.1091 7.35297 25.109 7.35446 25.1089 7.35498C25.1022 7.41693 25.094 7.5098 25.0571 7.59814C25.0194 7.69002 24.9574 7.76395 24.9155 7.81592L24.9126 7.81982C24.9156 7.81637 24.9177 7.81276 24.9077 7.83057C24.9004 7.84365 24.8839 7.87197 24.8569 7.89893L18.6909 14.0659L18.6899 14.0669C18.5106 14.2443 18.2738 14.3344 18.0376 14.3345C17.801 14.3345 17.5641 14.2438 17.3833 14.0649L17.3823 14.064C17.0218 13.7031 17.0217 13.1171 17.3823 12.7563L21.9712 8.16748H10.3286C5.73811 8.16766 2.00452 11.9022 2.00439 16.4927V18.0347C2.00445 22.6252 5.73806 26.3597 10.3286 26.3599C10.8393 26.3599 11.2544 26.774 11.2544 27.2847C11.2543 27.7953 10.8392 28.2095 10.3286 28.2095C4.71832 28.2093 0.153859 23.645 0.153809 18.0347V16.4927C0.153934 10.8824 4.71836 6.31805 10.3286 6.31787H21.9673L17.3823 1.73291C17.0215 1.37208 17.0215 0.785147 17.3823 0.424316Z" fill="white" stroke="white" stroke-width="0.308333"/>
</svg>
