<svg width="23" height="28" viewBox="0 0 23 28" fill="none" xmlns="http://www.w3.org/2000/svg">
<path d="M15.917 2.49219C17.3558 2.4923 18.5283 3.66435 18.5283 5.10742C18.5283 5.88104 18.1911 6.60729 17.5986 7.10547C17.5965 7.10721 17.5949 7.10948 17.5928 7.11133C16.6859 7.90627 15.2277 7.91755 14.292 7.15723L14.2305 7.10547C12.3754 5.55357 13.4934 2.49143 15.917 2.49219Z" stroke="white" stroke-width="0.5"/>
<path d="M19.5006 15.3664C19.4627 15.4415 19.3714 15.519 19.2228 15.519H18.303C17.8653 18.3235 15.7803 20.927 13.0742 21.7734C15.0276 20.2035 16.0346 17.9367 15.5275 15.519H14.7208C14.4979 15.5133 14.3453 15.3405 14.4664 15.1548L16.7179 12.158C16.7792 12.0757 16.8729 12.0312 16.9747 12.0312C17.0756 12.0312 17.1677 12.0757 17.229 12.158L19.2495 14.8511L19.478 15.1547C19.5402 15.2395 19.524 15.3171 19.5006 15.3664Z" fill="white"/>
<path d="M13.8389 8.02734C15.0485 8.90501 16.7764 8.90589 17.9873 8.02832C19.7081 8.72249 20.9763 10.2373 21.3438 12.0557C21.1077 12.8269 20.4994 13.54 19.5732 14.084L17.8037 11.7266C17.4318 11.2105 16.6372 11.1775 16.2158 11.6348L16.1416 11.7266L14.5928 13.7861C13.8862 13.0873 13.0594 12.5148 12.1553 12.1016C13.0149 11.0771 13.4031 9.68123 13.1621 8.35938C13.3787 8.234 13.6045 8.12265 13.8389 8.02734Z" stroke="white" stroke-width="0.5"/>
<path d="M5.93555 13.1084C7.54026 14.2403 9.80854 14.2489 11.415 13.1113C12.2529 13.4554 13.0274 13.9609 13.6748 14.5938C13.4195 14.9486 13.3768 15.4037 13.5762 15.8018C13.7873 16.2248 14.2132 16.4705 14.6729 16.4863C14.7061 17.0986 14.6297 17.7084 14.4443 18.2793L14.4395 18.2959C14.1478 19.213 13.5236 20.1154 12.6611 20.8418L12.4854 20.9844C12.3204 21.1125 12.2076 21.2858 12.1494 21.4746C10.3186 22.1953 7.95615 22.2455 5.90039 21.6748C3.778 21.0855 2.13895 19.8861 1.65234 18.2744C2.13264 15.9546 3.74584 14.0148 5.93555 13.1084Z" stroke="white"/>
<path d="M8.67871 5.82617H8.68457C10.4899 5.8059 12.0369 7.35027 12.0146 9.1543V9.17188C12.0578 11.0516 10.2696 12.6939 8.39551 12.4854L8.38574 12.4844H8.37695C6.70878 12.3616 5.31256 10.8431 5.3418 9.16895H5.34277V9.16016C5.34302 7.32217 6.83971 5.82634 8.67871 5.82617Z" stroke="white"/>
</svg>
