<svg width="29" height="25" viewBox="0 0 29 25" fill="none" xmlns="http://www.w3.org/2000/svg">
<path d="M3.47656 0.520835C2.01823 1.40625 1.60156 2.42188 1.60156 5.07813C1.60156 7.57813 1.8099 8.07292 2.77344 8.07292C3.71094 8.07292 3.94531 7.55209 3.94531 5.54688C3.94531 3.85417 4.02344 3.54167 4.59636 2.99479C5.14323 2.42188 5.45573 2.34375 7.14844 2.34375C9.15365 2.34375 9.67448 2.10938 9.67448 1.17188C9.67448 0.208334 9.17969 9.53674e-07 6.70573 9.53674e-07C4.80469 9.53674e-07 4.17969 0.104168 3.47656 0.520835Z" fill="white"/>
<path d="M18.8688 0.286459C18.4521 0.703126 18.4261 1.61458 18.8428 2.03125C19.025 2.21354 19.9365 2.34375 21.0563 2.34375C22.749 2.34375 23.0615 2.42188 23.6084 2.99479C24.1813 3.54167 24.2594 3.85417 24.2594 5.54688C24.2594 7.55209 24.4938 8.07292 25.4313 8.07292C26.3948 8.07292 26.6032 7.57813 26.6032 5.15625C26.6032 2.65625 26.3428 1.875 25.1709 0.781251C24.5459 0.182292 24.2334 0.130209 21.8375 0.052084C19.9365 -0.026041 19.0771 0.052084 18.8688 0.286459Z" fill="white"/>
<path d="M6.39302 4.79232L5.5076 5.67774V8.56836V11.459H3.18989C0.273225 11.459 -0.508025 12.0319 0.299267 13.5684C0.559684 14.0371 1.00239 14.0632 13.9711 14.0632C25.7941 14.0632 27.3826 14.0111 27.7472 13.6465C28.268 13.1257 28.268 12.5267 27.7472 11.7715C27.3826 11.2507 27.1482 11.1986 25.0128 11.1986H22.6951V8.43815V5.67774L21.8097 4.79232L20.9243 3.9069H14.1014H7.27844L6.39302 4.79232Z" fill="white"/>
<path d="M5.50977 17.4746C5.50977 19.2194 5.56185 19.3757 6.39518 20.209L7.2806 21.0944H14.1035H20.9264L21.8119 20.209C22.6452 19.3757 22.6973 19.2194 22.6973 17.4746V15.6257H14.1035H5.50977V17.4746Z" fill="white"/>
<path d="M1.91406 17.2402C1.70573 17.4486 1.60156 18.4121 1.60156 19.8965C1.60156 23.8809 2.72135 25.0007 6.70573 25.0007C9.17969 25.0007 9.67448 24.7923 9.67448 23.8288C9.67448 22.8913 9.15365 22.6569 7.14844 22.6569C5.45573 22.6569 5.14323 22.5788 4.59636 22.0059C4.02344 21.459 3.94531 21.1465 3.94531 19.4538C3.94531 17.4486 3.71094 16.9277 2.77344 16.9277C2.46094 16.9277 2.09635 17.0579 1.91406 17.2402Z" fill="white"/>
<path d="M24.5711 17.2402C24.3888 17.4225 24.2586 18.3079 24.2586 19.4277C24.2586 22.1361 23.9201 22.4746 21.1076 22.6569C18.7638 22.8132 18.3211 23.0996 18.6336 24.2975C18.7898 25.0007 18.8159 25.0007 21.2898 25.0007C23.9461 25.0007 24.7013 24.7663 25.8211 23.5684C26.4201 22.9434 26.4721 22.6309 26.5503 20.2871C26.6544 17.5007 26.4721 16.9277 25.4565 16.9277C25.144 16.9277 24.7534 17.0579 24.5711 17.2402Z" fill="white"/>
</svg>
