<svg width="83" height="80" viewBox="0 0 83 80" fill="none" xmlns="http://www.w3.org/2000/svg">
<path d="M51.542 15.7378V31.4595L52.32 31.3298C53.6004 31.1191 57.3444 31.2163 58.7545 31.5081C62.3364 32.2536 65.6266 33.8096 68.1875 35.9652C68.8358 36.5163 69.4031 36.9539 69.4517 36.9539C69.5003 36.9539 69.5327 28.6393 69.5327 18.477V0H60.5374H51.542V15.7378Z" fill="white"/>
<path d="M25.6094 45.5455V75.0438H34.6047H43.6001V72.4019V69.7762L42.2873 68.8037C39.0781 66.4374 36.4038 62.742 35.1072 58.8359C34.3454 56.5344 34.0375 54.6543 34.0375 52.1907C34.0375 48.6898 34.6858 45.8858 36.2255 42.8063C37.7166 39.8403 39.7913 37.3605 42.4007 35.3831L43.6001 34.4917V25.2694V16.0472H34.6047H25.6094V45.5455Z" fill="white"/>
<path d="M0 51.8665V75.0438H8.91432H17.8286V51.8665V28.6893H8.91432H0V51.8665Z" fill="white"/>
<path d="M52.9844 36.3069C46.485 37.1172 41.185 41.7851 39.4508 48.2196C39.2077 49.1435 38.8574 49.727 38.8736 52.1095C38.8736 54.8162 39.1915 55.3025 39.6129 56.6315C42.2872 65.4162 51.4446 70.1327 60.0672 67.199C60.6831 66.9883 61.5583 66.6318 61.9959 66.4048L62.8063 65.9834L69.565 72.7421L76.3399 79.5008L79.1763 76.6644C80.7322 75.1085 82.0126 73.7632 82.0126 73.666C82.0126 73.5849 79.0142 70.5054 75.3674 66.8587L68.706 60.1972L69.3543 58.8358C70.3106 56.7936 70.6996 55.0756 70.7806 52.5957C70.8454 50.9101 70.7968 50.1808 70.5375 48.949C69.2895 42.9035 64.8323 38.2032 58.9326 36.7121C57.2308 36.2744 54.5889 36.0962 52.9844 36.3069ZM56.7284 41.7203C60.0672 42.3362 62.9036 44.4432 64.3623 47.4092C65.1889 49.1111 65.4806 50.3267 65.4806 52.1095C65.4806 55.189 64.573 57.3284 62.3201 59.5651C61.2504 60.6348 60.5696 61.1697 59.7592 61.5587C55.4642 63.6495 50.618 62.8391 47.3278 59.4517C45.4477 57.5229 44.5563 55.3835 44.4428 52.5795C44.3618 50.4401 44.6049 49.3056 45.545 47.393C47.2468 43.9245 50.926 41.6068 54.8645 41.5258C55.221 41.5096 56.0639 41.6068 56.7284 41.7203Z" fill="white"/>
</svg>
