<svg width="15" height="20" viewBox="0 0 15 20" fill="none" xmlns="http://www.w3.org/2000/svg">
<path d="M6.7519 0.0411167C6.00942 0.129286 5.17414 0.426275 4.51055 0.834639C3.97689 1.16411 3.20193 1.92515 2.8539 2.46345C2.39913 3.16416 2.0975 3.98552 2.00005 4.79297C1.9722 5.03427 1.949 5.99485 1.949 7.05288V8.89515L1.11836 8.90907L0.283069 8.923L0.143855 9.05757L0 9.19678V14.3616V19.5265L0.134574 19.675L0.269148 19.8281H7.42013H14.5665L14.7057 19.6936L14.8495 19.5543V14.3756V9.19678L14.7057 9.05757L14.5665 8.923L13.7312 8.90907L12.9005 8.89515V7.05288C12.9005 5.99485 12.8773 5.03427 12.8495 4.79297C12.701 3.57716 12.1673 2.49129 11.281 1.6096C10.0698 0.398434 8.45496 -0.163065 6.7519 0.0411167ZM8.18581 1.10843C9.79605 1.36829 11.2068 2.63515 11.6708 4.24075C11.8332 4.80689 11.8796 5.44264 11.8796 7.28491V8.89979H7.42477H2.96991V7.28491C2.96991 4.97859 3.03487 4.43565 3.41075 3.62821C4.25532 1.79522 6.1672 0.788233 8.18581 1.10843ZM13.8286 14.3756V18.8304H7.42477H1.02091V14.3756V9.9207H7.42477H13.8286V14.3756Z" fill="#808080"/>
<path d="M6.90391 12.9585C6.26353 13.1952 5.91085 13.7428 5.94798 14.4574C5.97582 15.0328 6.26353 15.483 6.7647 15.7289C7.08025 15.882 7.76704 15.882 8.0826 15.7289C8.36103 15.5897 8.63945 15.3113 8.77867 15.0328C8.9318 14.7173 8.9318 14.0305 8.77867 13.7149C8.62553 13.404 8.29606 13.0931 7.99443 12.9817C7.70208 12.8704 7.16842 12.8611 6.90391 12.9585ZM7.65103 13.9748C7.96194 14.1372 7.95266 14.6384 7.63247 14.7822C7.39581 14.889 7.13594 14.8147 7.02457 14.6013C6.80646 14.179 7.22875 13.7567 7.65103 13.9748Z" fill="#808080"/>
</svg>
