<svg width="27" height="27" viewBox="0 0 27 27" fill="none" xmlns="http://www.w3.org/2000/svg">
<path d="M13.1511 16.4389C14.9669 16.4389 16.4389 14.9669 16.4389 13.1511C16.4389 11.3353 14.9669 9.86328 13.1511 9.86328C11.3353 9.86328 9.86328 11.3353 9.86328 13.1511C9.86328 14.9669 11.3353 16.4389 13.1511 16.4389Z" stroke="#808080" stroke-width="1.6439"/>
<path d="M15.0858 2.35825C14.683 2.19141 14.1724 2.19141 13.1511 2.19141C12.1298 2.19141 11.6192 2.19141 11.2163 2.35825C10.6793 2.58072 10.2526 3.00742 10.0301 3.54448C9.92856 3.78965 9.88881 4.07477 9.87326 4.49067C9.85041 5.10186 9.53697 5.66759 9.00728 5.9734C8.47761 6.2792 7.83096 6.26778 7.29022 5.98198C6.92227 5.7875 6.65548 5.67935 6.39238 5.64472C5.81603 5.56884 5.23314 5.72502 4.77195 6.07891C4.42605 6.34432 4.17073 6.78655 3.66009 7.671C3.14945 8.55547 2.89413 8.99769 2.83722 9.42996C2.76135 10.0063 2.91753 10.5892 3.27142 11.0504C3.43294 11.2609 3.65995 11.4378 4.01228 11.6592C4.53023 11.9847 4.86349 12.5391 4.86346 13.1508C4.86343 13.7624 4.53018 14.3167 4.01227 14.6421C3.6599 14.8636 3.43285 15.0406 3.27131 15.2511C2.91742 15.7123 2.76124 16.2951 2.83712 16.8715C2.89402 17.3037 3.14934 17.746 3.65998 18.6304C4.17063 19.5149 4.42595 19.9572 4.77184 20.2225C5.23303 20.5764 5.81592 20.7325 6.39227 20.6567C6.65535 20.6221 6.92213 20.5139 7.29006 20.3195C7.83083 20.0337 8.47753 20.0223 9.00724 20.328C9.53695 20.6339 9.85041 21.1996 9.87326 21.8109C9.88882 22.2267 9.92856 22.5119 10.0301 22.7571C10.2526 23.2941 10.6793 23.7208 11.2163 23.9433C11.6192 24.1101 12.1298 24.1101 13.1511 24.1101C14.1724 24.1101 14.683 24.1101 15.0858 23.9433C15.6228 23.7208 16.0496 23.2941 16.272 22.7571C16.3736 22.5119 16.4133 22.2267 16.4289 21.8108C16.4517 21.1996 16.7651 20.6339 17.2948 20.328C17.8245 20.0222 18.4712 20.0337 19.012 20.3195C19.3799 20.5139 19.6467 20.622 19.9097 20.6566C20.4861 20.7325 21.069 20.5764 21.5302 20.2225C21.876 19.9571 22.1314 19.5149 22.642 18.6303C23.1527 17.7459 23.408 17.3037 23.4649 16.8715C23.5408 16.2951 23.3846 15.7122 23.0307 15.251C22.8692 15.0405 22.6421 14.8635 22.2898 14.6421C21.7719 14.3167 21.4386 13.7623 21.4386 13.1506C21.4386 12.539 21.7719 11.9848 22.2898 11.6594C22.6422 11.4379 22.8693 11.261 23.0308 11.0504C23.3847 10.5893 23.5409 10.0064 23.465 9.43002C23.4082 8.99777 23.1528 8.55553 22.6421 7.67108C22.1315 6.78663 21.8761 6.3444 21.5303 6.07898C21.0691 5.7251 20.4862 5.56891 19.9098 5.6448C19.6468 5.67943 19.38 5.78756 19.012 5.98203C18.4713 6.26784 17.8246 6.27927 17.2949 5.97343C16.7651 5.66761 16.4517 5.10184 16.4289 4.49061C16.4133 4.07475 16.3736 3.78964 16.272 3.54448C16.0496 3.00742 15.6228 2.58072 15.0858 2.35825Z" stroke="#808080" stroke-width="1.6439"/>
</svg>
