<svg width="17" height="13" viewBox="0 0 17 13" fill="none" xmlns="http://www.w3.org/2000/svg">
<g clip-path="url(#clip0_381_923)">
<path d="M2.61894 9.64344C2.71772 9.54433 2.85183 9.48852 2.99176 9.48828H15.8564C15.9085 9.48821 15.9596 9.50362 16.0029 9.53257C16.0463 9.56153 16.0801 9.60271 16.1001 9.65091C16.12 9.6991 16.1252 9.75213 16.115 9.80328C16.1048 9.85443 16.0796 9.90139 16.0426 9.9382L13.5014 12.4794C13.4525 12.5283 13.3943 12.5671 13.3304 12.5936C13.2664 12.62 13.1978 12.6336 13.1286 12.6336H0.263992C0.212195 12.6333 0.16164 12.6177 0.118638 12.5888C0.0756354 12.56 0.0420902 12.5191 0.0221897 12.4712C0.00228924 12.4234 -0.00308499 12.3708 0.00673789 12.3199C0.0165608 12.2691 0.0411456 12.2222 0.0774236 12.1853L2.61894 9.64344Z" fill="url(#paint0_linear_381_923)"/>
<path d="M2.61894 0.153887C2.71878 0.0565352 2.85231 0.00141863 2.99176 2.77987e-07H15.8564C15.9085 -7.54933e-05 15.9596 0.0153401 16.0029 0.0442924C16.0463 0.0732446 16.0801 0.114429 16.1001 0.162624C16.12 0.210819 16.1252 0.263853 16.115 0.315001C16.1048 0.366149 16.0796 0.413107 16.0426 0.449921L13.5014 2.99112C13.4525 3.04005 13.3943 3.07885 13.3304 3.10531C13.2664 3.13177 13.1978 3.14536 13.1286 3.14532H0.263992C0.212195 3.145 0.16164 3.12943 0.118638 3.10056C0.0756354 3.07168 0.0420902 3.03078 0.0221897 2.98296C0.00228924 2.93514 -0.00308499 2.88251 0.00673789 2.83165C0.0165608 2.7808 0.0411456 2.73396 0.0774236 2.69699L2.61894 0.153887Z" fill="url(#paint1_linear_381_923)"/>
<path d="M13.502 4.86709C13.4531 4.81817 13.3949 4.77936 13.331 4.75291C13.267 4.72645 13.1984 4.71285 13.1292 4.71289H0.26458C0.21246 4.7129 0.161513 4.72836 0.118174 4.75732C0.074836 4.78627 0.0410508 4.82742 0.0210866 4.87556C0.00112234 4.92371 -0.00412528 4.97669 0.00600661 5.02782C0.0161385 5.07894 0.0411953 5.12592 0.0780119 5.16281L2.61953 7.70401C2.66849 7.75295 2.72661 7.79176 2.79059 7.81822C2.85456 7.84468 2.92312 7.85827 2.99235 7.85821H15.857C15.9091 7.85829 15.9601 7.84287 16.0035 7.81392C16.0469 7.78497 16.0807 7.74378 16.1007 7.69559C16.1206 7.64739 16.1258 7.59436 16.1156 7.54321C16.1054 7.49206 16.0802 7.44511 16.0432 7.40829L13.502 4.86709Z" fill="url(#paint2_linear_381_923)"/>
</g>
<defs>
<linearGradient id="paint0_linear_381_923" x1="14.6275" y1="-1.5167" x2="5.72396" y2="15.5365" gradientUnits="userSpaceOnUse">
<stop stop-color="#00FFA3"/>
<stop offset="1" stop-color="#DC1FFF"/>
</linearGradient>
<linearGradient id="paint1_linear_381_923" x1="10.7346" y1="-3.5505" x2="1.83142" y2="13.503" gradientUnits="userSpaceOnUse">
<stop stop-color="#00FFA3"/>
<stop offset="1" stop-color="#DC1FFF"/>
</linearGradient>
<linearGradient id="paint2_linear_381_923" x1="12.6691" y1="-2.54169" x2="3.76591" y2="14.5118" gradientUnits="userSpaceOnUse">
<stop stop-color="#00FFA3"/>
<stop offset="1" stop-color="#DC1FFF"/>
</linearGradient>
<clipPath id="clip0_381_923">
<rect width="16.1207" height="12.6336" fill="white"/>
</clipPath>
</defs>
</svg>
