<svg width="13" height="17" viewBox="0 0 13 17" fill="none" xmlns="http://www.w3.org/2000/svg">
<path d="M6.74995 6.33195C6.86147 5.99739 7.33392 5.99739 7.44544 6.33195L8.09937 8.29577C8.24331 8.72746 8.48582 9.1197 8.80768 9.44139C9.12954 9.76307 9.52191 10.0054 9.95369 10.1491L11.9165 10.803C12.2511 10.9145 12.2511 11.387 11.9165 11.4985L9.95267 12.1524C9.52098 12.2964 9.12874 12.5389 8.80705 12.8607C8.48537 13.1826 8.24307 13.575 8.09937 14.0067L7.44544 15.9695C7.4214 16.0428 7.37483 16.1066 7.31238 16.1518C7.24994 16.1971 7.1748 16.2214 7.09769 16.2214C7.02059 16.2214 6.94545 16.1971 6.883 16.1518C6.82056 16.1066 6.77399 16.0428 6.74995 15.9695L6.09602 14.0057C5.95218 13.5741 5.70983 13.182 5.38815 12.8603C5.06647 12.5386 4.6743 12.2963 4.24271 12.1524L2.2789 11.4985C2.20564 11.4745 2.14184 11.4279 2.09661 11.3654C2.05138 11.303 2.02703 11.2279 2.02703 11.1507C2.02703 11.0736 2.05138 10.9985 2.09661 10.9361C2.14184 10.8736 2.20564 10.827 2.2789 10.803L4.24271 10.1491C4.6743 10.0052 5.06647 9.76288 5.38815 9.4412C5.70983 9.11952 5.95218 8.72735 6.09602 8.29577L6.74995 6.33195ZM2.83347 1.16237C2.84801 1.11847 2.87602 1.08026 2.91351 1.05318C2.951 1.0261 2.99608 1.01153 3.04232 1.01153C3.08857 1.01153 3.13365 1.0261 3.17114 1.05318C3.20863 1.08026 3.23664 1.11847 3.25118 1.16237L3.64353 2.34046C3.81893 2.86563 4.23055 3.27725 4.75572 3.45264L5.9338 3.845C5.97771 3.85954 6.01591 3.88754 6.04299 3.92504C6.07007 3.96253 6.08465 4.0076 6.08465 4.05385C6.08465 4.1001 6.07007 4.14517 6.04299 4.18267C6.01591 4.22016 5.97771 4.24816 5.9338 4.2627L4.75572 4.65506C4.49671 4.74135 4.26135 4.88679 4.06831 5.07983C3.87526 5.27288 3.72983 5.50823 3.64353 5.76724L3.25118 6.94533C3.23664 6.98923 3.20863 7.02744 3.17114 7.05452C3.13365 7.0816 3.08857 7.09618 3.04232 7.09618C2.99608 7.09618 2.951 7.0816 2.91351 7.05452C2.87602 7.02744 2.84801 6.98923 2.83347 6.94533L2.44112 5.76724C2.35482 5.50823 2.20939 5.27288 2.01634 5.07983C1.8233 4.88679 1.58794 4.74135 1.32893 4.65506L0.150847 4.2627C0.106942 4.24816 0.0687349 4.22016 0.0416551 4.18267C0.0145754 4.14517 0 4.1001 0 4.05385C0 4.0076 0.0145754 3.96253 0.0416551 3.92504C0.0687349 3.88754 0.106942 3.85954 0.150847 3.845L1.32893 3.45264C1.58794 3.36635 1.8233 3.22092 2.01634 3.02787C2.20939 2.83482 2.35482 2.59947 2.44112 2.34046L2.83347 1.16237ZM10.0003 0.0988523C10.0103 0.0699845 10.0291 0.0449523 10.054 0.0272361C10.0789 0.00951989 10.1087 0 10.1392 0C10.1698 0 10.1996 0.00951989 10.2245 0.0272361C10.2494 0.0449523 10.2681 0.0699845 10.2781 0.0988523L10.5397 0.883566C10.6563 1.23436 10.931 1.50911 11.2818 1.6257L12.0665 1.88727C12.0954 1.89728 12.1204 1.91603 12.1382 1.94093C12.1559 1.96582 12.1654 1.99561 12.1654 2.02617C12.1654 2.05672 12.1559 2.08651 12.1382 2.11141C12.1204 2.1363 12.0954 2.15505 12.0665 2.16506L11.2818 2.42663C11.1089 2.48414 10.9519 2.58116 10.823 2.70999C10.6942 2.83881 10.5972 2.99589 10.5397 3.16877L10.2781 3.95348C10.2681 3.98235 10.2494 4.00738 10.2245 4.0251C10.1996 4.04281 10.1698 4.05233 10.1392 4.05233C10.1087 4.05233 10.0789 4.04281 10.054 4.0251C10.0291 4.00738 10.0103 3.98235 10.0003 3.95348L9.73875 3.16877C9.68124 2.99589 9.58423 2.83881 9.4554 2.70999C9.32658 2.58116 9.16949 2.48414 8.99662 2.42663L8.21292 2.16506C8.18405 2.15505 8.15902 2.1363 8.1413 2.11141C8.12359 2.08651 8.11407 2.05672 8.11407 2.02617C8.11407 1.99561 8.12359 1.96582 8.1413 1.94093C8.15902 1.91603 8.18405 1.89728 8.21292 1.88727L8.99763 1.6257C9.34842 1.50911 9.62317 1.23436 9.73977 0.883566L10.0003 0.0998661V0.0988523Z" fill="white"/>
</svg>
