<svg width="25" height="25" viewBox="0 0 25 25" fill="none" xmlns="http://www.w3.org/2000/svg">
<rect width="25" height="25" rx="12.5" fill="#FF6421"/>
<g clip-path="url(#clip0_323_1206)">
<path d="M12.2216 11.0742C12.311 10.8061 12.6896 10.8061 12.779 11.0742L13.303 12.6479C13.4183 12.9938 13.6127 13.3081 13.8706 13.5659C14.1285 13.8237 14.443 14.0179 14.789 14.133L16.3619 14.6571C16.63 14.7464 16.63 15.125 16.3619 15.2144L14.7882 15.7385C14.4422 15.8538 14.1279 16.0481 13.8701 16.3061C13.6123 16.564 13.4182 16.8784 13.303 17.2244L12.779 18.7973C12.7597 18.856 12.7224 18.9072 12.6723 18.9434C12.6223 18.9797 12.5621 18.9992 12.5003 18.9992C12.4385 18.9992 12.3783 18.9797 12.3283 18.9434C12.2782 18.9072 12.2409 18.856 12.2216 18.7973L11.6976 17.2236C11.5823 16.8778 11.3881 16.5635 11.1303 16.3057C10.8726 16.0479 10.5583 15.8537 10.2124 15.7385L8.63872 15.2144C8.58001 15.1952 8.52888 15.1578 8.49264 15.1078C8.45639 15.0577 8.43688 14.9975 8.43688 14.9357C8.43688 14.874 8.45639 14.8137 8.49264 14.7637C8.52888 14.7137 8.58001 14.6763 8.63872 14.6571L10.2124 14.133C10.5583 14.0178 10.8726 13.8236 11.1303 13.5658C11.3881 13.308 11.5823 12.9937 11.6976 12.6479L12.2216 11.0742ZM9.08313 6.93148C9.09478 6.89629 9.11722 6.86568 9.14727 6.84398C9.17731 6.82228 9.21343 6.8106 9.25049 6.8106C9.28756 6.8106 9.32368 6.82228 9.35372 6.84398C9.38377 6.86568 9.40621 6.89629 9.41786 6.93148L9.73228 7.87555C9.87283 8.2964 10.2027 8.62625 10.6235 8.76681L11.5676 9.08122C11.6028 9.09287 11.6334 9.11532 11.6551 9.14536C11.6768 9.17541 11.6885 9.21153 11.6885 9.24859C11.6885 9.28565 11.6768 9.32177 11.6551 9.35182C11.6334 9.38186 11.6028 9.4043 11.5676 9.41595L10.6235 9.73037C10.416 9.79953 10.2274 9.91607 10.0727 10.0708C9.91797 10.2255 9.80143 10.4141 9.73228 10.6216L9.41786 11.5657C9.40621 11.6009 9.38377 11.6315 9.35372 11.6532C9.32368 11.6749 9.28756 11.6866 9.25049 11.6866C9.21343 11.6866 9.17731 11.6749 9.14727 11.6532C9.11722 11.6315 9.09478 11.6009 9.08313 11.5657L8.76871 10.6216C8.69956 10.4141 8.58301 10.2255 8.42831 10.0708C8.27361 9.91607 8.08501 9.79953 7.87745 9.73037L6.93338 9.41595C6.8982 9.4043 6.86758 9.38186 6.84588 9.35182C6.82418 9.32177 6.8125 9.28565 6.8125 9.24859C6.8125 9.21153 6.82418 9.17541 6.84588 9.14536C6.86758 9.11532 6.8982 9.09287 6.93338 9.08122L7.87745 8.76681C8.08501 8.69765 8.27361 8.58111 8.42831 8.42641C8.58301 8.27171 8.69956 8.08311 8.76871 7.87555L9.08313 6.93148ZM14.8263 6.07922C14.8344 6.05608 14.8494 6.03602 14.8693 6.02183C14.8893 6.00763 14.9132 6 14.9377 6C14.9621 6 14.986 6.00763 15.006 6.02183C15.0259 6.03602 15.0409 6.05608 15.049 6.07922L15.2586 6.70805C15.352 6.98916 15.5722 7.20934 15.8533 7.30277L16.4821 7.51238C16.5053 7.5204 16.5253 7.53543 16.5395 7.55538C16.5537 7.57533 16.5613 7.5992 16.5613 7.62369C16.5613 7.64817 16.5537 7.67205 16.5395 7.69199C16.5253 7.71194 16.5053 7.72697 16.4821 7.73499L15.8533 7.9446C15.7148 7.99069 15.5889 8.06844 15.4856 8.17167C15.3824 8.27491 15.3047 8.40079 15.2586 8.53932L15.049 9.16816C15.0409 9.19129 15.0259 9.21135 15.006 9.22555C14.986 9.23974 14.9621 9.24737 14.9377 9.24737C14.9132 9.24737 14.8893 9.23974 14.8693 9.22555C14.8494 9.21135 14.8344 9.19129 14.8263 9.16816L14.6167 8.53932C14.5706 8.40079 14.4929 8.27491 14.3897 8.17167C14.2864 8.06844 14.1606 7.99069 14.022 7.9446L13.394 7.73499C13.3709 7.72697 13.3508 7.71194 13.3366 7.69199C13.3224 7.67205 13.3148 7.64817 13.3148 7.62369C13.3148 7.5992 13.3224 7.57533 13.3366 7.55538C13.3508 7.53543 13.3709 7.5204 13.394 7.51238L14.0228 7.30277C14.3039 7.20934 14.5241 6.98916 14.6175 6.70805L14.8263 6.08003V6.07922Z" fill="white"/>
</g>
<defs>
<clipPath id="clip0_323_1206">
<rect width="12.9992" height="12.9992" fill="white" transform="translate(6 6)"/>
</clipPath>
</defs>
</svg>
