<svg width="13" height="17" viewBox="0 0 13 17" fill="none" xmlns="http://www.w3.org/2000/svg">
<path d="M6.72349 6.30714C6.83458 5.97388 7.30518 5.97388 7.41627 6.30714L8.06763 8.26326C8.211 8.69326 8.45256 9.08396 8.77317 9.40439C9.09377 9.72481 9.4846 9.96616 9.91468 10.1093L11.8698 10.7607C12.203 10.8717 12.203 11.3423 11.8698 11.4534L9.91367 12.1048C9.48367 12.2482 9.09297 12.4897 8.77254 12.8103C8.45212 13.1309 8.21077 13.5218 8.06763 13.9519L7.41627 15.907C7.39232 15.9799 7.34593 16.0435 7.28373 16.0885C7.22153 16.1336 7.14668 16.1578 7.06988 16.1578C6.99308 16.1578 6.91823 16.1336 6.85603 16.0885C6.79383 16.0435 6.74744 15.9799 6.72349 15.907L6.07213 13.9508C5.92886 13.5209 5.68745 13.1303 5.36703 12.8099C5.04661 12.4895 4.65598 12.2481 4.22609 12.1048L2.26997 11.4534C2.197 11.4295 2.13345 11.3831 2.0884 11.3209C2.04335 11.2587 2.01909 11.1839 2.01909 11.107C2.01909 11.0302 2.04335 10.9554 2.0884 10.8932C2.13345 10.831 2.197 10.7846 2.26997 10.7607L4.22609 10.1093C4.65598 9.96603 5.04661 9.72462 5.36703 9.4042C5.68745 9.08378 5.92886 8.69315 6.07213 8.26326L6.72349 6.30714ZM2.82237 1.15782C2.83685 1.11408 2.86475 1.07603 2.90209 1.04905C2.93944 1.02208 2.98433 1.00756 3.0304 1.00756C3.07647 1.00756 3.12137 1.02208 3.15871 1.04905C3.19606 1.07603 3.22395 1.11408 3.23844 1.15782L3.62925 2.33129C3.80396 2.8544 4.21397 3.26441 4.73708 3.43911L5.91055 3.82993C5.95428 3.84441 5.99234 3.87231 6.01931 3.90965C6.04629 3.947 6.06081 3.9919 6.06081 4.03796C6.06081 4.08403 6.04629 4.12893 6.01931 4.16628C5.99234 4.20362 5.95428 4.23152 5.91055 4.246L4.73708 4.63682C4.47909 4.72277 4.24465 4.86764 4.05236 5.05993C3.86007 5.25222 3.71521 5.48665 3.62925 5.74464L3.23844 6.91811C3.22395 6.96184 3.19606 6.9999 3.15871 7.02688C3.12137 7.05385 3.07647 7.06837 3.0304 7.06837C2.98433 7.06837 2.93944 7.05385 2.90209 7.02688C2.86475 6.9999 2.83685 6.96184 2.82237 6.91811L2.43155 5.74464C2.34559 5.48665 2.20073 5.25222 2.00844 5.05993C1.81615 4.86764 1.58172 4.72277 1.32372 4.63682L0.150255 4.246C0.106523 4.23152 0.0684655 4.20362 0.0414919 4.16628C0.0145182 4.12893 0 4.08403 0 4.03796C0 3.9919 0.0145182 3.947 0.0414919 3.90965C0.0684655 3.87231 0.106523 3.84441 0.150255 3.82993L1.32372 3.43911C1.58172 3.35316 1.81615 3.20829 2.00844 3.016C2.20073 2.82371 2.34559 2.58928 2.43155 2.33129L2.82237 1.15782ZM9.96113 0.0984649C9.9711 0.0697102 9.98979 0.0447761 10.0146 0.0271294C10.0394 0.00948258 10.0691 0 10.0995 0C10.1299 0 10.1596 0.00948258 10.1844 0.0271294C10.2092 0.0447761 10.2279 0.0697102 10.2378 0.0984649L10.4984 0.880104C10.6145 1.22952 10.8882 1.50319 11.2376 1.61933L12.0192 1.87987C12.048 1.88984 12.0729 1.90852 12.0906 1.93332C12.1082 1.95811 12.1177 1.98779 12.1177 2.01823C12.1177 2.04866 12.1082 2.07834 12.0906 2.10313C12.0729 2.12793 12.048 2.14661 12.0192 2.15658L11.2376 2.41712C11.0654 2.47441 10.9089 2.57105 10.7806 2.69937C10.6523 2.82769 10.5557 2.98415 10.4984 3.15635L10.2378 3.93799C10.2279 3.96674 10.2092 3.99168 10.1844 4.00932C10.1596 4.02697 10.1299 4.03645 10.0995 4.03645C10.0691 4.03645 10.0394 4.02697 10.0146 4.00932C9.98979 3.99168 9.9711 3.96674 9.96113 3.93799L9.70059 3.15635C9.6433 2.98415 9.54667 2.82769 9.41835 2.69937C9.29003 2.57105 9.13356 2.47441 8.96136 2.41712L8.18074 2.15658C8.15198 2.14661 8.12705 2.12793 8.1094 2.10313C8.09175 2.07834 8.08227 2.04866 8.08227 2.01823C8.08227 1.98779 8.09175 1.95811 8.1094 1.93332C8.12705 1.90852 8.15198 1.88984 8.18074 1.87987L8.96237 1.61933C9.31179 1.50319 9.58546 1.22952 9.7016 0.880104L9.96113 0.0994748V0.0984649Z" fill="url(#paint0_linear_1_5432)"/>
<defs>
<linearGradient id="paint0_linear_1_5432" x1="6.05987" y1="0" x2="6.05987" y2="16.1578" gradientUnits="userSpaceOnUse">
<stop stop-color="#FFE1CB"/>
<stop offset="1" stop-color="#FF9345"/>
</linearGradient>
</defs>
</svg>
