<svg width="20" height="20" viewBox="0 0 20 20" fill="none" xmlns="http://www.w3.org/2000/svg">
<path d="M9.85742 0.225586C15.1724 0.225586 19.4873 4.54051 19.4873 9.85547C19.4872 15.1703 15.1724 19.4873 9.85742 19.4873C4.5427 19.4871 0.225702 15.1702 0.225586 9.85547C0.225586 4.54055 4.54271 0.225783 9.85742 0.225586ZM9.85742 1.3252C5.14185 1.32539 1.3252 5.14002 1.3252 9.85547C1.32531 14.5709 5.14203 18.3875 9.85742 18.3877C14.5729 18.3877 18.3876 14.5711 18.3877 9.85547C18.3877 5.13984 14.5731 1.3252 9.85742 1.3252ZM13.9844 6.15332C14.1297 6.14264 14.2735 6.18998 14.3838 6.28516C14.4941 6.38039 14.5626 6.51582 14.5732 6.66113C14.5838 6.80605 14.5352 6.94845 14.4404 7.05859L14.4414 7.05957L9.00586 13.3711C8.95618 13.4288 8.8949 13.4759 8.82617 13.5088C8.75745 13.5416 8.68255 13.5591 8.60645 13.5615C8.53011 13.5638 8.45361 13.5502 8.38281 13.5215C8.31225 13.4929 8.24838 13.4501 8.19531 13.3955H8.19434L5.29395 10.4023L5.29297 10.4014C5.19238 10.2969 5.13744 10.1567 5.13965 10.0117C5.14191 9.8667 5.20092 9.72828 5.30469 9.62695H5.30566C5.35756 9.57648 5.41904 9.53646 5.48633 9.50977C5.55345 9.4832 5.62509 9.46955 5.69727 9.4707C5.76968 9.4719 5.8418 9.48769 5.9082 9.5166C5.9742 9.54537 6.03398 9.58688 6.08398 9.63867L8.56445 12.1973L13.6084 6.3418H13.6094C13.7045 6.23176 13.8393 6.16405 13.9844 6.15332Z" fill="#808080" stroke="#808080" stroke-width="0.450412"/>
</svg>
