<svg width="197" height="197" viewBox="0 0 197 197" fill="none" xmlns="http://www.w3.org/2000/svg">
<rect x="0.5" y="0.5" width="196" height="196" rx="56.5" stroke="white" stroke-opacity="0.46"/>
<rect x="37.7812" y="37.7808" width="121.438" height="121.438" rx="60.7192" fill="url(#paint0_linear_477_952)"/>
<path d="M79.0358 92.5101C80.3516 92.4889 81.4002 93.0608 82.3048 94.0139C85.1214 96.9368 87.9792 99.8386 90.7753 102.783C91.4332 103.482 91.8033 103.46 92.4818 102.783C100.726 94.2469 108.991 85.7535 117.236 77.2389C118.243 76.1799 119.374 75.5021 120.854 75.5656C123.28 75.6504 126.837 79.3781 126.837 81.8563C126.837 83.233 126.22 84.3344 125.274 85.3087C120.566 90.1379 115.879 94.9882 111.191 99.8386C105.475 105.727 99.7599 111.615 94.0443 117.503C92.4407 119.155 90.8576 119.155 89.2334 117.482C84.2991 112.399 79.3442 107.315 74.4305 102.19C72.2717 99.9445 72.3745 97.5723 74.5538 95.3483C75.1089 94.7764 75.664 94.1834 76.2397 93.6327C77.021 92.8913 77.9667 92.4889 79.0358 92.5101Z" fill="white"/>
<path d="M120.833 76.0654H120.837C121.328 76.0827 121.923 76.2893 122.558 76.666C123.187 77.0392 123.824 77.5599 124.394 78.1582C124.963 78.7565 125.455 79.4211 125.802 80.0742C126.152 80.7332 126.337 81.3484 126.337 81.8564C126.337 82.987 125.868 83.9219 125.078 84.7881L124.916 84.96C120.207 89.7897 115.519 94.6404 110.832 99.4902C105.116 105.378 99.4011 111.267 93.6855 117.155C92.9354 117.928 92.2605 118.241 91.6484 118.239C91.0354 118.237 90.3535 117.918 89.5918 117.134C84.6566 112.049 79.7033 106.968 74.791 101.844V101.843L74.6074 101.646C73.7223 100.658 73.3427 99.6932 73.3652 98.7734C73.3894 97.7879 73.8778 96.7528 74.9111 95.6982L74.9121 95.6963C75.4754 95.116 76.0177 94.5369 76.584 93.9951C77.2791 93.3357 78.101 92.9914 79.0264 93.0098H79.0439C80.1852 92.9914 81.1074 93.4786 81.9424 94.3584L81.9443 94.3613C84.7661 97.2895 87.6166 100.182 90.4111 103.124V103.125C90.746 103.481 91.135 103.804 91.626 103.799C92.1057 103.794 92.4962 103.475 92.835 103.137L92.8418 103.13C101.086 94.5942 109.349 86.1029 117.595 77.5869L117.598 77.584C118.547 76.586 119.548 76.0103 120.833 76.0654Z" stroke="white" stroke-opacity="0.46"/>
<defs>
<linearGradient id="paint0_linear_477_952" x1="98.5004" y1="37.7808" x2="98.5004" y2="159.219" gradientUnits="userSpaceOnUse">
<stop stop-color="#FE1901"/>
<stop offset="1" stop-color="#FF9E05"/>
</linearGradient>
</defs>
</svg>
