<svg width="33" height="33" viewBox="0 0 33 33" fill="none" xmlns="http://www.w3.org/2000/svg">
<path d="M16.0204 0C7.17315 0 0 7.17315 0 16.0204C0 24.8677 7.17315 32.0409 16.0204 32.0409C24.8677 32.0409 32.0409 24.8677 32.0409 16.0204C32.0409 7.17315 24.8677 0 16.0204 0ZM23.8891 10.9753L21.2591 23.3645C21.0655 24.2429 20.5422 24.4565 19.8119 24.0427L15.8068 21.0922L13.8764 22.9533C13.6895 23.1936 13.3998 23.3471 13.0753 23.3471C13.0727 23.3471 13.0713 23.3471 13.0687 23.3471L13.353 19.2699L20.7758 12.5654C21.0962 12.281 20.7038 12.1195 20.2779 12.4038L11.1075 18.1792L7.1558 16.9456C6.30137 16.6746 6.27734 16.0912 7.33603 15.672L22.7771 9.7204C23.4953 9.45873 24.1201 9.89129 23.8878 10.9767L23.8891 10.9753Z" fill="white"/>
</svg>
