<svg width="28" height="28" viewBox="0 0 28 28" fill="none" xmlns="http://www.w3.org/2000/svg">
<path d="M10.6068 0.341574C8.11525 0.934795 6.21695 2.05005 4.15254 4.11446C1.30508 6.96191 0 10.0229 0 13.9619C0 17.9009 1.30508 20.9619 4.15254 23.8094C7 26.6568 10.061 27.9619 14 27.9619C17.939 27.9619 21 26.6568 23.8475 23.8094C26.7186 20.9382 28 17.9009 28 13.9619C28 7.5314 23.4915 1.78903 17.2746 0.317846C15.4237 -0.109272 12.4339 -0.109272 10.6068 0.341574ZM17.0847 3.21276C18.9593 3.73479 20.0746 4.37547 21.4983 5.70429C23.9898 8.05344 25.1525 10.6873 25.1525 13.9382C25.1525 16.9992 24.2271 19.3721 22.1153 21.6026C18.5797 25.3755 12.9322 26.2297 8.4 23.667C6.97627 22.8602 4.76949 20.606 4.08136 19.3009C2.44407 16.0263 2.44407 11.8975 4.08136 8.62293C4.69831 7.41276 6.97627 5.06361 8.18644 4.32802C10.939 2.71446 13.9288 2.33479 17.0847 3.21276Z" fill="#FFA200"/>
<path d="M13.0517 5.4199C12.6009 5.87075 12.5771 6.20295 12.5771 10.2131V14.5318L14.9026 16.8572C17.3704 19.325 17.8924 19.5623 18.7466 18.708C19.5534 17.9013 19.3399 17.3318 17.3229 15.2911L15.4246 13.3453V9.6199C15.4246 6.20295 15.3771 5.84702 14.95 5.4199C14.689 5.15889 14.2619 4.94533 14.0009 4.94533C13.7399 4.94533 13.3127 5.15889 13.0517 5.4199Z" fill="#FFA200"/>
</svg>
