<svg width="20" height="23" viewBox="0 0 20 23" fill="none" xmlns="http://www.w3.org/2000/svg">
<path d="M7.48741 0.0806503C6.40237 0.28653 5.42862 0.804008 4.6051 1.61083C3.8261 2.37314 3.39209 3.08537 3.06936 4.14259C2.9697 4.47479 2.91723 4.81936 2.91349 5.16618L2.89687 6.70772L2.88251 8.48349C2.88111 8.65652 2.771 8.80995 2.60752 8.86667C2.20133 9.01134 1.55031 9.46761 1.1775 9.86268C0.537606 10.5471 0.153669 11.3817 0.0423835 12.311C0.00899771 12.6226 -0.00769517 13.7299 0.00343342 15.1599C0.0201263 17.4468 0.0201263 17.5025 0.142541 17.725C0.303905 18.0311 0.576556 18.2981 0.85477 18.4206C1.12742 18.543 1.75062 18.5597 2.01771 18.4484C2.25697 18.3482 2.57414 18.07 2.72994 17.8141C2.85792 17.6082 2.85792 17.597 2.88574 15.0764C2.91356 12.8062 2.92469 12.5224 3.01372 12.3277C3.16952 11.9771 3.35314 11.7768 3.6703 11.5987C3.86736 11.4893 4.08907 11.4318 4.3145 11.4318H8.56132H12.7985C13.031 11.4318 13.2604 11.4851 13.469 11.5876C13.6415 11.6711 13.8474 11.8269 13.9309 11.9326C14.2425 12.3499 14.2369 12.2553 14.2369 15.6384C14.2369 17.8474 14.2202 18.8268 14.1701 18.977C14.0811 19.283 13.7639 19.6336 13.4356 19.7838C13.2488 19.8718 13.0448 19.9174 12.8382 19.9174H9.36258C5.09476 19.9174 5.18936 19.9118 4.74421 20.318C3.97078 21.0302 4.2323 22.3823 5.21718 22.7329C5.37298 22.7885 6.30778 22.8052 9.42378 22.8052C13.1908 22.8108 13.4579 22.8052 13.8752 22.7051C15.4833 22.3156 16.6741 21.1081 17.0524 19.4833C17.1192 19.1884 17.1303 18.5541 17.1192 15.5049L17.1043 12.2625C17.1031 12.0074 17.0573 11.7545 16.969 11.5153C16.4515 10.063 15.4054 9.06699 13.9754 8.66636C13.5525 8.54394 13.4523 8.54394 9.66305 8.52168L7.37611 8.51186C6.49304 8.50806 5.77917 7.79112 5.77917 6.90804C5.77917 5.70059 5.80143 5.23875 5.86264 5.01061C6.2577 3.53051 7.80457 2.59571 9.25686 2.97408C10.4587 3.29125 11.3991 4.44862 11.3991 5.61712C11.3991 6.48515 12.0001 7.13618 12.8124 7.14174C13.2854 7.1473 13.6248 7.00263 13.9197 6.67434C14.248 6.31266 14.3148 6.04557 14.2758 5.32222C14.1479 2.87393 12.4563 0.826265 10.008 0.15855C9.4516 0.0027504 8.11061 -0.0361996 7.48741 0.0806503Z" fill="white"/>
<path d="M17.9672 0.112732C17.6612 0.246275 16.0141 1.85992 15.8416 2.18821C15.7025 2.46086 15.6524 2.95052 15.7359 3.26212C15.9585 4.0912 16.9656 4.53078 17.7724 4.14685C18.1619 3.96322 19.809 2.28837 19.9203 1.97121C20.0204 1.65961 20.0149 1.18108 19.898 0.875041C19.7756 0.552312 19.3527 0.157247 19.0355 0.062654C18.7017 -0.0375032 18.251 -0.0152464 17.9672 0.112732Z" fill="white"/>
<path d="M16.7408 5.72507C16.1343 5.91425 15.6892 6.49294 15.6836 7.09945C15.6836 7.68926 15.9729 8.17336 16.4737 8.42375C16.7519 8.56286 16.7965 8.56842 17.7869 8.56842C19.0166 8.56842 19.1668 8.53503 19.5619 8.1511C19.7845 7.93409 19.8679 7.80611 19.9403 7.55015C20.1628 6.77672 19.7455 5.98102 18.9999 5.75845C18.6994 5.66942 17.0079 5.64717 16.7408 5.72507Z" fill="white"/>
<path d="M8.11438 12.8816C7.78052 12.9873 7.42997 13.2934 7.2686 13.6216C7.14062 13.8776 7.14062 13.911 7.14062 15.6916C7.14062 17.4499 7.14619 17.5055 7.26304 17.7281C7.55238 18.2678 7.97527 18.5238 8.57621 18.5294C9.02136 18.5294 9.24393 18.4459 9.54996 18.1677C10.0007 17.7615 10.0062 17.7337 10.0062 15.686V14.2011C10.0062 13.9884 9.95671 13.7785 9.86156 13.5883C9.5444 12.9484 8.83217 12.659 8.11438 12.8816Z" fill="white"/>
<path d="M1.00311 20.0006C0.496761 20.1564 0.140646 20.5738 0.0349244 21.1191C-0.0541043 21.6198 0.0738744 22.026 0.452246 22.3933C0.774975 22.7049 1.0365 22.8106 1.49833 22.8106C2.03807 22.8106 2.60006 22.4378 2.80594 21.9426C2.85046 21.8369 2.88384 21.5865 2.88384 21.375C2.88384 20.3568 1.98243 19.6946 1.00311 20.0006Z" fill="white"/>
</svg>
