<svg width="26" height="26" viewBox="0 0 26 26" fill="none" xmlns="http://www.w3.org/2000/svg">
<path fill-rule="evenodd" clip-rule="evenodd" d="M12.7671 0C19.7904 0 25.5341 5.73514 25.5341 12.748C25.5341 19.761 19.7904 25.4961 12.7671 25.4961C5.74369 25.4961 0 19.761 0 12.748C0 5.73514 5.74369 0 12.7671 0ZM16.7897 8.67611L11.109 15.0996L8.70288 12.7502C7.93459 12.0022 6.79439 13.1684 7.56481 13.9185L10.5825 16.8658L10.5835 16.8647C10.916 17.1882 11.4552 17.168 11.7621 16.8211L18.0107 9.75587C18.7215 8.95148 17.5015 7.87382 16.7897 8.67611ZM12.7671 1.63433C6.64718 1.63433 1.63677 6.63729 1.63677 12.748C1.63677 18.8588 6.64718 23.8618 12.7671 23.8618C18.8869 23.8618 23.8974 18.8588 23.8974 12.748C23.8974 6.63729 18.8869 1.63433 12.7671 1.63433Z" fill="#3EDD87"/>
</svg>
