<svg width="19" height="27" viewBox="0 0 19 27" fill="none" xmlns="http://www.w3.org/2000/svg">
<path d="M0.171871 14.9126C0.401878 13.3326 0.947468 11.867 1.89638 10.2581C1.95416 10.9192 1.95416 11.2926 2.01083 11.6659C2.15417 12.6137 2.98754 13.2748 3.96425 13.246C4.94095 13.2171 5.63099 12.4993 5.65986 11.4648C5.68875 11.1203 5.63097 10.747 5.60208 10.4014C5.3143 5.63109 7.26882 2.21221 11.8078 0C11.0611 2.29897 11.3477 4.3957 12.4689 6.29245C13.1589 7.52807 13.9634 8.67698 14.7679 9.8271C15.6301 11.0627 16.6068 12.1261 17.3824 13.3893C20.0836 17.6707 18.6758 23.4753 14.3945 26.032C13.8489 26.3476 13.3022 26.6064 12.7567 26.8076C12.9289 26.6065 13.0722 26.3765 13.2167 26.1464C13.9345 24.9397 14.1645 23.6175 13.9345 22.2096C13.82 21.434 13.5611 20.6862 13.0722 19.8817C13.0433 20.1973 13.0433 20.3984 13.0145 20.5717C12.9278 21.0607 12.5255 21.3762 12.0377 21.3473C11.5488 21.3184 11.2044 20.974 11.2044 20.4562C11.1755 20.284 11.2333 20.1117 11.2333 19.9106C11.3766 17.5261 10.3999 15.8594 8.15858 14.7381C8.53193 15.887 8.38859 16.9215 7.84301 17.8705C7.49856 18.4738 7.09631 19.0483 6.69406 19.6228C6.26294 20.2262 5.77513 20.7717 5.40067 21.3751C4.42396 22.9552 4.53843 24.9373 5.54401 26.4031C3.99284 25.6275 2.61269 24.3919 1.66488 22.7251C0.171492 20.3717 -0.288528 17.6994 0.171494 14.9125L0.171871 14.9126Z" fill="#FF9041"/>
</svg>
