<svg width="25" height="25" viewBox="0 0 25 25" fill="none" xmlns="http://www.w3.org/2000/svg">
<path d="M9.35058 0.000467881C4.18479 0.000467881 0 4.163 0 9.29224C0 14.4255 4.18479 18.584 9.35058 18.584C11.1274 18.584 12.7917 18.0926 14.2068 17.2337C14.2912 17.4215 14.3958 17.6012 14.5365 17.761L19.9113 23.7931C20.2891 24.2205 20.8279 24.4482 21.3626 24.4482C21.8571 24.4482 22.3596 24.2524 22.7335 23.8769L24.0158 22.6025C24.3936 22.231 24.5907 21.7316 24.5907 21.2363C24.5907 20.705 24.3616 20.1736 23.9354 19.7941L17.8651 14.457C17.7043 14.3172 17.5234 14.2135 17.3386 14.1295C18.2029 12.7193 18.7013 11.0655 18.7013 9.29582C18.7013 4.15847 14.5124 0 9.35058 0V0.000467881ZM3.8712 14.7333C2.46826 13.3391 1.60394 11.4176 1.60394 9.29239C1.60394 7.16314 2.46826 5.24565 3.8712 3.85153C5.27414 2.45741 7.20785 1.59854 9.34649 1.59854C11.4892 1.59854 13.4189 2.45741 14.8218 3.85153C16.2247 5.24565 17.0892 7.1672 17.0892 9.29239C17.0892 11.3497 16.2772 13.2034 14.9586 14.5855L14.6772 14.8651C13.2863 16.1795 11.417 16.9864 9.34649 16.9864C7.20785 16.9903 5.27822 16.1275 3.8712 14.7333ZM16.4821 15.5402C16.6066 15.5402 16.7194 15.584 16.7957 15.6521L22.8621 20.9971C22.9464 21.0731 22.9788 21.1569 22.9788 21.2447C22.9788 21.3246 22.9506 21.4045 22.8783 21.4805L21.5959 22.7548C21.5194 22.8308 21.4431 22.8547 21.3627 22.8547C21.2743 22.8547 21.1939 22.8227 21.1135 22.7387L15.7387 16.7066C15.6704 16.6267 15.6261 16.5148 15.6261 16.395C15.6261 16.2672 15.6743 16.1473 15.7506 16.0674C15.8873 15.9396 16.024 15.8037 16.1527 15.668C16.2331 15.5881 16.3535 15.5402 16.4821 15.5402Z" fill="white"/>
</svg>
