<svg width="26" height="25" viewBox="0 0 26 25" fill="none" xmlns="http://www.w3.org/2000/svg">
<path d="M12.5181 0C5.6129 0 0 5.60483 0 12.4994C0 19.3943 5.61318 25 12.5181 25C19.4233 25 25.0373 19.3932 25.0373 12.4994C25.0373 5.60455 19.4221 0 12.5181 0ZM12.5181 1.47021C18.6274 1.47021 23.564 6.3994 23.564 12.4996C23.564 18.5999 18.6274 23.5291 12.5181 23.5291C6.40875 23.5291 1.47221 18.5999 1.47221 12.4996C1.47221 6.3994 6.40875 1.47021 12.5181 1.47021ZM7.28435 6.53576C7.08978 6.53467 6.90176 6.60998 6.76294 6.74751C6.62412 6.88503 6.54541 7.07277 6.54541 7.26814C6.54541 7.46461 6.62412 7.65125 6.76294 7.78987L11.4807 12.5006L6.76294 17.2124V17.2113C6.47765 17.4983 6.47765 17.9611 6.76294 18.2482C7.05041 18.5341 7.5139 18.5341 7.80137 18.2482L12.5202 13.5375L17.2379 18.2482H17.2368C17.3757 18.3868 17.5637 18.4654 17.7593 18.4654C17.955 18.4654 18.143 18.3868 18.2808 18.2482C18.5671 17.9611 18.5671 17.4983 18.2808 17.2113L13.5619 12.4995L18.2808 7.78878V7.78987C18.4207 7.65125 18.4983 7.4646 18.4983 7.26814C18.4983 7.07277 18.4207 6.88503 18.2808 6.74751C18.1419 6.60998 17.9539 6.53467 17.7593 6.53576C17.5637 6.53467 17.3757 6.60998 17.2368 6.74751L12.5191 11.4593L7.80028 6.74751H7.80137C7.66364 6.61216 7.47786 6.53576 7.28435 6.53576Z" fill="#FF4444"/>
</svg>
