<svg width="37" height="32" viewBox="0 0 37 32" fill="none" xmlns="http://www.w3.org/2000/svg">
<path d="M6.84776 0.460819C3.60822 1.3501 0.972124 4.17676 0.2734 7.47982C0.0510783 8.62319 -0.0442022 11.9898 0.0193181 16.9444C0.114599 23.9634 0.178119 24.7574 0.781563 26.0913C1.76613 28.1875 3.25886 29.712 5.29151 30.7283C6.48323 31.3137 7.79102 31.6245 9.1187 31.6379L16.5346 31.7128C24.3476 31.8081 26.3168 31.7446 27.9365 31.3C32.1289 30.2519 34.5426 27.2982 34.8285 22.947C34.9555 20.8509 35.0826 20.4697 35.813 19.8345C36.6071 19.1676 36.6388 18.977 36.6388 15.8963C36.6388 12.752 36.6071 12.6567 35.7813 11.9262C34.9873 11.2275 34.892 10.9417 34.892 9.09959C34.892 5.00253 32.1606 1.57243 28.0636 0.49258C25.5863 -0.142624 9.19801 -0.174385 6.84776 0.460819ZM27.4601 3.351C29.3022 3.89092 31.2078 5.60597 31.6842 7.13046C31.843 7.67038 32.0653 8.78199 32.1606 9.60775L32.3512 11.1322H30.3821C27.1425 11.1322 25.3004 12.8791 25.3004 15.9915C25.3322 18.8182 27.3648 20.6603 30.4773 20.6603H32.3512L32.1606 22.153C31.8748 24.5986 31.4619 25.5831 30.2233 26.8218C28.3176 28.7274 27.1108 28.9179 17.4557 28.9179C12.7869 28.9179 8.49929 28.7591 7.86408 28.6003C6.08551 28.0922 4.65631 26.9806 3.76702 25.4243C3.00478 24.0269 2.97302 23.8046 2.87773 16.6585C2.81421 12.1168 2.9095 8.81375 3.10006 8.0515C3.79878 5.54245 5.57735 3.76388 7.99112 3.19219C8.56281 3.03339 12.8187 2.93811 17.4557 2.90635C24.0618 2.87459 26.2215 2.96987 27.4601 3.351ZM33.9392 15.8963V17.8019H31.6525C29.1116 17.8019 28.2224 17.3255 28.2224 15.9598C28.2224 14.4671 29.0164 13.9907 31.6207 13.9907H33.9392V15.8963Z" fill="white"/>
<path d="M8.65809 9.98888C8.56281 10.243 8.53105 10.7829 8.59457 11.1958C8.64908 11.6136 9.0051 11.9263 9.42652 11.9263H14.8513C20.3776 11.9263 21.0446 11.8627 21.3622 11.3546C21.6162 10.9734 21.6162 10.6558 21.3622 10.243C21.0446 9.76656 20.3141 9.70304 14.9148 9.60776C9.83322 9.54424 8.81689 9.60776 8.65809 9.98888Z" fill="white"/>
</svg>
