<svg width="23" height="23" viewBox="0 0 23 23" fill="none" xmlns="http://www.w3.org/2000/svg">
<rect width="23" height="22.1154" rx="11.0577" fill="#FFE600"/>
<g clip-path="url(#clip0_1_1024)">
<path fill-rule="evenodd" clip-rule="evenodd" d="M11.9172 7.15788C12.0413 7.22884 12.1443 7.33175 12.2152 7.45593L15.641 13.451C15.8605 13.8351 15.727 14.3244 15.3429 14.5439C15.2219 14.6131 15.0849 14.6495 14.9455 14.6495H8.09398C7.65159 14.6495 7.29297 14.2908 7.29297 13.8484C7.29297 13.709 7.32935 13.5721 7.39851 13.451L10.8243 7.45593C11.0438 7.07184 11.5331 6.93839 11.9172 7.15788ZM11.4983 12.1586C11.2122 12.1586 10.9976 12.3701 10.9976 12.6521C10.9976 12.9468 11.2057 13.1583 11.4983 13.1583C11.7843 13.1583 11.9989 12.9468 11.9989 12.6585C11.9989 12.3701 11.7843 12.1586 11.4983 12.1586ZM11.8988 9.05472H11.0978V11.4577H11.8988V9.05472Z" fill="black"/>
</g>
<defs>
<clipPath id="clip0_1_1024">
<rect width="9.6121" height="9.6121" fill="white" transform="translate(6.69385 6.25165)"/>
</clipPath>
</defs>
</svg>
