<svg width="22" height="20" viewBox="0 0 22 20" fill="none" xmlns="http://www.w3.org/2000/svg">
<path fill-rule="evenodd" clip-rule="evenodd" d="M12.034 0.275011C12.3572 0.45968 12.6251 0.727512 12.8097 1.05068L21.725 16.6524C22.2962 17.652 21.9489 18.9253 20.9493 19.4965C20.6343 19.6765 20.2779 19.7712 19.9151 19.7712H2.08455C0.933287 19.7712 0 18.8379 0 17.6866C0 17.3239 0.0946707 16.9674 0.274654 16.6524L9.18992 1.05068C9.76111 0.0511023 11.0345 -0.296178 12.034 0.275011ZM10.9439 13.289C10.1994 13.289 9.64107 13.8394 9.64107 14.5731C9.64107 15.3402 10.1825 15.8906 10.9439 15.8906C11.6884 15.8906 12.2468 15.3402 12.2468 14.5898C12.2468 13.8394 11.6884 13.289 10.9439 13.289ZM11.9862 5.21139H9.90164V11.4651H11.9862V5.21139Z" fill="#FFE600"/>
</svg>
