<svg width="10" height="10" viewBox="0 0 10 10" fill="none" xmlns="http://www.w3.org/2000/svg">
<g clip-path="url(#clip0_1_1025)">
<path fill-rule="evenodd" clip-rule="evenodd" d="M5.22331 0.906228C5.34749 0.977189 5.45041 1.08011 5.52137 1.20429L8.94714 7.19938C9.16662 7.58348 9.03318 8.07278 8.64908 8.29226C8.52805 8.36142 8.39106 8.3978 8.25167 8.3978H1.40013C0.957745 8.3978 0.599121 8.03918 0.599121 7.59679C0.599121 7.4574 0.635499 7.32041 0.704659 7.19938L4.13043 1.20429C4.34991 0.820189 4.83921 0.686743 5.22331 0.906228ZM4.80442 5.90698C4.51834 5.90698 4.30378 6.11845 4.30378 6.4004C4.30378 6.69517 4.51184 6.90664 4.80442 6.90664C5.09049 6.90664 5.30505 6.69517 5.30505 6.40681C5.30505 6.11845 5.09049 5.90698 4.80442 5.90698ZM5.20492 2.80307H4.40391V5.2061H5.20492V2.80307Z" fill="black"/>
</g>
<defs>
<clipPath id="clip0_1_1025">
<rect width="9.6121" height="9.6121" fill="white"/>
</clipPath>
</defs>
</svg>
