<svg width="23" height="23" viewBox="0 0 23 23" fill="none" xmlns="http://www.w3.org/2000/svg">
<rect width="23" height="22.1154" rx="11.0577" fill="#FFE600"/>
<g clip-path="url(#clip0_323_1195)">
<path fill-rule="evenodd" clip-rule="evenodd" d="M11.9191 7.15841C12.0433 7.22937 12.1462 7.33229 12.2172 7.45647L15.6429 13.4516C15.8624 13.8357 15.729 14.325 15.3449 14.5444C15.2238 14.6136 15.0869 14.65 14.9475 14.65H8.09593C7.65355 14.65 7.29492 14.2914 7.29492 13.849C7.29492 13.7096 7.3313 13.5726 7.40046 13.4516L10.8262 7.45647C11.0457 7.07237 11.535 6.93893 11.9191 7.15841ZM11.5002 12.1592C11.2141 12.1592 10.9996 12.3706 10.9996 12.6526C10.9996 12.9474 11.2076 13.1588 11.5002 13.1588C11.7863 13.1588 12.0008 12.9474 12.0008 12.659C12.0008 12.3706 11.7863 12.1592 11.5002 12.1592ZM11.9007 9.05526H11.0997V11.4583H11.9007V9.05526Z" fill="black"/>
</g>
<defs>
<clipPath id="clip0_323_1195">
<rect width="9.6121" height="9.6121" fill="white" transform="translate(6.69434 6.25195)"/>
</clipPath>
</defs>
</svg>
