<svg width="16" height="14" viewBox="0 0 16 14" fill="none" xmlns="http://www.w3.org/2000/svg">
<path fill-rule="evenodd" clip-rule="evenodd" d="M8.48923 0.194002C8.7172 0.324274 8.90614 0.513211 9.03641 0.741187L15.3255 11.7472C15.7285 12.4523 15.4835 13.3506 14.7784 13.7535C14.5562 13.8805 14.3047 13.9473 14.0488 13.9473H1.47052C0.658372 13.9473 0 13.2889 0 12.4768C0 12.2208 0.0667839 11.9694 0.193751 11.7472L6.48288 0.741187C6.88582 0.0360493 7.78409 -0.208934 8.48923 0.194002ZM7.72021 9.37454C7.19502 9.37454 6.80114 9.76276 6.80114 10.2804C6.80114 10.8215 7.18309 11.2097 7.72021 11.2097C8.24539 11.2097 8.63928 10.8215 8.63928 10.2921C8.63928 9.76276 8.24539 9.37454 7.72021 9.37454ZM8.45547 3.67629H6.98495V8.08784H8.45547V3.67629Z" fill="black"/>
</svg>
